{"glyphs":{"0":{"ha":717,"x_min":15,"x_max":700,"o":"m 17 200 l 17 218 q 16 249 17 233 q 15 281 15 265 l 15 300 q 30 426 15 372 q 74 522 44 481 q 152 594 104 564 q 267 650 200 625 q 297 660 278 654 q 317 667 315 667 q 464 642 394 667 q 586 571 533 617 q 669 458 639 525 q 700 308 700 392 q 677 199 700 246 q 617 117 654 153 q 531 53 579 81 q 433 0 483 25 l 426 0 q 389 5 417 0 q 324 17 361 10 q 247 35 288 25 q 170 53 206 44 q 110 70 135 63 q 83 83 86 78 q 69 114 74 97 q 58 147 64 131 q 42 176 51 163 q 17 200 33 190 m 199 376 q 199 339 199 365 q 203 280 200 313 q 211 213 206 247 q 226 149 217 178 q 249 102 235 121 q 283 83 263 83 l 433 83 q 457 111 440 83 q 490 174 474 139 q 520 241 507 208 q 533 283 533 274 q 533 309 533 290 q 531 349 532 328 q 528 390 529 371 q 525 417 526 410 l 525 317 q 513 406 519 354 q 488 504 506 457 q 438 585 471 551 q 350 618 406 618 q 276 592 306 618 q 230 529 247 567 q 206 450 213 492 q 199 376 199 408 m 533 100 l 533 83 l 550 100 l 533 100 m 133 133 q 119 117 119 133 q 133 100 119 100 q 147 117 147 100 q 133 133 147 133 m 150 200 q 136 183 136 200 q 150 167 136 167 q 164 183 164 167 q 150 200 164 200 m 133 317 q 127 303 129 324 q 125 258 125 283 q 127 213 125 233 q 133 200 129 193 q 139 223 138 207 q 140 258 140 239 q 139 294 140 278 q 133 317 138 310 m 167 233 q 158 225 158 235 q 167 216 158 214 q 175 225 175 218 q 167 233 175 231 m 567 333 l 567 250 q 581 291 575 269 q 586 333 586 313 l 567 333 m 167 300 q 158 292 158 301 q 167 283 158 281 q 175 292 175 285 q 167 300 175 297 m 67 433 q 58 425 58 435 q 67 416 58 414 q 75 425 75 418 q 67 433 75 431 m 517 567 q 503 550 503 567 q 517 533 503 533 q 531 550 531 533 q 517 567 531 567 m 500 583 l 500 567 l 517 583 l 500 583 z "},"1":{"ha":469,"x_min":10,"x_max":418,"o":"m 267 33 q 283 16 271 28 q 300 0 294 4 l 308 0 l 317 0 l 417 33 q 417 38 417 35 q 418 42 418 40 q 411 62 418 51 q 394 83 404 72 q 376 106 385 94 q 367 133 368 118 l 350 100 l 333 117 q 333 128 333 118 q 332 150 332 139 q 331 176 332 164 q 331 197 331 188 q 336 276 331 222 q 348 388 342 329 q 360 500 354 446 q 365 582 365 554 q 372 597 365 593 q 387 601 379 600 q 399 602 394 601 q 401 606 404 603 q 382 620 397 610 q 333 650 367 631 q 324 657 331 651 q 310 669 318 663 q 294 679 301 675 q 283 683 288 683 q 267 676 279 683 q 250 667 254 668 q 220 656 239 663 q 200 650 201 650 q 172 654 194 650 q 125 665 150 658 q 78 676 100 671 q 50 683 56 681 q 30 685 46 685 q 10 686 14 686 q 22 638 10 654 q 51 615 33 622 q 88 603 68 607 q 126 592 108 600 q 155 567 143 583 q 167 517 167 550 q 159 297 167 411 q 117 83 151 183 q 74 44 103 54 q 17 33 46 35 l 17 15 q 41 16 22 15 q 67 17 60 17 q 107 19 79 17 q 167 23 135 21 q 226 28 199 25 q 267 33 254 31 m 217 183 q 223 217 217 194 q 233 250 229 239 q 249 188 247 214 q 251 125 251 161 q 251 96 251 118 q 250 67 250 74 q 240 74 246 68 q 233 83 235 79 q 228 105 231 90 q 223 135 225 119 q 219 165 221 151 q 217 183 217 178 m 250 317 q 258 308 258 314 q 250 299 258 301 q 242 308 242 297 q 250 317 242 318 z "},"2":{"ha":517,"x_min":14,"x_max":472,"o":"m 467 24 l 467 17 q 460 7 465 13 q 450 0 454 1 l 369 15 l 15 0 l 17 150 q 15 168 17 151 q 14 193 14 185 q 20 264 14 233 q 50 333 26 294 q 81 335 67 324 q 110 364 96 347 q 139 394 125 381 q 167 400 153 407 q 228 431 201 417 q 275 461 254 444 q 314 499 296 478 q 350 550 332 519 q 351 553 350 550 q 351 558 351 557 q 351 563 351 560 q 350 567 350 567 q 326 596 335 583 q 309 617 317 608 q 292 631 301 626 q 268 635 283 635 q 184 606 218 635 q 126 542 150 576 q 88 478 103 507 q 58 449 72 449 q 54 449 57 449 q 50 450 51 450 q 44 497 47 481 q 39 528 42 514 q 34 558 36 542 q 32 606 32 575 q 31 624 32 613 q 33 647 31 636 q 40 665 35 657 q 60 672 46 672 q 76 666 68 672 q 90 653 83 660 q 103 640 97 646 q 117 633 110 633 q 157 638 136 633 q 199 649 178 643 q 241 661 219 656 q 285 667 263 667 q 351 652 321 667 q 403 614 382 638 q 438 558 425 590 q 450 492 450 526 q 423 403 450 440 q 357 339 396 367 q 274 289 318 311 q 194 244 229 267 q 140 195 158 221 q 133 133 121 169 q 155 105 138 122 q 183 83 172 88 q 199 86 188 83 q 225 92 211 89 q 251 97 239 94 q 267 100 263 100 l 276 100 l 283 100 q 292 91 285 99 q 300 83 299 83 q 348 94 332 83 q 371 119 364 104 q 380 151 378 133 q 388 184 382 169 q 408 209 394 199 q 450 219 421 219 q 457 194 450 203 q 468 183 464 186 q 470 176 472 179 q 450 167 468 174 q 455 139 451 158 q 460 99 458 119 q 465 59 463 78 q 467 33 467 40 l 467 24 m 417 483 q 403 467 403 483 q 417 450 403 450 q 431 467 431 450 q 417 483 431 483 z "},"3":{"ha":603,"x_min":3,"x_max":594,"o":"m 289 624 l 182 607 l 153 574 q 140 608 153 599 q 108 620 126 618 q 67 619 89 622 q 31 617 46 617 q 3 640 7 617 q 43 653 19 647 q 90 664 67 660 q 135 671 114 668 q 169 674 156 674 q 188 667 175 674 q 203 657 200 660 l 428 664 q 464 631 442 638 q 508 619 486 625 q 545 599 529 614 q 561 539 561 583 l 561 531 l 528 481 q 527 477 528 481 q 526 472 526 474 q 527 467 526 469 q 528 464 528 464 q 536 454 531 460 q 544 447 542 449 q 507 426 521 443 q 493 389 493 410 q 506 355 493 367 q 535 335 518 343 q 569 319 553 326 q 594 297 586 311 l 578 281 l 578 164 q 571 172 576 167 q 561 181 565 178 q 558 181 561 181 q 553 182 556 182 q 534 172 538 182 q 531 151 531 163 q 532 129 531 140 q 528 114 533 118 q 519 109 526 111 q 503 105 511 107 q 487 101 494 103 q 478 97 479 99 q 461 74 469 90 q 443 49 453 57 l 333 42 q 317 28 326 42 q 294 -1 307 15 q 265 -31 281 -18 q 233 -44 250 -44 l 233 18 l 247 18 q 278 23 261 18 q 300 42 294 28 q 283 42 296 42 q 267 43 271 43 q 204 33 233 43 q 142 24 175 24 q 113 27 133 24 q 69 36 92 31 q 31 49 47 42 q 14 67 14 57 q 17 75 14 72 q 52 74 38 75 q 78 72 67 72 q 97 73 89 71 q 111 85 104 75 q 194 81 154 81 q 297 83 254 81 q 347 86 339 86 q 356 88 350 86 q 364 90 361 89 l 378 197 q 385 210 379 199 q 398 238 392 222 q 408 272 404 254 q 407 301 411 289 q 399 307 406 307 q 394 310 392 307 q 378 317 396 315 q 333 317 361 318 q 272 315 306 317 q 209 310 239 313 q 158 308 179 308 q 133 308 136 307 q 120 321 122 314 q 118 335 118 328 q 120 350 118 344 q 119 356 122 356 q 272 378 218 367 q 351 401 325 389 q 383 424 376 413 q 394 447 390 435 l 344 447 q 355 456 347 449 q 371 471 363 463 q 385 487 379 479 q 394 497 392 494 q 396 500 394 497 q 397 506 397 503 q 390 531 397 515 q 372 564 382 547 q 349 594 361 581 q 328 614 338 608 q 322 597 328 610 q 311 581 315 583 q 322 578 313 581 q 338 574 331 576 q 347 572 346 572 q 342 573 344 572 q 339 574 339 574 q 330 587 333 578 q 322 604 326 596 q 313 619 318 613 q 297 625 307 625 q 292 624 294 625 q 289 624 290 624 m 394 597 q 382 581 382 597 q 394 564 382 564 q 408 581 408 564 q 394 597 408 597 m 486 232 q 481 231 485 232 q 478 231 478 231 q 470 215 475 228 q 461 197 465 201 l 461 181 l 494 231 q 491 231 493 231 q 486 232 489 232 m 444 397 q 428 389 442 394 q 411 381 415 383 l 428 381 q 445 388 432 382 q 461 397 458 393 l 444 397 m 443 149 q 435 140 435 151 q 443 131 435 129 q 451 140 451 133 q 443 149 451 146 z "},"4":{"ha":725,"x_min":1,"x_max":708,"o":"m 225 417 l 226 581 q 233 590 226 585 q 243 597 239 596 q 265 602 250 599 q 296 628 281 606 l 276 638 q 261 644 271 638 q 249 647 251 651 l 18 653 l 1 636 q 20 619 7 628 q 49 603 33 611 q 80 590 65 596 q 101 583 94 585 l 114 332 l 442 333 q 426 306 428 318 q 424 275 424 294 q 424 263 424 271 q 425 250 425 254 l 458 267 q 458 254 458 263 q 459 238 458 247 q 460 219 460 228 q 460 208 460 213 l 460 189 l 460 164 q 456 122 460 142 q 442 100 453 103 l 292 50 q 322 48 300 50 q 367 43 343 46 q 413 38 392 40 q 442 33 435 35 q 458 26 446 33 q 475 17 471 18 l 483 17 q 532 22 501 17 q 594 33 563 26 q 652 44 625 39 q 692 50 679 50 l 708 67 q 651 86 674 68 q 615 130 628 104 q 596 186 601 156 q 590 243 590 217 q 591 267 590 254 q 608 283 592 279 q 586 306 597 290 q 575 333 575 322 q 581 344 575 338 q 592 350 588 350 q 583 450 589 401 q 584 536 578 499 q 617 597 590 574 q 707 619 644 619 q 698 645 707 636 q 675 658 689 654 q 647 663 661 663 q 619 664 632 664 q 519 658 568 664 q 419 649 469 653 q 451 578 443 615 q 460 500 460 540 l 460 486 q 459 466 460 476 q 458 446 458 456 l 458 433 q 433 410 450 419 q 401 400 417 400 l 392 400 q 358 401 382 400 q 308 406 335 403 q 258 411 282 408 q 225 417 235 414 m 508 267 q 514 250 513 261 q 515 225 515 239 q 514 200 515 211 q 508 183 513 189 q 502 193 504 178 q 500 225 500 208 q 502 258 500 244 q 508 267 504 272 m 508 350 q 522 333 522 350 q 508 317 522 317 q 494 333 494 317 q 508 350 494 350 m 408 217 q 400 208 400 218 q 408 199 400 197 q 417 208 417 201 q 408 217 417 214 z "},"5":{"ha":594,"x_min":0,"x_max":569,"o":"m 497 651 l 497 642 q 484 606 497 622 q 475 578 471 589 q 495 569 493 571 q 493 563 497 567 q 482 551 489 558 q 475 525 475 543 q 435 530 446 525 q 423 543 425 535 q 423 560 421 551 q 422 576 425 568 q 405 590 418 585 q 360 594 392 594 q 348 592 358 596 q 343 578 338 588 l 336 578 l 160 586 l 160 449 q 252 451 204 451 q 346 442 300 450 q 432 415 392 433 q 503 367 472 397 q 551 291 533 336 q 569 182 569 246 q 558 115 569 147 q 524 60 546 83 q 472 22 501 36 q 406 7 442 7 q 347 12 383 7 q 272 22 311 17 q 198 31 233 26 q 142 36 163 36 q 128 31 135 36 q 115 17 122 25 q 101 4 108 10 q 85 -1 93 -1 q 65 6 71 -1 q 58 24 60 14 q 56 46 56 35 q 57 65 57 57 q 60 99 57 94 q 66 101 63 103 q 74 105 69 100 q 81 140 78 110 q 84 141 82 140 q 89 142 86 142 q 131 126 101 142 q 202 90 161 110 q 291 55 243 71 q 389 39 339 39 q 414 43 406 39 q 430 56 422 47 q 446 77 438 64 q 469 107 454 90 q 471 110 469 107 q 472 115 472 114 q 471 120 472 117 q 469 124 469 124 q 428 253 458 207 q 355 322 397 300 q 265 347 313 343 q 174 349 218 350 q 96 347 131 347 q 46 361 61 347 l 0 667 l 400 660 l 481 675 q 489 668 483 674 q 497 658 494 663 l 497 651 m 536 190 q 550 207 550 190 q 536 224 550 224 q 524 207 524 224 q 536 190 524 190 z "},"6":{"ha":699,"x_min":15,"x_max":653,"o":"m 517 33 q 426 16 471 17 q 333 15 382 15 l 314 15 q 283 16 299 15 q 251 17 267 17 l 233 17 q 178 61 208 50 q 108 72 149 72 q 97 119 108 97 q 71 163 85 142 q 45 203 57 183 q 33 242 33 222 l 33 250 l 50 283 q 49 292 50 285 q 47 300 47 299 l 31 300 q 34 314 31 308 q 41 324 38 319 q 48 335 44 329 q 51 350 51 340 q 51 360 51 354 q 50 367 50 365 l 17 350 q 16 374 17 356 q 15 400 15 393 q 26 454 15 438 q 49 478 36 471 q 73 489 63 486 q 83 500 83 492 l 83 617 q 88 631 83 628 q 99 633 93 633 q 112 632 106 633 q 122 631 118 631 q 120 647 122 638 q 119 665 118 657 q 125 680 119 674 q 144 686 131 686 q 147 657 144 675 q 167 633 150 639 q 184 638 172 635 q 208 644 196 642 q 233 648 221 646 q 250 650 244 650 q 262 651 257 650 q 272 651 267 651 q 290 652 279 651 q 325 653 301 653 q 410 652 369 653 q 467 651 451 651 q 483 679 475 664 q 499 708 490 694 q 520 730 508 721 q 549 739 532 739 q 556 732 551 739 q 565 722 561 725 l 565 706 l 543 606 q 550 578 547 590 q 553 565 553 567 q 547 556 553 561 q 532 543 540 550 l 532 550 q 531 547 532 549 q 531 543 531 544 q 519 532 519 532 q 496 519 501 518 q 488 531 490 521 q 483 555 486 540 q 465 583 479 569 q 423 608 451 597 q 342 618 394 618 q 281 601 300 618 q 255 558 263 585 q 245 494 247 531 q 236 418 243 457 l 435 410 q 533 372 492 390 q 601 332 574 353 q 640 286 628 311 q 653 231 653 261 q 649 186 653 210 q 633 133 644 163 q 640 117 632 129 q 650 100 649 104 l 650 83 q 648 69 650 79 q 643 49 646 60 q 638 30 640 39 q 633 17 635 21 l 600 50 q 590 40 597 47 q 576 24 583 32 q 560 10 568 17 q 550 0 553 3 q 547 -1 550 0 q 542 -1 543 -1 q 537 -1 540 -1 q 533 0 533 0 q 523 16 529 4 q 517 33 517 28 m 244 319 q 239 266 242 289 q 234 223 236 243 q 231 185 232 203 q 233 150 231 168 l 217 133 q 310 93 261 104 q 408 82 358 82 q 438 83 415 82 q 467 83 460 83 q 491 103 475 86 q 522 142 507 121 q 549 182 538 163 q 561 210 561 201 q 544 247 561 228 q 488 283 526 267 q 390 309 450 299 q 244 319 329 319 m 200 217 q 194 210 196 221 q 192 183 192 199 q 194 157 192 168 q 200 150 196 146 q 208 183 208 158 q 200 217 208 208 m 150 233 q 136 217 136 233 q 150 200 136 200 q 164 217 164 200 q 150 233 164 233 m 100 333 q 86 317 86 333 q 100 300 86 300 q 114 317 114 300 q 100 333 114 333 m 133 533 q 119 517 119 533 q 133 500 119 500 q 147 517 147 500 q 133 533 147 533 m 550 117 q 536 100 536 117 q 550 83 536 83 q 564 100 564 83 q 550 117 564 117 m 583 183 l 583 100 l 600 100 l 583 183 m 67 550 q 67 546 67 549 q 68 542 68 543 q 67 537 68 540 q 67 533 67 533 q 60 524 65 529 q 50 517 54 518 q 49 521 50 518 q 49 525 49 524 q 49 530 49 526 q 50 533 50 533 q 57 543 51 538 q 67 550 63 549 m 519 582 q 511 574 511 585 q 519 565 511 563 q 528 574 528 567 q 519 582 528 579 m 531 531 l 531 543 l 532 543 q 531 536 531 540 q 531 532 531 533 l 531 531 m 532 558 l 532 556 l 532 550 l 532 558 z "},"7":{"ha":699,"x_min":17,"x_max":724,"o":"m 300 31 l 360 65 l 300 83 q 299 90 300 85 q 299 100 299 96 q 299 110 299 104 q 300 117 300 117 l 317 150 q 333 185 321 157 q 358 248 344 214 q 385 312 372 282 q 400 350 397 342 q 420 385 406 358 q 452 444 435 413 q 485 506 469 476 q 510 551 501 536 q 517 561 511 556 q 526 568 524 567 l 526 560 l 526 551 q 508 498 519 526 q 483 442 496 469 q 456 391 469 415 q 433 350 443 367 l 433 317 l 576 551 q 605 574 585 564 q 645 596 625 585 q 681 620 665 607 q 697 653 697 633 q 549 644 622 653 q 401 635 476 635 q 308 643 351 635 q 224 662 265 651 q 142 681 183 672 q 56 690 101 690 q 67 655 56 669 q 92 625 78 640 q 117 592 106 610 q 128 550 128 575 q 122 520 128 535 q 109 490 117 506 q 96 458 101 475 q 90 424 90 442 q 138 435 124 424 q 158 463 153 446 q 166 501 164 481 q 176 538 168 521 q 201 567 183 556 q 260 578 219 578 l 260 567 q 268 567 261 567 q 276 568 275 568 l 376 601 q 381 601 378 601 q 386 600 385 600 q 389 561 386 576 q 393 535 392 546 q 392 513 394 524 q 376 485 389 501 q 307 394 339 435 q 245 313 275 354 q 185 226 215 272 q 117 117 154 179 q 87 117 104 122 q 54 103 69 113 q 28 84 39 94 q 17 67 17 74 l 17 50 q 28 46 17 49 q 55 40 39 43 q 88 35 71 38 q 117 33 106 33 q 166 33 133 33 q 243 32 199 32 l 333 32 l 300 31 m 100 100 q 114 83 114 100 q 100 67 114 67 q 86 83 86 67 q 100 100 86 100 m 333 400 q 292 318 314 360 q 233 250 269 276 q 273 333 249 290 q 333 400 297 375 m 350 350 q 351 346 350 349 q 351 342 351 343 q 351 337 351 340 q 350 333 350 333 q 343 324 349 329 q 333 317 338 318 q 333 321 333 318 q 332 325 332 324 q 333 330 332 326 q 333 333 333 333 q 340 343 335 338 q 350 350 346 349 m 410 435 q 424 418 424 435 q 410 401 424 401 q 397 418 397 401 q 410 435 397 435 m 126 501 q 135 493 135 499 q 126 485 135 486 q 118 493 118 483 q 126 501 118 504 m 460 535 q 447 508 454 521 q 426 485 440 494 q 426 489 426 486 q 425 493 425 492 q 426 498 425 494 q 426 501 426 501 q 442 519 431 507 q 460 535 454 532 m 710 635 q 697 618 697 635 q 710 601 697 601 q 724 618 724 601 q 710 635 724 635 m 226 685 q 218 693 228 693 q 210 685 208 693 q 218 676 211 676 q 226 685 224 676 z "},"8":{"ha":633,"x_min":7,"x_max":625,"o":"m 174 674 l 219 669 q 278 681 250 676 q 326 686 307 686 q 332 685 328 686 q 340 682 336 683 q 367 677 354 679 q 400 672 381 675 l 458 678 q 467 665 463 671 q 478 653 471 660 q 489 650 483 651 q 500 647 494 649 q 499 644 500 644 l 499 643 q 531 636 514 639 q 560 626 547 633 q 583 601 574 618 q 592 551 592 585 l 592 543 l 558 492 q 558 488 558 492 q 557 483 557 485 q 558 478 557 482 q 558 475 558 475 q 565 465 560 471 q 575 458 571 460 q 538 437 551 454 q 524 399 524 419 q 536 364 524 376 q 565 343 549 351 q 599 327 582 335 q 625 306 617 319 l 608 286 l 608 168 q 601 178 607 172 q 592 185 596 183 q 588 185 592 185 q 583 186 585 186 q 564 177 568 186 q 560 157 560 168 q 562 133 560 144 q 558 117 564 122 q 549 112 556 114 q 533 108 542 110 q 517 103 525 106 q 508 100 510 101 q 497 88 501 96 q 485 69 492 79 l 486 69 q 490 60 490 65 q 474 33 490 40 q 434 24 457 25 q 388 26 411 22 q 349 33 364 31 q 331 13 340 25 q 310 -7 321 0 q 288 -10 300 -14 q 264 19 276 -6 l 276 19 l 289 19 q 286 22 289 22 q 244 29 271 25 q 199 42 218 33 l 158 44 q 141 71 150 54 q 124 94 132 88 q 114 99 121 96 q 99 103 107 101 q 83 108 90 106 q 74 111 75 110 q 70 128 68 117 q 72 151 72 139 q 68 172 72 163 q 49 182 64 182 q 44 181 47 182 q 40 181 40 181 q 31 172 36 178 q 24 164 25 167 l 24 282 l 7 300 q 33 322 15 314 q 67 338 50 329 q 96 358 83 346 q 108 393 108 371 q 94 432 108 415 q 57 453 81 449 q 66 461 60 456 q 74 469 72 467 q 74 473 74 469 q 75 478 75 476 q 74 483 75 481 q 74 486 74 486 l 40 539 l 40 547 q 56 608 40 593 q 94 629 72 624 q 138 640 115 635 q 174 674 161 646 m 353 615 l 286 626 q 281 617 283 621 q 276 610 278 614 q 274 620 275 617 q 274 624 274 624 q 252 604 264 618 q 230 573 240 590 q 213 538 219 556 q 206 511 206 521 q 206 506 206 510 q 207 503 207 503 q 217 492 210 500 q 231 477 224 485 q 247 463 239 469 q 257 453 254 456 l 207 453 q 206 439 208 446 q 200 424 203 432 q 199 409 197 417 q 211 394 200 401 q 247 378 222 386 q 314 364 271 371 q 394 381 367 372 q 433 397 422 389 q 443 413 444 406 q 437 428 442 421 q 426 444 432 436 q 425 458 421 451 l 425 508 q 426 512 425 508 q 426 517 426 515 q 421 539 426 525 q 407 567 415 553 q 389 596 399 582 q 369 619 379 610 q 361 611 365 618 q 353 615 357 604 m 256 85 q 259 84 257 85 q 267 82 261 83 q 268 85 267 83 q 331 81 311 81 q 360 83 351 81 q 370 88 368 85 q 376 90 372 90 q 386 91 381 90 q 393 93 392 92 l 456 139 q 482 158 481 136 q 474 209 483 179 q 452 268 465 239 q 436 310 439 297 q 428 315 435 315 q 425 318 422 315 q 414 325 426 325 q 399 325 407 325 q 383 324 392 325 q 369 308 381 313 q 348 306 367 304 q 306 311 329 308 q 290 314 292 311 q 286 315 286 314 q 228 320 254 318 q 207 314 203 322 q 201 310 208 310 q 194 306 199 310 q 187 272 192 293 q 178 231 182 251 q 171 197 174 211 q 169 181 168 182 l 239 89 q 246 85 240 86 q 256 85 251 85 m 425 611 q 411 593 411 611 q 425 576 411 576 q 439 593 439 576 q 425 611 439 611 m 517 239 q 512 238 515 239 q 508 236 508 236 q 500 221 504 235 q 492 201 496 207 l 492 185 l 525 236 q 521 238 524 236 q 517 239 518 239 m 475 407 q 458 399 471 406 q 442 390 446 393 l 458 390 q 475 397 463 392 q 492 407 488 403 l 475 407 m 276 610 q 271 594 274 600 q 264 582 268 588 q 288 589 286 588 q 276 610 290 590 m 474 153 q 465 143 465 157 q 474 135 465 133 q 482 143 482 136 q 474 153 482 150 m 303 31 q 307 27 306 28 q 310 25 308 26 q 328 40 324 29 q 319 39 325 39 q 311 39 315 39 l 301 39 q 302 33 301 35 q 303 31 303 32 m 256 581 l 257 581 q 264 582 261 581 q 260 581 264 582 q 256 581 257 581 z "},"9":{"ha":649,"x_min":21,"x_max":600,"o":"m 154 674 q 149 691 154 679 q 139 707 143 703 q 135 708 139 707 q 131 708 132 708 q 126 708 129 708 q 122 707 122 707 l 72 658 l 40 690 q 36 677 39 686 q 31 658 33 668 q 26 639 28 649 q 24 625 24 629 l 24 608 q 33 593 25 606 q 40 576 42 581 q 25 525 29 549 q 21 482 21 501 q 72 383 21 421 q 236 307 124 344 l 431 299 q 422 225 424 260 q 413 163 419 190 q 387 120 406 136 q 328 104 368 104 q 248 114 276 104 q 206 138 219 124 q 188 166 192 151 q 183 190 185 181 q 176 199 181 199 q 153 188 171 200 l 142 176 q 141 174 142 175 q 140 171 140 172 l 140 176 q 126 165 132 169 q 119 156 119 160 q 122 143 119 154 q 129 117 125 132 q 171 63 153 81 q 204 71 189 46 q 259 70 219 71 q 343 69 299 69 q 378 70 367 69 q 396 71 389 71 q 406 72 401 71 q 417 72 410 72 q 434 85 429 72 q 451 101 439 99 q 471 78 468 96 q 474 50 474 61 q 493 56 488 50 q 499 71 499 63 q 498 88 500 79 q 496 104 496 97 q 506 103 500 104 q 518 101 511 101 q 528 104 524 101 q 533 118 533 107 l 533 231 q 544 242 533 239 q 567 251 554 244 q 590 276 579 258 q 600 329 600 293 q 599 354 600 336 q 599 378 599 372 l 567 361 q 566 368 567 363 q 565 378 565 374 q 569 392 565 386 q 576 402 572 397 q 583 413 579 407 q 586 426 586 418 l 569 426 q 568 435 569 428 q 567 442 567 442 l 583 475 l 583 483 q 572 521 583 501 q 546 560 560 540 q 520 602 532 581 q 508 649 508 624 q 479 649 489 649 q 463 653 469 650 q 451 665 457 657 q 433 690 446 674 l 415 690 q 385 691 400 690 q 354 692 369 692 l 335 692 q 243 691 286 692 q 154 674 200 690 m 475 372 q 323 385 390 372 q 208 419 256 399 q 136 461 161 439 q 111 501 111 483 q 122 528 111 510 q 149 568 133 547 q 181 606 165 589 q 204 625 196 622 q 233 626 211 625 q 261 626 254 626 q 358 615 311 626 q 450 576 406 604 l 433 560 q 444 522 436 543 q 459 478 451 501 q 472 428 467 454 q 475 372 478 401 m 467 496 q 458 528 458 501 q 467 560 458 551 q 473 553 471 564 q 475 528 475 543 q 473 502 475 513 q 467 496 471 492 m 468 492 q 454 507 454 492 q 468 524 454 524 q 482 507 482 524 q 468 492 482 492 m 517 393 q 503 410 503 393 q 517 426 503 426 q 531 410 531 426 q 517 393 531 393 m 485 199 q 471 215 471 199 q 485 231 471 231 q 499 215 499 231 q 485 199 499 199 m 122 593 q 108 608 108 593 q 122 625 108 625 q 136 608 136 625 q 122 593 136 593 m 89 528 l 72 608 l 89 608 l 89 528 m 550 182 q 560 189 554 183 q 567 199 565 194 q 567 202 567 199 q 568 207 568 206 q 567 211 568 208 q 567 215 567 214 q 557 208 563 214 q 550 199 551 203 q 549 195 550 199 q 549 190 549 192 q 549 186 549 189 q 550 182 550 183 m 153 139 q 144 147 144 140 q 152 156 144 154 q 160 147 160 158 q 153 139 160 136 m 142 189 l 142 188 l 142 183 q 140 176 142 178 l 142 176 l 142 189 m 140 163 l 140 171 l 140 165 l 140 163 z "}," ":{"ha":338,"x_min":0,"x_max":0,"o":""},"!":{"ha":401,"x_min":-15,"x_max":368,"o":"m 265 299 q 213 294 243 303 q 158 282 183 286 q 119 288 133 278 q 115 342 106 299 q 138 404 132 385 q 145 438 144 424 q 144 473 146 453 q 142 539 142 493 q 130 583 142 568 q 101 604 118 597 q 63 615 83 611 q 26 624 43 618 q -3 644 8 631 q -15 686 -15 658 q 5 685 -11 686 q 25 683 21 685 q 53 676 31 681 q 100 667 75 672 q 147 659 125 663 q 175 656 169 656 q 195 661 176 656 q 225 669 214 667 q 242 676 229 669 q 258 683 254 683 q 269 680 263 683 q 285 672 276 676 q 299 662 293 667 q 308 656 306 657 q 344 628 338 647 q 347 580 351 608 q 335 516 343 551 q 328 440 328 481 q 329 422 328 431 q 331 400 331 414 q 331 381 331 389 q 332 372 332 374 l 349 357 l 365 385 q 364 331 368 360 q 360 283 360 303 q 359 279 360 282 q 358 275 358 276 l 315 269 l 307 269 l 299 269 q 281 284 293 274 q 265 299 268 294 m 215 390 q 217 372 215 385 q 222 342 219 358 q 226 312 224 326 q 232 290 229 297 q 239 281 233 286 q 249 274 244 275 q 249 303 249 281 q 250 332 250 325 q 248 394 250 368 q 232 457 246 421 q 226 442 229 451 q 222 422 224 432 q 217 403 219 413 q 215 390 215 394 m 249 524 q 240 515 240 525 q 249 506 240 504 q 257 515 257 508 q 249 524 257 521 m 147 36 l 147 42 l 147 56 l 147 60 q 162 112 147 94 q 211 140 176 129 q 220 143 215 142 q 226 144 225 144 q 301 123 271 144 q 331 61 331 101 q 307 17 331 33 q 258 -10 283 1 l 257 -10 q 240 -7 254 -10 q 209 -1 225 -4 q 180 5 193 1 q 165 10 167 8 q 159 24 161 17 q 147 36 157 32 m 283 14 l 283 10 l 290 14 l 283 14 m 178 22 q 174 17 174 22 q 178 14 174 14 q 182 17 182 14 q 178 22 182 22 m 183 36 q 178 32 178 36 q 183 28 178 28 q 186 32 186 28 q 183 36 186 36 m 178 64 q 176 60 176 65 l 176 50 q 178 36 176 36 q 181 50 181 39 q 178 64 181 61 m 189 43 q 185 42 185 43 q 186 40 185 40 q 189 42 189 40 l 189 43 m 292 67 l 292 49 q 299 67 299 54 l 292 67 m 189 60 q 185 57 185 61 q 187 56 185 56 q 189 57 189 57 l 189 60 m 161 90 q 160 89 160 90 l 160 86 q 161 89 161 86 l 161 90 m 282 124 q 275 118 275 124 q 282 114 275 114 q 283 118 283 114 q 282 124 283 124 m 275 125 l 275 124 l 282 125 l 275 125 z "},"\"":{"ha":442,"x_min":25,"x_max":424,"o":"m 239 549 l 239 553 l 239 567 l 239 572 q 253 623 239 606 q 303 651 268 640 q 312 655 307 653 q 318 657 317 657 q 393 635 363 657 q 422 574 424 613 q 408 456 419 497 q 382 395 397 415 q 350 370 367 375 q 319 360 333 365 l 333 492 q 322 499 333 496 q 297 506 311 503 q 271 514 283 510 q 257 522 258 518 q 251 536 253 529 q 239 549 249 543 m 269 533 q 265 528 265 533 q 269 525 265 525 q 274 528 274 525 q 269 533 274 533 m 275 549 q 269 543 269 549 q 275 540 269 540 q 278 543 278 540 q 275 549 278 549 m 269 575 q 268 572 268 576 l 268 561 q 269 549 268 549 q 272 561 272 550 q 269 575 272 574 m 281 556 q 276 553 276 556 q 278 551 276 551 q 281 553 281 551 l 281 556 m 383 578 l 383 560 q 390 578 390 567 l 383 578 m 281 572 q 276 568 276 574 q 278 567 276 567 q 281 568 281 568 l 281 572 m 253 601 q 251 600 251 601 l 251 599 q 253 600 253 599 l 253 601 m 374 635 q 367 631 367 635 q 374 625 367 625 q 375 631 375 625 q 374 635 375 635 m 367 636 l 367 635 l 374 636 l 367 636 m 25 543 l 25 549 l 25 561 l 25 567 q 40 618 25 600 q 90 647 54 636 q 98 650 93 649 q 106 651 103 651 q 180 629 150 651 q 208 568 210 607 q 194 451 206 492 q 168 390 183 410 q 136 365 153 371 q 107 356 119 360 l 119 486 q 108 494 119 490 q 83 502 97 499 q 57 509 69 506 q 43 517 44 513 q 38 531 40 524 q 25 543 36 538 m 57 528 q 51 524 51 528 q 57 519 51 519 q 60 524 60 519 q 57 528 60 528 m 61 543 q 57 539 57 543 q 61 535 57 535 q 65 539 65 535 q 61 543 65 543 m 57 569 q 56 567 56 572 l 56 557 q 57 543 56 543 q 58 557 58 544 q 57 569 58 568 m 67 550 q 64 549 64 550 q 65 547 64 547 q 67 549 67 547 l 67 550 m 169 574 l 169 556 q 176 574 176 561 l 169 574 m 67 567 q 64 564 64 569 q 65 563 64 561 q 67 564 67 564 l 67 567 m 40 597 q 39 594 39 597 l 39 593 q 40 594 40 593 l 40 597 m 160 631 q 153 625 153 631 q 160 619 153 619 q 161 625 161 619 q 160 631 161 631 m 153 632 l 153 631 l 160 632 l 153 632 z "},"#":{"ha":707,"x_min":28,"x_max":682,"o":"m 615 303 l 525 311 l 525 408 q 565 404 544 407 q 608 399 585 401 q 621 391 613 392 q 643 390 629 390 l 660 390 l 681 394 l 676 511 l 676 514 q 673 518 676 517 q 669 522 669 519 q 639 504 642 511 q 635 494 636 497 q 627 490 636 492 q 614 486 618 489 l 526 494 q 535 642 529 586 q 557 700 540 697 l 535 715 q 524 714 532 714 q 506 714 517 714 l 460 714 q 442 716 447 714 q 433 721 436 718 q 426 726 429 724 q 417 728 424 728 l 411 726 q 404 717 410 725 q 394 708 399 708 q 383 701 386 703 q 365 694 379 699 l 418 624 q 416 575 415 611 q 419 499 417 539 l 383 499 q 350 498 367 499 q 318 499 333 497 q 326 643 321 588 q 349 701 332 699 l 326 717 q 315 715 324 715 q 297 715 308 715 l 251 715 q 233 717 239 715 q 224 723 228 719 q 218 728 221 726 q 208 731 215 731 l 203 728 q 196 718 201 726 q 186 710 190 710 q 174 702 178 704 q 157 697 171 700 l 210 625 q 208 576 207 613 q 211 500 208 540 l 175 500 q 130 501 153 500 q 88 503 107 501 q 56 511 69 506 q 42 528 43 517 l 28 514 q 31 494 29 508 q 33 462 32 479 q 34 428 33 444 q 35 401 35 411 l 36 399 q 40 397 39 397 q 42 396 42 397 q 42 394 42 394 q 48 385 46 388 q 53 374 50 383 l 132 403 l 118 417 q 139 419 118 419 q 167 420 149 419 q 217 418 185 421 q 217 395 217 404 q 218 383 218 386 q 218 353 218 369 q 219 317 218 336 l 176 317 q 131 317 154 317 q 90 320 108 318 q 58 328 71 322 q 43 344 44 333 l 31 331 q 33 310 32 325 q 34 278 33 296 q 35 244 35 261 q 36 218 36 228 l 39 215 l 42 215 l 42 211 q 49 202 47 204 q 56 190 51 200 l 133 219 l 119 232 q 140 235 119 235 q 168 235 150 235 q 219 233 186 236 q 217 153 219 196 q 208 60 215 110 q 199 35 199 57 l 199 6 l 181 6 l 303 -3 q 310 2 308 -3 q 317 7 313 7 q 310 28 310 19 q 315 43 311 38 q 320 51 318 49 q 319 56 322 54 l 318 56 q 314 63 315 53 q 308 78 313 74 q 310 143 310 111 q 311 207 310 175 l 342 218 l 335 224 q 366 219 350 221 q 401 217 382 218 q 411 210 404 211 q 428 210 418 210 q 424 139 426 176 q 417 58 422 101 q 408 49 410 56 q 407 33 407 42 l 407 3 l 389 3 l 511 -6 q 519 0 517 -6 q 525 6 521 6 q 519 27 518 18 q 523 42 519 36 q 528 50 526 47 q 528 53 531 53 l 526 53 q 522 61 524 51 q 517 76 521 71 q 519 151 518 114 q 522 225 519 189 q 563 220 542 222 q 610 215 585 218 q 622 208 614 208 q 644 208 631 208 l 661 208 l 682 214 l 678 328 l 678 331 q 675 335 678 333 q 672 339 672 336 q 641 321 644 328 q 636 310 638 314 q 630 306 639 307 q 615 303 621 306 m 340 401 l 332 408 q 364 404 347 407 q 400 400 381 401 q 410 393 403 394 q 425 392 417 392 q 426 385 425 388 q 426 382 426 383 q 426 351 426 368 q 428 315 426 335 l 385 315 q 350 315 367 315 q 317 317 333 315 l 317 392 l 340 401 m 219 308 l 219 300 q 201 294 208 296 q 190 292 193 292 l 190 293 q 201 301 193 297 q 219 308 210 304 m 211 490 q 213 485 211 488 q 214 481 214 483 q 198 475 204 476 q 190 474 192 474 l 189 474 l 189 475 l 190 475 q 199 482 193 479 q 211 490 204 485 z "},"$":{"ha":517,"x_min":14,"x_max":503,"o":"m 50 17 q 57 7 51 13 q 67 0 63 1 l 100 83 l 150 83 l 150 67 q 158 63 150 67 q 179 53 167 58 q 206 44 192 49 q 233 36 221 39 q 231 2 232 19 q 228 -32 231 -15 q 219 -57 219 -36 l 219 -86 l 206 -86 l 308 -94 q 315 -90 314 -94 q 319 -85 317 -85 q 315 -63 314 -72 q 319 -49 317 -54 q 324 -40 322 -43 q 324 -36 326 -37 l 322 -36 q 317 -28 318 -39 q 314 -14 317 -18 q 314 8 314 -3 q 315 33 314 21 l 317 33 q 326 36 318 33 q 342 42 333 39 q 357 47 350 44 q 367 50 364 50 q 384 44 372 50 q 400 33 396 38 l 419 57 l 419 50 q 433 33 419 33 q 447 50 447 33 q 433 67 447 67 q 428 65 431 67 l 500 150 q 502 168 501 151 q 503 193 503 185 q 497 264 503 233 q 467 333 490 294 q 435 335 450 324 q 406 364 421 347 q 378 394 392 381 q 350 400 364 407 q 337 406 343 403 q 324 411 331 408 q 326 516 325 467 q 331 607 328 565 q 376 559 357 586 q 410 508 396 532 q 437 466 425 483 q 458 449 449 449 q 463 449 460 449 q 467 450 465 450 q 486 568 471 511 q 501 685 501 625 q 502 704 501 693 q 501 726 503 715 q 493 744 499 736 q 474 751 488 751 q 456 733 465 751 q 435 692 446 714 q 416 652 425 671 q 400 633 407 633 q 367 637 383 633 q 332 644 350 640 q 340 720 335 692 q 353 750 346 749 l 335 765 q 310 764 332 764 l 272 764 q 256 766 261 764 q 249 771 251 768 q 243 776 246 774 q 235 778 240 778 l 232 776 q 226 767 231 775 q 217 758 221 758 q 206 751 210 753 q 192 744 203 749 l 236 672 q 235 669 236 669 q 235 667 235 668 l 232 667 q 165 652 196 667 q 113 614 135 638 q 78 558 90 590 q 67 492 67 526 q 81 425 67 454 q 119 372 96 396 q 173 329 143 349 q 235 293 203 310 q 238 201 236 250 q 236 100 239 151 l 233 100 q 225 91 232 99 q 217 83 218 83 q 165 101 185 83 q 133 145 146 118 q 110 203 119 172 q 88 260 100 233 q 59 305 76 288 q 14 322 42 322 q 15 281 14 306 q 22 233 17 257 q 38 191 28 210 q 67 167 49 172 q 63 140 65 160 q 57 99 60 121 q 52 59 54 78 q 50 33 50 40 l 50 17 m 383 133 q 362 105 379 122 q 333 83 344 88 q 326 83 331 83 q 317 85 322 83 q 319 165 318 125 q 319 244 319 204 q 376 196 356 222 q 383 133 396 169 m 167 550 q 166 553 167 550 q 165 558 165 557 q 166 563 165 560 q 167 567 167 567 q 189 593 181 582 q 203 613 197 604 q 217 626 210 621 q 235 633 224 631 q 233 553 233 597 q 233 468 233 508 q 199 503 214 483 q 167 550 183 522 m 100 483 q 114 467 114 483 q 100 450 114 450 q 86 467 86 450 q 100 483 86 483 z "},"%":{"ha":940,"x_min":25,"x_max":922,"o":"m 311 225 q 318 183 311 194 q 324 193 322 178 q 326 225 326 208 l 311 225 m 601 600 q 595 610 601 604 q 585 617 589 615 q 563 622 578 618 q 532 647 547 625 l 551 657 q 567 664 557 657 q 581 667 576 671 l 868 667 l 885 650 q 867 633 881 642 q 838 617 853 625 q 808 605 822 610 q 785 599 793 600 q 608 409 679 489 q 490 274 536 329 q 421 186 444 219 q 388 134 397 153 q 379 108 378 115 q 385 100 381 101 l 433 44 q 408 41 417 44 q 385 33 400 38 q 369 26 382 33 q 351 17 356 18 l 343 17 q 294 22 325 17 q 233 33 264 26 q 174 44 201 39 q 135 50 147 50 l 118 67 q 186 96 153 68 q 250 160 219 124 q 306 233 281 196 q 349 290 331 269 l 601 600 m 25 411 l 25 422 l 25 456 l 25 467 q 58 590 25 547 q 164 660 90 632 q 179 665 168 661 q 192 668 190 668 q 273 654 235 668 q 340 615 311 640 q 385 554 368 590 q 401 472 401 518 q 389 412 401 438 q 356 367 376 386 q 308 331 335 347 q 256 301 282 315 l 251 301 q 215 307 244 301 q 152 320 185 313 q 92 336 119 328 q 64 349 65 344 q 48 381 53 363 q 25 411 43 400 m 125 508 q 126 473 125 499 q 133 419 128 447 q 147 370 138 392 q 174 349 157 349 l 256 349 q 268 364 260 349 q 286 398 276 379 q 303 435 296 417 q 310 458 310 453 q 309 472 310 463 q 308 494 308 482 q 306 516 307 506 q 306 531 306 526 l 306 476 q 299 525 303 497 q 285 579 294 553 q 258 624 275 606 q 210 642 240 642 q 168 628 185 642 q 142 593 151 614 q 129 549 133 572 q 125 508 125 526 m 310 357 l 310 349 l 319 357 l 310 357 m 90 375 q 83 365 83 375 q 90 357 83 357 q 97 365 97 357 q 90 375 97 375 m 100 411 q 92 403 92 411 q 100 393 92 393 q 107 403 107 393 q 100 411 107 411 m 90 476 q 86 468 88 479 q 85 443 85 457 q 86 419 85 429 q 90 411 88 408 q 93 424 93 415 q 93 443 93 433 q 93 464 93 454 q 90 476 93 474 m 108 431 q 104 430 106 432 q 103 425 103 428 q 108 420 103 419 q 114 425 114 421 q 113 428 114 428 q 108 431 111 428 m 328 485 l 328 439 q 337 462 333 450 q 340 485 340 474 l 328 485 m 108 467 q 103 461 103 469 q 108 458 103 457 q 114 461 114 458 q 108 467 114 464 m 53 540 q 49 535 49 542 q 53 531 49 529 q 58 535 58 532 q 53 540 58 539 m 300 614 q 293 606 293 614 q 300 594 293 594 q 308 606 308 594 q 300 614 308 614 m 292 624 l 292 614 l 300 624 l 292 624 m 544 128 l 544 139 l 544 172 l 544 183 q 577 306 544 264 q 683 376 610 349 q 699 381 689 378 q 711 385 710 385 q 792 371 754 385 q 860 332 831 357 q 906 271 889 307 q 922 189 922 235 q 909 128 922 154 q 875 83 896 103 q 828 48 854 64 q 775 18 801 32 l 772 18 q 735 24 764 18 q 673 37 706 29 q 613 53 640 44 q 583 65 586 61 q 567 98 572 79 q 544 128 563 117 m 644 225 q 646 190 644 215 q 652 136 647 164 q 667 87 657 108 q 693 65 676 65 l 775 65 q 788 81 779 65 q 806 115 797 96 q 823 151 815 133 q 831 175 831 169 q 830 189 831 179 q 828 210 829 199 q 826 233 828 222 q 825 247 825 243 l 825 193 q 818 242 822 214 q 805 296 814 269 q 778 340 796 322 q 731 358 760 358 q 689 344 706 358 q 663 310 672 331 q 649 266 653 289 q 644 225 644 243 m 831 74 l 831 65 l 840 74 l 831 74 m 610 92 q 603 82 603 92 q 610 74 603 74 q 617 82 617 74 q 610 92 617 92 m 619 128 q 611 119 611 128 q 619 110 611 110 q 626 119 626 110 q 619 128 626 128 m 610 193 q 606 185 607 196 q 606 160 606 174 q 606 135 606 146 q 610 128 607 125 q 613 141 613 132 q 614 160 614 150 q 613 181 614 171 q 610 193 613 190 m 628 147 q 624 142 624 149 q 628 137 624 136 q 633 142 633 138 q 628 147 633 143 m 849 201 l 849 156 q 860 201 860 178 l 849 201 m 628 183 q 624 178 624 185 q 628 174 624 174 q 633 178 633 175 q 628 183 633 182 m 574 257 q 568 251 568 258 q 573 247 568 246 q 578 251 578 249 q 574 257 578 254 m 819 331 q 814 322 814 331 q 819 311 814 311 q 828 322 828 311 q 819 331 828 331 m 811 340 l 811 331 l 819 340 l 811 340 z "},"&":{"ha":690,"x_min":7,"x_max":678,"o":"m 353 600 q 358 594 358 594 l 369 606 q 399 566 389 586 q 410 531 410 546 q 409 525 410 528 q 408 522 408 522 l 550 517 l 575 556 l 575 564 q 565 616 575 607 q 536 625 554 625 l 522 625 q 510 625 515 625 q 499 628 506 625 l 499 631 q 500 632 500 631 q 478 639 490 633 q 467 651 471 646 q 458 664 463 657 l 400 657 q 367 662 381 660 q 340 665 354 664 q 332 668 336 667 q 326 669 328 669 q 278 666 307 669 q 219 656 250 663 l 174 658 q 138 626 161 632 q 94 615 115 621 q 56 593 72 608 q 40 533 40 578 l 40 525 l 74 475 q 74 472 74 475 q 75 467 75 468 q 74 462 75 465 q 74 458 74 458 q 66 449 72 454 q 57 442 60 443 q 94 421 81 438 q 108 383 108 404 q 96 349 108 361 q 67 329 83 338 q 33 313 50 321 q 7 292 15 306 l 24 275 l 24 158 q 31 168 25 163 q 40 175 36 174 q 44 176 40 175 q 49 176 47 176 q 68 167 64 176 q 72 147 72 158 q 70 125 72 136 q 74 108 68 114 q 83 103 75 106 q 99 99 90 101 q 114 95 107 97 q 124 92 121 93 q 141 69 132 85 q 158 43 150 53 l 199 40 q 244 27 218 31 q 286 19 271 24 q 289 18 289 19 l 264 18 q 288 -10 276 -7 q 310 -8 300 -14 q 331 11 321 -1 q 349 32 340 24 q 388 25 364 29 q 434 22 411 21 q 474 31 457 24 q 490 58 490 39 q 486 67 490 64 l 485 67 q 497 84 492 75 q 508 97 501 93 q 517 101 510 99 q 533 105 525 103 q 549 109 542 107 q 558 114 556 111 q 562 129 564 118 q 560 151 560 140 q 564 172 560 163 q 583 182 568 182 q 588 181 585 182 q 592 181 592 181 q 601 172 596 178 q 608 164 607 167 l 553 301 l 569 318 q 590 306 572 313 q 626 301 607 300 q 662 315 646 301 q 678 361 678 328 l 678 374 q 655 367 667 369 q 631 360 643 364 q 619 355 624 357 q 614 353 615 353 l 442 381 q 314 356 379 364 q 247 369 271 363 q 211 384 222 376 q 199 399 200 392 q 200 414 197 407 q 206 428 203 421 q 207 442 208 435 l 257 442 q 247 451 254 444 q 231 466 239 458 q 217 481 224 474 q 207 492 210 489 q 206 495 207 492 q 206 500 206 499 q 213 526 206 510 q 230 558 219 542 q 252 589 240 575 q 274 608 264 603 q 274 605 274 608 q 276 594 275 601 q 286 611 278 600 l 353 600 m 256 82 q 246 83 251 82 q 239 85 240 83 l 169 175 q 171 191 168 176 q 178 225 174 206 q 187 265 182 244 q 194 297 192 285 q 201 301 199 301 q 207 306 208 301 q 228 312 203 314 q 286 307 254 310 q 290 306 286 306 q 306 303 292 303 q 348 298 329 300 q 369 300 367 296 q 383 315 381 304 q 399 317 392 317 q 414 317 407 317 q 425 310 426 317 q 428 307 422 307 q 436 301 435 307 q 448 271 439 292 q 466 226 457 250 q 479 179 475 201 q 478 144 483 157 q 482 140 482 142 q 475 131 482 133 q 465 135 468 128 q 456 135 460 133 l 393 90 q 386 88 392 89 q 376 86 381 86 q 370 83 372 86 q 360 78 368 81 q 331 76 351 76 q 268 82 311 76 q 267 78 267 81 q 256 82 256 82 m 425 597 q 439 581 439 597 q 425 564 439 564 q 411 581 411 564 q 425 597 411 597 m 517 232 q 521 231 518 232 q 525 231 524 231 l 492 181 l 492 197 q 500 215 496 201 q 508 231 504 228 q 512 231 508 231 q 517 232 515 232 m 276 594 q 271 580 274 586 q 264 568 268 574 q 281 572 275 571 q 288 575 288 574 q 286 581 289 576 q 276 594 283 585 m 647 369 l 631 369 l 628 369 q 592 372 621 369 q 530 376 563 374 q 470 381 497 379 q 442 381 443 382 q 474 377 446 381 q 536 369 503 374 q 598 363 569 365 q 631 360 626 360 q 640 365 635 363 q 647 369 644 367 m 303 28 q 302 32 303 31 q 301 36 301 33 l 311 36 q 319 36 315 36 q 328 39 325 36 q 310 24 324 28 q 303 28 308 25 m 474 149 q 475 147 475 147 q 478 144 476 147 q 465 135 475 135 l 465 140 q 474 149 465 150 m 257 567 l 261 567 l 256 567 l 257 567 z "},"'":{"ha":219,"x_min":17,"x_max":201,"o":"m 17 549 l 17 553 l 17 567 l 17 572 q 31 623 17 606 q 82 651 46 640 q 90 655 85 653 q 97 657 94 657 q 172 635 142 657 q 200 574 201 613 q 186 456 197 497 q 160 395 175 415 q 128 370 144 375 q 99 360 111 365 l 111 492 q 100 499 111 496 q 75 506 89 503 q 49 514 61 510 q 35 522 36 518 q 30 536 32 529 q 17 549 28 543 m 49 533 q 43 528 43 533 q 49 525 43 525 q 51 528 51 525 q 49 533 51 533 m 53 549 q 49 543 49 549 q 53 540 49 540 q 57 543 57 540 q 53 549 57 549 m 49 575 q 47 572 47 576 l 47 561 q 49 549 47 549 q 50 561 50 550 q 49 575 50 574 m 58 556 q 56 553 56 556 q 57 551 56 551 q 58 553 58 551 l 58 556 m 161 578 l 161 560 q 168 578 168 567 l 161 578 m 58 572 q 56 568 56 575 q 57 567 56 567 q 58 568 58 568 l 58 572 m 32 601 q 31 600 31 601 l 31 599 q 32 600 32 599 l 32 601 m 151 635 q 144 631 144 635 q 151 625 144 625 q 153 631 153 625 q 151 635 153 635 m 144 636 l 144 635 l 151 636 l 144 636 z "},"(":{"ha":539,"x_min":15,"x_max":525,"o":"m 283 43 q 257 38 278 43 q 224 32 236 32 q 219 33 221 32 q 217 33 218 33 q 145 78 181 43 q 81 160 110 114 q 33 256 51 207 q 15 342 15 304 q 31 400 15 367 q 67 466 47 433 q 102 526 86 499 q 118 564 118 553 l 117 567 q 181 618 146 589 q 255 674 217 647 q 332 718 293 700 q 407 736 371 736 l 465 736 q 494 750 481 739 q 511 761 507 761 q 515 751 515 761 l 515 749 q 510 735 515 744 q 494 716 506 726 q 466 698 483 706 q 425 690 449 690 q 339 654 375 690 q 279 565 303 618 q 244 454 256 513 q 233 351 233 396 q 233 278 233 306 q 246 226 233 251 q 291 168 258 200 q 390 82 324 136 q 418 53 408 67 q 435 28 428 39 q 451 12 443 18 q 474 6 458 6 q 515 -8 506 6 q 525 -39 525 -22 q 522 -64 525 -50 q 493 -68 506 -67 q 472 -69 481 -69 q 451 -64 457 -69 q 438 -51 444 -58 q 419 -39 432 -44 q 378 -33 407 -33 q 356 -28 371 -33 q 324 -15 340 -22 q 296 1 308 -7 q 283 17 283 10 l 283 43 m 250 83 l 250 85 q 242 92 250 92 q 233 85 233 92 q 242 75 233 75 q 250 83 247 75 m 200 167 q 181 144 185 161 q 178 117 178 128 l 219 117 q 217 133 219 122 q 210 150 215 138 q 200 167 204 163 m 82 307 q 81 289 82 300 q 81 267 81 278 q 84 230 81 247 q 100 200 88 213 l 100 450 q 85 396 88 422 q 82 342 82 369 l 82 307 m 67 533 l 83 533 l 67 517 l 67 533 m 150 567 q 136 550 136 567 q 150 533 136 533 q 164 550 164 533 q 150 567 164 567 z "},")":{"ha":539,"x_min":15,"x_max":525,"o":"m 257 43 q 283 38 263 43 q 317 32 304 32 q 321 33 319 32 q 324 33 322 33 q 394 78 358 43 q 460 160 431 114 q 507 256 489 207 q 525 342 525 304 q 509 400 525 367 q 474 466 493 433 q 438 526 454 499 q 422 564 422 553 l 424 567 q 359 618 394 589 q 285 674 324 647 q 208 718 247 700 q 133 736 168 736 l 75 736 q 46 750 58 739 q 28 761 33 761 q 25 751 25 761 l 25 749 q 30 735 25 744 q 46 716 35 726 q 74 698 57 706 q 115 690 92 690 q 201 654 165 690 q 261 565 238 618 q 296 454 285 513 q 307 351 307 396 q 307 278 307 306 q 294 226 307 251 q 249 168 282 200 q 150 82 217 136 q 122 53 132 67 q 105 28 113 39 q 89 12 97 18 q 67 6 81 6 q 25 -8 35 6 q 15 -39 15 -22 q 18 -64 15 -50 q 47 -68 35 -67 q 68 -69 60 -69 q 90 -64 83 -69 q 102 -51 96 -58 q 120 -39 108 -44 q 161 -33 132 -33 q 184 -28 168 -33 q 216 -15 200 -22 q 244 1 232 -7 q 257 17 257 10 l 257 43 m 290 83 l 290 85 q 299 92 290 92 q 307 85 307 92 q 299 75 307 75 q 290 83 292 75 m 340 167 q 358 144 356 161 q 361 117 361 128 l 319 117 q 321 125 319 121 q 324 133 322 129 q 331 150 325 138 q 340 167 336 163 m 458 307 q 459 289 458 300 q 460 267 460 278 q 456 230 460 247 q 440 200 453 213 l 440 450 q 456 396 453 422 q 458 342 458 369 l 458 307 m 474 533 l 457 533 l 474 517 l 474 533 m 390 567 q 403 550 403 567 q 390 533 403 533 q 376 550 376 533 q 390 567 376 567 z "},"*":{"ha":483,"x_min":11,"x_max":475,"o":"m 182 422 l 11 422 q 27 431 11 428 q 64 439 43 435 q 106 450 85 443 q 136 469 126 457 q 150 486 140 475 q 169 510 160 497 q 185 538 178 524 q 192 564 192 551 q 176 619 192 592 q 144 674 161 647 l 142 674 l 136 674 q 126 669 133 672 q 118 664 119 667 q 123 672 119 667 q 126 681 126 678 q 113 695 126 690 q 85 703 100 700 q 56 710 69 706 q 43 724 43 714 q 52 736 43 731 q 72 745 61 742 q 94 751 83 749 q 108 753 104 753 q 120 749 110 753 q 131 739 131 746 q 72 728 96 739 q 168 722 119 724 q 265 722 217 719 q 255 713 261 715 q 242 710 249 711 q 231 706 236 708 q 226 697 226 704 q 233 683 226 694 q 247 660 239 672 q 262 637 254 647 q 274 624 269 626 q 299 647 285 631 q 319 674 313 663 q 328 689 326 686 q 327 701 331 693 q 324 708 324 708 l 292 708 l 292 722 q 310 725 292 722 q 339 728 328 728 l 344 728 q 360 729 351 728 q 375 731 368 731 l 389 731 l 399 731 q 413 729 406 731 q 428 728 421 728 l 439 728 q 449 725 442 728 q 457 722 456 722 l 458 717 q 458 715 458 715 q 457 711 457 714 q 415 691 435 700 q 376 672 394 682 q 342 648 358 661 q 310 615 325 635 l 292 599 l 292 594 l 292 592 l 319 567 q 324 557 321 564 q 333 542 328 550 q 342 526 338 533 q 347 518 346 519 q 367 500 356 507 q 390 485 379 493 q 409 467 401 478 q 417 440 417 457 l 397 440 q 365 435 381 440 q 347 411 350 429 q 333 423 344 422 q 317 424 321 424 q 283 417 297 424 q 250 411 268 411 q 268 437 250 431 q 301 447 286 443 q 290 463 299 456 q 274 478 282 471 q 280 481 276 478 q 283 486 283 483 q 271 511 283 496 q 247 526 258 526 q 226 519 232 526 q 210 501 219 513 q 201 490 207 499 q 187 470 194 481 q 173 450 179 460 q 164 436 167 440 l 211 436 q 210 433 211 435 q 210 428 210 431 q 196 417 207 425 q 182 406 185 408 l 182 422 m 431 436 l 439 436 l 449 436 q 462 433 451 436 q 475 428 472 431 q 472 424 475 426 q 467 422 468 422 q 448 419 461 419 q 431 418 435 418 l 431 436 m 375 436 q 382 428 382 436 q 375 422 382 422 q 367 428 367 422 q 375 436 367 436 m 226 494 q 227 499 226 497 q 228 501 228 500 q 233 494 229 500 q 242 483 238 489 q 250 470 246 476 q 256 461 254 464 q 257 453 257 460 l 247 453 q 238 465 244 453 q 228 486 231 478 q 227 489 228 486 q 226 494 226 492 m 357 469 q 349 461 349 469 q 357 453 349 453 q 364 461 364 453 q 357 469 364 469 m 265 494 q 272 486 272 494 q 265 478 272 478 q 257 486 257 478 q 265 494 257 494 m 192 518 q 186 514 189 517 q 182 510 183 511 l 182 507 l 182 501 q 188 506 185 503 q 192 510 190 508 l 192 514 l 192 518 m 236 550 q 231 543 231 550 q 236 535 231 535 q 244 543 244 535 q 236 550 244 550 m 218 567 q 211 560 211 567 q 218 550 211 550 q 226 560 226 550 q 218 567 226 567 m 210 583 l 210 575 l 218 575 l 218 583 l 210 583 m 136 664 q 143 656 143 664 q 136 649 143 649 q 128 656 128 649 q 136 664 128 664 m 210 706 q 201 697 201 706 q 210 689 201 689 q 217 697 217 689 q 210 706 217 706 m 200 711 q 193 706 193 711 q 200 697 193 697 q 208 706 208 697 q 200 711 208 711 m 467 736 q 461 733 464 733 q 456 737 458 733 q 461 740 454 740 q 467 736 467 740 z "},"+":{"ha":542,"x_min":19,"x_max":500,"o":"m 317 142 l 331 247 q 378 238 353 243 q 435 228 403 233 q 448 219 439 219 q 472 218 457 218 l 490 218 l 500 236 l 500 407 q 495 415 500 413 q 490 419 490 417 q 456 392 461 404 q 450 375 451 381 q 442 369 451 371 q 426 365 432 368 l 333 376 l 333 392 q 341 485 333 443 q 378 533 349 528 l 357 549 q 326 547 351 547 l 282 547 q 264 549 269 547 q 255 554 258 551 q 249 559 251 557 q 239 561 246 561 l 233 560 q 226 550 232 558 q 217 542 221 542 q 205 534 208 536 q 186 528 201 532 l 240 457 l 217 453 q 219 433 219 450 q 219 413 219 425 q 217 382 219 401 l 176 382 q 127 383 151 382 q 83 389 103 385 q 50 402 63 393 q 35 426 38 411 l 19 406 q 22 375 22 400 l 22 331 q 23 281 22 306 q 24 243 24 257 l 25 239 q 35 231 26 236 q 43 222 43 225 q 51 209 49 213 q 57 192 53 206 l 128 244 l 115 264 q 135 268 115 268 q 201 264 151 268 q 192 204 196 236 q 181 133 188 172 q 172 124 174 131 q 169 108 169 117 l 169 78 l 189 68 l 311 60 q 319 65 317 60 q 325 69 321 69 q 319 92 318 83 q 323 107 319 101 q 328 115 326 113 q 328 118 331 118 l 326 118 q 322 126 324 117 q 317 142 321 136 m 215 367 q 214 353 215 358 q 200 347 206 350 q 192 344 194 344 l 190 344 l 190 347 l 192 347 q 202 356 196 351 q 215 367 208 360 z "},",":{"ha":219,"x_min":15,"x_max":200,"o":"m 15 47 q 27 34 25 42 q 33 19 29 26 q 49 13 36 17 q 74 6 61 10 q 99 -3 88 1 q 110 -10 110 -7 l 97 -142 q 126 -131 110 -136 q 158 -106 143 -125 q 185 -45 174 -86 q 199 72 196 -4 q 169 133 200 111 q 94 156 139 156 q 88 153 93 156 q 81 150 83 151 q 30 122 44 139 q 15 69 15 104 l 15 65 l 15 51 l 15 47 m 47 32 q 50 26 50 32 q 47 24 50 24 q 42 26 42 24 q 47 32 42 32 m 51 47 q 56 42 56 47 q 51 39 56 39 q 47 42 47 39 q 51 47 47 47 m 47 74 q 49 60 49 72 q 47 47 49 49 q 44 60 44 47 l 44 69 q 47 74 44 75 m 57 53 l 57 51 q 56 50 57 50 q 53 51 53 50 q 57 53 53 53 m 160 76 l 167 76 q 160 58 167 65 l 160 76 m 57 69 l 57 67 q 55 66 57 67 q 53 67 53 65 q 54 72 53 71 q 57 69 56 72 m 31 100 l 31 99 q 28 97 31 97 l 28 99 q 31 100 28 100 m 150 133 q 151 128 151 133 q 150 124 151 124 q 143 128 143 124 q 150 133 143 133 m 143 135 l 150 135 l 143 133 l 143 135 z "},"-":{"ha":542,"x_min":19,"x_max":500,"o":"m 426 365 q 442 369 432 368 q 450 375 451 371 q 456 392 451 381 q 490 419 461 404 q 495 415 490 417 q 500 407 500 413 l 500 406 l 500 236 l 490 218 l 472 218 q 448 219 457 218 q 435 228 439 219 q 308 249 360 242 q 222 261 257 257 q 167 267 188 265 q 135 268 146 268 q 115 264 115 268 l 128 244 l 57 192 q 51 209 53 206 q 43 222 49 213 q 35 231 43 225 q 25 239 26 236 l 24 243 q 23 281 24 257 q 22 331 22 306 l 22 375 q 19 406 22 400 l 35 426 q 50 402 38 411 q 83 389 63 393 q 127 383 103 385 q 176 382 151 382 l 265 383 l 281 383 q 292 382 289 383 l 426 365 m 226 374 q 192 347 201 360 l 190 347 l 190 344 l 192 344 q 231 364 200 344 l 226 374 z "},".":{"ha":219,"x_min":15,"x_max":199,"o":"m 15 47 q 27 34 25 42 q 33 19 29 26 q 49 15 35 18 q 78 8 63 11 q 108 3 94 6 q 125 0 122 0 l 126 0 q 175 27 151 11 q 199 72 199 43 q 169 133 199 111 q 94 156 139 156 q 88 153 93 156 q 81 150 83 151 q 30 122 44 139 q 15 69 15 104 l 15 65 l 15 51 l 15 47 m 151 24 l 158 24 l 151 19 l 151 24 m 47 32 q 50 26 50 32 q 47 24 50 24 q 42 26 42 24 q 47 32 42 32 m 51 47 q 56 42 56 47 q 51 39 56 39 q 47 42 47 39 q 51 47 47 47 m 47 74 q 49 60 49 72 q 47 47 49 49 q 44 60 44 47 l 44 69 q 47 74 44 75 m 57 53 l 57 51 q 56 50 57 50 q 53 51 53 50 q 57 53 53 53 m 160 76 l 167 76 q 160 58 167 65 l 160 76 m 57 69 l 57 67 q 55 66 57 67 q 53 67 53 65 q 54 72 53 71 q 57 69 56 72 m 31 100 l 31 99 q 28 97 31 97 l 28 99 q 31 100 28 100 m 150 133 q 151 128 151 133 q 150 124 151 124 q 143 128 143 124 q 150 133 143 133 m 143 135 l 150 135 l 143 133 l 143 135 z "},"/":{"ha":736,"x_min":-17,"x_max":750,"o":"m 467 600 l 214 290 q 171 233 196 269 q 115 160 146 196 q 51 96 85 124 q -17 67 18 68 l 0 50 q 40 44 13 50 q 98 33 67 39 q 160 22 129 26 q 208 17 190 17 l 217 17 q 233 26 221 18 q 250 33 246 33 q 274 41 265 38 q 299 44 282 44 l 250 100 q 244 108 246 101 q 253 134 243 115 q 286 186 263 153 q 356 274 310 219 q 474 409 401 329 q 650 599 546 489 q 672 605 657 600 q 702 617 686 610 q 731 633 718 625 q 750 650 744 642 l 733 667 l 444 667 q 432 664 442 671 q 417 657 422 657 l 397 647 q 428 622 413 625 q 450 617 443 618 q 460 610 454 615 q 467 600 467 604 m 176 225 l 192 225 q 190 193 192 208 q 183 183 188 178 q 178 200 179 189 q 176 225 176 211 z "},":":{"ha":219,"x_min":14,"x_max":199,"o":"m 15 47 q 27 34 25 42 q 33 19 29 26 q 49 15 35 18 q 78 8 63 11 q 108 3 94 6 q 125 0 122 0 l 126 0 q 175 27 151 11 q 199 72 199 43 q 169 133 199 111 q 94 156 139 156 q 88 153 93 156 q 81 150 83 151 q 30 122 44 139 q 15 69 15 104 l 15 65 l 15 51 l 15 47 m 151 24 l 158 24 l 151 19 l 151 24 m 47 32 q 50 26 50 32 q 47 24 50 24 q 42 26 42 24 q 47 32 42 32 m 51 47 q 56 42 56 47 q 51 39 56 39 q 47 42 47 39 q 51 47 47 47 m 47 74 q 49 60 49 72 q 47 47 49 49 q 44 60 44 47 l 44 69 q 47 74 44 75 m 57 53 l 57 51 q 56 50 57 50 q 53 51 53 50 q 57 53 53 53 m 160 76 l 167 76 q 160 58 167 65 l 160 76 m 57 69 l 57 67 q 55 66 57 67 q 53 67 53 65 q 54 72 53 71 q 57 69 56 72 m 31 100 l 31 99 q 28 97 31 97 l 28 99 q 31 100 28 100 m 150 133 q 151 128 151 133 q 150 124 151 124 q 143 128 143 124 q 150 133 143 133 m 143 135 l 150 135 l 143 133 l 143 135 m 14 406 q 26 392 24 400 q 32 378 28 385 q 47 373 33 376 q 76 367 60 369 q 106 361 92 364 q 124 358 121 358 l 125 358 q 174 385 150 369 q 197 431 197 401 q 167 492 197 469 q 93 514 138 514 q 87 512 92 514 q 78 508 82 510 q 28 480 43 497 q 14 428 14 463 l 14 424 l 14 410 l 14 406 m 150 382 l 157 382 l 150 378 l 150 382 m 44 390 q 49 385 49 390 q 44 382 49 382 q 40 385 40 382 q 44 390 40 390 m 50 406 q 53 400 53 406 q 50 397 53 397 q 44 400 44 397 q 50 406 44 406 m 44 432 q 47 418 47 431 q 44 406 47 407 q 43 418 43 406 l 43 428 q 44 432 43 433 m 56 411 l 56 410 q 53 408 56 408 q 51 410 51 408 q 56 411 51 411 m 158 435 l 165 435 q 158 417 165 424 l 158 435 m 56 428 l 56 425 q 53 424 56 425 q 51 425 51 424 q 56 428 51 432 m 28 458 l 28 457 q 26 456 28 456 l 26 457 q 28 458 26 458 m 149 492 q 150 486 150 492 q 149 482 150 482 q 142 486 142 482 q 149 492 142 492 m 142 493 l 149 493 l 142 492 l 142 493 z "},";":{"ha":219,"x_min":14,"x_max":200,"o":"m 14 406 l 14 410 l 14 424 l 14 428 q 28 480 14 463 q 78 508 43 497 q 87 512 82 510 q 93 514 92 514 q 167 492 138 514 q 197 431 197 469 q 174 385 197 401 q 125 358 150 369 l 124 358 q 106 361 121 358 q 76 367 92 364 q 47 373 60 369 q 32 378 33 376 q 26 392 28 385 q 14 406 24 400 m 150 382 l 150 378 l 157 382 l 150 382 m 44 390 q 40 385 40 390 q 44 382 40 382 q 49 385 49 382 q 44 390 49 390 m 50 406 q 44 400 44 406 q 50 397 44 397 q 53 400 53 397 q 50 406 53 406 m 44 432 q 43 428 43 433 l 43 418 q 44 406 43 406 q 47 418 47 407 q 44 432 47 431 m 56 411 q 51 410 51 411 q 53 408 51 408 q 56 410 56 408 l 56 411 m 158 435 l 158 417 q 165 435 165 424 l 158 435 m 56 428 q 51 425 51 432 q 53 424 51 424 q 56 425 56 425 l 56 428 m 28 458 q 26 457 26 458 l 26 456 q 28 457 28 456 l 28 458 m 149 492 q 142 486 142 492 q 149 482 142 482 q 150 486 150 482 q 149 492 150 492 m 142 493 l 142 492 l 149 493 l 142 493 m 15 47 l 15 51 l 15 65 l 15 69 q 30 122 15 104 q 81 150 44 139 q 88 153 83 151 q 94 156 93 156 q 169 133 139 156 q 199 72 200 111 q 185 -45 196 -4 q 158 -106 174 -86 q 126 -131 143 -126 q 97 -142 110 -136 l 110 -10 q 99 -2 110 -6 q 74 5 88 1 q 47 12 60 8 q 33 19 35 15 q 27 34 29 26 q 15 47 25 42 m 47 32 q 42 26 42 32 q 47 24 42 24 q 50 26 50 24 q 47 32 50 32 m 51 47 q 47 42 47 47 q 51 39 47 39 q 56 42 56 39 q 51 47 56 47 m 47 74 q 44 69 44 75 l 44 60 q 47 47 44 47 q 49 60 49 49 q 47 74 49 72 m 57 53 q 53 51 53 53 q 56 50 53 50 q 57 51 57 50 l 57 53 m 160 76 l 160 58 q 167 76 167 65 l 160 76 m 57 69 q 54 72 56 72 q 53 67 53 71 q 55 66 53 65 q 57 67 57 67 l 57 69 m 31 100 q 28 99 28 100 l 28 97 q 31 99 31 97 l 31 100 m 150 133 q 143 128 143 133 q 150 124 143 124 q 151 128 151 124 q 150 133 151 133 m 143 135 l 143 133 l 150 135 l 143 135 z "},"<":{"ha":536,"x_min":14,"x_max":519,"o":"m 14 375 l 169 167 q 165 156 174 163 q 153 150 157 150 q 183 119 169 136 q 203 83 196 103 q 172 76 189 81 q 142 65 156 72 q 119 45 128 57 q 110 15 110 33 q 169 25 142 15 q 231 35 196 35 l 260 35 q 286 17 283 35 q 320 61 292 50 q 376 72 349 72 l 414 72 q 399 128 414 107 q 365 165 385 149 q 323 195 344 181 q 286 233 301 210 q 277 249 285 235 q 261 282 269 264 q 245 315 253 300 q 236 333 238 331 l 186 383 q 185 387 186 383 q 185 392 185 390 q 185 397 185 393 q 186 400 186 400 l 219 433 q 276 501 246 474 q 339 549 306 528 q 408 589 372 569 q 486 633 444 608 q 488 638 486 635 q 489 642 489 640 q 488 647 489 643 q 486 650 486 650 q 470 660 483 654 q 453 667 457 667 l 435 667 q 408 667 421 667 q 381 668 394 668 l 361 668 l 339 668 q 308 667 324 668 q 282 667 293 667 l 269 667 q 245 665 260 667 q 217 660 231 663 q 195 654 204 657 q 186 650 186 651 l 186 625 l 243 625 q 251 610 243 625 q 253 583 258 594 q 247 571 250 578 q 236 556 243 564 q 215 532 232 547 q 176 498 199 517 q 128 459 154 479 q 79 422 103 439 q 38 392 56 404 q 14 375 19 379 m 436 67 l 436 26 q 450 27 440 26 q 470 29 460 28 q 490 32 481 31 q 503 33 499 33 q 513 40 507 33 q 519 50 519 46 q 510 54 517 51 q 496 60 504 57 q 480 65 488 63 q 469 67 472 67 l 453 67 l 436 67 m 336 67 q 324 50 324 67 q 336 33 324 33 q 350 50 350 33 q 336 67 350 67 m 68 183 q 69 174 68 179 q 69 167 69 168 q 76 148 71 160 q 88 126 82 136 q 98 108 93 115 q 103 100 103 100 l 124 100 q 119 117 124 106 l 69 200 q 69 193 69 199 q 68 183 68 188 m 303 133 q 317 117 317 133 q 303 100 317 100 q 290 117 290 100 q 303 133 290 133 m 136 183 q 124 167 124 183 q 136 150 124 150 q 150 167 150 150 q 136 183 150 183 m 503 683 q 494 692 507 692 q 487 683 483 692 q 494 675 490 675 q 503 683 500 675 z "},"=":{"ha":542,"x_min":25,"x_max":510,"o":"m 435 507 q 450 511 440 510 q 458 517 460 513 q 463 532 460 522 q 494 557 467 542 q 500 551 494 553 q 506 543 506 549 l 506 542 l 508 378 l 485 372 l 467 372 q 443 372 453 372 q 431 382 433 372 q 306 401 356 394 q 224 409 256 407 q 174 410 192 411 q 143 410 156 410 q 124 406 124 410 l 136 386 l 51 344 q 46 363 49 360 q 39 375 43 367 q 36 378 39 378 q 33 381 35 378 l 32 385 q 31 421 32 397 q 29 469 31 444 q 27 514 28 493 q 25 542 26 535 l 40 564 q 56 540 42 549 q 90 528 69 532 q 135 524 110 525 q 185 524 160 524 l 274 525 l 289 525 q 300 524 297 525 l 435 507 m 235 515 q 200 489 210 501 l 199 489 l 199 486 l 200 486 q 239 506 208 486 l 235 515 m 436 249 q 451 253 442 251 q 460 258 461 254 q 465 274 461 264 q 497 299 468 283 q 502 292 497 294 q 507 285 507 290 l 507 283 l 510 119 l 486 114 l 468 114 q 444 114 454 114 q 432 124 435 114 q 307 142 357 136 q 225 151 257 149 q 175 152 193 153 q 144 151 157 151 q 125 147 125 151 l 139 128 l 53 86 q 48 105 50 101 q 40 117 46 108 q 39 119 40 119 q 35 122 36 119 l 33 126 q 33 163 33 139 q 31 210 32 186 q 29 256 31 235 q 26 283 28 276 l 42 306 q 57 282 43 290 q 92 270 71 274 q 138 266 113 267 q 186 265 163 265 l 275 267 l 290 267 q 301 265 299 267 l 436 249 m 236 257 q 201 231 211 243 l 200 231 l 200 228 l 201 228 q 240 247 213 228 l 236 257 z "},">":{"ha":536,"x_min":14,"x_max":519,"o":"m 519 375 l 364 167 q 368 156 360 163 q 381 150 376 150 q 351 119 364 136 q 331 83 338 103 q 361 76 344 81 q 392 65 378 72 q 415 45 406 57 q 424 15 424 33 q 365 25 392 15 q 303 35 338 35 l 272 35 q 247 17 250 35 q 213 61 242 50 q 157 72 185 72 l 119 72 q 134 128 119 107 q 169 165 149 149 q 210 195 189 181 q 247 233 232 210 q 256 250 249 235 q 272 283 264 265 q 288 315 281 300 q 297 333 296 331 l 347 383 q 348 387 347 383 q 349 392 349 390 q 348 397 349 393 q 347 400 347 400 l 314 433 q 257 501 286 474 q 194 549 228 528 q 125 589 161 569 q 47 633 89 608 q 46 638 47 635 q 44 642 44 640 q 46 647 44 643 q 47 650 47 650 q 63 660 50 654 q 81 667 76 667 l 99 667 q 126 667 113 667 q 153 668 139 668 l 172 668 l 194 668 q 225 667 210 668 q 251 667 240 667 l 264 667 q 288 665 274 667 q 316 660 303 663 q 338 654 329 657 q 347 650 347 651 l 347 625 l 290 625 q 283 610 290 625 q 281 583 275 594 q 287 571 283 578 q 297 556 290 564 q 318 532 301 547 q 357 498 335 517 q 405 459 379 479 q 454 422 431 439 q 496 392 478 404 q 519 375 514 379 m 97 67 l 97 26 q 83 27 93 26 q 63 29 74 28 q 44 32 53 31 q 31 33 35 33 q 20 40 26 33 q 14 50 14 46 q 22 54 15 51 q 38 60 29 57 q 53 65 46 63 q 64 67 61 67 l 81 67 l 97 67 m 197 67 q 210 50 210 67 q 197 33 210 33 q 183 50 183 33 q 197 67 183 67 m 465 183 q 465 174 465 179 q 464 167 464 168 q 457 148 463 160 q 446 126 451 136 q 435 108 440 115 q 431 100 431 100 l 410 100 q 414 117 410 106 l 464 200 q 465 193 464 199 q 465 183 465 188 m 231 133 q 217 117 217 133 q 231 100 217 100 q 243 117 243 100 q 231 133 243 133 m 397 183 q 410 167 410 183 q 397 150 410 150 q 383 167 383 150 q 397 183 383 183 m 31 683 q 39 692 26 692 q 47 683 50 692 q 39 675 43 675 q 31 683 32 675 z "},"?":{"ha":461,"x_min":19,"x_max":444,"o":"m 411 483 q 425 467 425 483 q 411 450 425 450 q 399 467 399 450 q 411 483 399 483 m 44 215 l 144 215 q 140 240 140 229 q 163 286 140 269 q 219 315 185 303 q 292 338 253 326 q 366 367 332 349 q 422 414 400 385 q 444 492 444 443 q 433 558 444 526 q 399 614 421 590 q 347 652 376 638 q 281 667 317 667 q 197 666 236 667 q 118 665 158 665 q 101 677 111 665 q 80 701 90 689 q 61 722 69 714 q 49 724 53 731 l 19 657 q 24 606 19 626 q 33 569 28 586 q 44 531 39 551 q 51 482 50 511 q 56 481 53 482 q 60 481 58 481 q 89 505 74 481 q 126 558 104 529 q 181 610 149 586 q 264 635 214 635 q 288 631 279 635 q 305 617 297 626 q 321 596 313 608 q 344 567 329 583 q 346 563 344 567 q 347 558 347 560 q 346 553 347 557 q 344 550 344 550 q 309 499 326 519 q 271 461 292 478 q 223 431 250 444 q 161 400 196 417 q 137 397 147 407 q 116 373 126 386 q 94 351 106 360 q 67 351 83 342 q 49 322 54 332 q 42 306 44 313 q 41 289 40 299 q 42 258 42 279 q 42 233 42 250 q 44 215 43 217 m 40 42 q 50 30 49 36 q 56 17 51 24 q 67 13 57 15 q 91 7 78 10 q 116 2 104 4 q 131 0 128 0 l 132 0 q 171 24 151 11 q 190 64 190 36 q 165 116 190 97 q 106 135 139 135 q 99 133 103 135 q 92 131 96 132 q 40 61 40 113 l 40 57 l 40 44 l 40 42 m 150 19 l 157 19 l 150 17 l 150 19 m 67 26 q 68 24 68 26 q 67 21 68 22 q 67 19 67 19 q 61 24 61 19 q 67 26 61 26 m 69 42 q 71 41 69 42 q 72 36 72 40 q 71 34 72 35 q 69 33 69 33 q 67 36 67 33 q 69 42 67 42 m 67 64 l 67 51 l 67 42 q 65 51 65 42 q 67 64 65 65 m 74 44 q 72 43 74 43 q 69 44 69 43 l 74 44 m 158 67 l 164 67 q 163 59 164 63 q 158 50 161 56 l 158 67 m 74 61 l 74 58 q 72 58 74 58 q 69 58 69 57 q 71 63 69 63 q 74 61 72 64 m 51 86 l 51 85 q 50 83 51 83 l 50 85 q 51 86 50 86 m 150 117 l 150 111 l 150 107 q 143 111 143 107 q 150 117 143 117 m 143 118 l 150 118 l 143 117 l 143 118 z "},"@":{"ha":742,"x_min":15,"x_max":733,"o":"m 503 168 q 507 165 503 168 q 514 160 511 161 l 518 160 q 544 169 535 160 q 568 178 554 178 q 581 168 581 178 q 594 158 582 158 q 613 164 607 158 q 636 169 619 169 q 667 165 653 169 q 697 160 681 160 l 706 160 q 719 163 708 160 q 733 168 731 167 l 697 197 l 697 206 q 672 250 682 231 q 663 302 663 269 q 678 392 664 335 q 728 549 693 449 q 729 568 729 549 q 721 616 729 588 q 692 676 713 644 q 628 732 671 707 q 553 741 589 732 q 478 750 518 750 q 392 744 442 750 q 292 728 343 739 q 195 702 242 718 q 119 664 149 686 q 116 638 122 658 q 98 586 110 617 q 72 520 86 556 q 45 451 58 485 q 24 388 32 417 q 15 342 15 358 q 23 280 15 317 q 44 201 31 243 q 75 115 57 158 q 114 36 93 72 q 158 -25 135 0 q 206 -57 182 -50 q 218 -57 208 -58 q 239 -53 228 -56 q 260 -49 250 -51 q 272 -47 269 -47 l 272 -74 q 286 -84 272 -81 q 319 -89 300 -87 q 356 -91 338 -90 q 381 -92 374 -92 q 465 -90 417 -92 q 560 -81 514 -89 q 644 -55 607 -72 q 697 -6 682 -37 q 710 35 713 28 q 688 34 707 42 q 638 10 669 26 q 566 -17 607 -6 q 477 -30 525 -29 q 378 -8 429 -31 q 284 28 321 -8 q 226 118 247 65 q 197 230 206 171 q 189 335 189 289 q 220 483 189 413 q 298 604 251 553 q 399 682 344 656 q 503 699 454 708 q 577 660 550 688 q 617 598 604 633 q 630 522 629 563 q 625 442 631 481 q 610 373 619 404 q 594 325 601 342 l 606 343 l 606 349 q 598 360 606 354 q 582 375 590 367 q 566 395 574 383 q 558 425 558 407 q 563 444 558 440 q 568 461 568 449 l 568 472 q 532 484 540 474 q 521 509 524 494 q 513 540 518 524 q 485 572 507 557 q 482 573 485 572 q 476 574 479 574 q 471 573 474 574 q 467 572 468 572 q 472 563 469 569 q 476 553 475 556 l 476 550 q 472 519 476 531 q 460 498 467 507 q 449 478 454 489 q 440 453 443 468 q 444 443 440 450 q 449 435 449 436 q 440 420 449 432 q 431 407 432 408 q 422 386 426 400 q 410 357 417 372 q 398 329 404 342 q 385 315 392 317 q 372 314 381 315 q 352 311 363 313 q 333 308 342 310 q 319 307 324 307 q 331 289 326 300 q 343 278 336 278 l 349 278 l 367 289 l 367 286 l 368 286 q 353 230 368 242 q 318 216 339 218 q 275 212 297 214 q 239 186 253 210 l 257 186 q 274 192 271 186 q 289 197 278 197 q 304 189 296 197 q 319 178 313 181 l 331 178 l 411 186 l 419 186 q 434 188 428 186 q 440 200 440 189 q 433 213 440 210 q 417 217 425 215 q 401 223 408 219 q 393 236 393 226 l 393 242 q 403 265 396 249 q 411 289 410 282 q 426 285 415 288 q 448 282 436 283 q 470 279 460 281 q 485 278 481 278 q 499 276 488 278 q 521 269 510 274 q 539 258 532 265 q 540 242 546 251 l 503 168 m 69 217 q 72 283 69 236 q 78 383 74 331 q 88 483 82 436 q 103 547 94 529 l 89 110 q 74 134 78 119 q 69 163 69 149 q 69 192 68 178 q 69 217 69 207 m 467 399 q 497 363 486 388 q 508 315 508 338 l 422 315 q 437 361 426 338 q 467 399 447 385 m 189 76 q 197 60 192 74 q 206 43 203 47 q 208 26 208 35 l 167 26 q 170 54 167 38 q 189 76 174 71 m 694 632 q 708 615 708 632 q 694 599 708 599 q 682 615 682 599 q 694 632 682 632 m 153 664 q 167 647 167 664 q 153 631 167 631 q 140 647 140 631 q 153 664 140 664 m 650 233 q 658 224 658 233 l 660 224 q 667 215 667 224 q 660 206 667 206 q 653 215 653 206 l 650 215 q 643 224 643 215 q 650 233 643 233 m 532 526 q 524 517 524 526 q 532 508 524 508 q 539 517 539 508 q 532 526 539 526 m 632 260 q 640 251 640 260 q 632 242 640 242 q 625 251 625 242 q 632 260 625 260 m 239 -7 q 231 -15 233 -15 q 222 -7 224 -15 q 231 1 219 1 q 239 -7 240 1 m 69 614 l 86 631 l 69 631 l 69 614 m 668 142 l 642 132 l 668 132 l 668 142 m 614 269 l 614 278 q 619 275 617 278 q 624 269 622 272 l 624 260 q 618 264 621 261 q 614 269 615 267 m 642 242 q 647 236 647 242 q 642 233 647 233 q 636 236 636 232 q 642 242 636 244 m 357 215 q 353 210 357 210 q 348 215 350 210 q 353 219 346 219 q 357 215 361 219 m 319 278 q 315 283 324 283 q 311 279 310 283 q 317 275 313 275 q 319 278 319 275 m 558 206 l 568 197 l 558 197 l 558 206 m 658 224 q 653 215 658 215 q 658 224 653 224 z "},"A":{"ha":976,"x_min":-154,"x_max":1017,"o":"m 864 -76 l 864 -97 l 800 -97 l 864 -76 m 475 -11 l 561 163 q 558 201 574 185 q 515 227 542 217 q 463 243 489 238 q 431 249 438 249 q 397 251 422 249 q 344 258 372 254 q 292 265 317 261 q 258 271 267 268 q 249 249 256 264 q 235 217 242 233 q 222 185 228 200 q 214 163 215 169 l 214 151 q 231 119 214 128 q 269 106 249 111 q 308 94 290 101 q 325 65 325 86 q 310 36 325 40 q 278 32 296 32 l 258 32 l 63 11 l 50 11 l 42 11 q 24 21 33 14 q 3 35 14 28 q -17 49 -7 43 q -35 56 -28 56 q -54 51 -47 56 q -68 43 -61 47 q -84 35 -75 39 q -111 31 -93 31 q -133 31 -117 31 q -154 32 -150 32 q -99 82 -131 69 q -33 97 -67 94 q 35 101 1 100 q 94 115 68 101 q 137 163 121 129 q 153 267 153 197 q 151 269 151 267 q 150 271 151 271 l 106 249 q 101 248 106 249 q 93 247 97 247 q 77 255 83 247 q 65 274 71 263 q 54 296 60 285 q 42 314 49 307 q 72 317 50 314 q 118 323 94 319 q 163 330 142 326 q 193 336 185 333 q 226 369 210 340 q 256 433 242 397 q 281 503 269 468 q 301 553 293 538 q 310 563 303 554 q 324 583 317 572 q 338 605 332 594 q 344 618 344 615 q 333 640 344 624 q 322 661 322 656 q 342 721 328 697 q 372 767 357 744 q 398 817 386 789 q 410 889 410 844 l 410 899 q 400 921 408 906 q 388 943 392 936 q 397 944 390 943 q 410 946 404 946 q 422 944 414 946 q 431 943 429 943 q 481 894 465 919 q 504 843 497 868 q 514 794 511 818 q 527 752 517 771 q 560 721 538 733 q 626 704 582 708 q 627 696 626 703 q 628 682 628 689 q 624 658 628 667 q 615 640 619 649 q 607 622 611 632 q 603 596 603 613 q 620 526 603 554 q 658 478 638 499 q 695 442 678 457 q 713 411 713 426 l 713 401 l 692 357 l 692 347 q 716 307 692 325 q 767 272 740 289 q 813 240 794 256 q 821 206 832 224 l 929 76 l 929 54 l 1017 -11 q 1003 -17 1013 -14 q 984 -24 994 -21 q 965 -30 974 -28 q 951 -32 956 -32 l 929 -32 q 858 -21 892 -32 q 788 -10 825 -10 q 756 -14 768 -10 q 733 -22 743 -18 q 714 -31 724 -26 q 689 -35 704 -35 q 668 -27 674 -35 q 658 -11 663 -19 q 649 5 654 -3 q 628 13 643 13 q 598 6 611 13 q 571 -10 585 -1 q 542 -25 557 -18 q 507 -32 526 -32 l 496 -32 q 481 -19 489 -26 q 475 -11 472 -12 m 604 76 l 604 54 l 626 54 l 604 76 m 128 97 q 117 108 131 108 q 106 97 103 108 q 117 86 108 86 q 128 97 125 86 m 843 119 q 825 97 825 119 q 843 76 825 76 q 860 97 860 76 q 843 119 860 119 m 821 140 q 803 119 803 140 q 821 97 803 97 q 838 119 838 97 q 821 140 838 140 m 800 163 q 791 162 793 164 q 789 151 789 160 q 799 140 789 138 q 810 151 810 143 q 800 163 810 161 m 778 206 q 760 185 760 206 q 778 163 760 163 q 794 185 794 163 q 778 206 794 206 m 733 239 q 734 232 733 236 q 735 228 735 228 q 743 215 736 222 q 756 206 750 207 q 757 211 756 207 q 758 217 758 215 q 757 223 758 218 q 756 228 756 228 q 747 240 754 233 q 735 249 739 247 q 734 244 735 247 q 733 239 733 240 m 42 249 q 31 239 38 239 q 19 249 24 239 q 29 260 15 260 q 42 249 44 260 m 388 531 q 347 491 364 514 q 317 442 329 468 q 294 389 304 417 q 279 336 285 361 l 483 336 q 476 390 483 361 q 457 445 469 418 q 427 495 444 472 q 388 531 410 518 m 539 835 q 556 813 556 835 q 539 790 556 790 q 521 813 521 790 q 539 835 521 835 z "},"B":{"ha":888,"x_min":-15,"x_max":876,"o":"m 269 31 l 288 31 q 328 36 306 31 q 357 61 350 42 q 335 62 350 61 q 313 63 319 63 q 272 58 292 63 q 232 49 251 54 q 192 40 213 44 q 150 36 172 36 q 112 40 139 36 q 57 53 85 44 q 7 72 29 61 q -15 94 -15 82 q -12 104 -15 96 q 60 112 33 106 q 103 133 86 118 q 132 172 119 147 q 161 235 144 196 l 183 213 l 204 235 l 204 754 q 187 800 204 788 q 144 815 169 813 q 92 815 119 818 q 44 811 65 811 q 10 842 11 811 q 62 858 32 850 q 122 872 92 865 q 181 881 153 878 q 226 885 208 885 q 249 876 233 885 q 269 863 264 867 l 660 863 q 688 829 671 839 q 724 814 704 819 q 763 805 743 808 q 798 791 782 801 q 824 760 814 781 q 833 700 833 739 l 833 690 l 790 625 q 789 620 790 625 q 788 614 788 615 q 789 607 788 611 q 790 603 790 603 q 799 590 792 597 q 811 582 806 583 q 762 554 779 575 q 744 506 744 533 q 760 461 744 476 q 799 435 776 446 q 843 415 821 425 q 876 386 865 404 l 854 365 l 854 213 q 846 224 853 217 q 833 235 839 232 q 828 235 833 235 q 822 236 824 236 q 797 224 803 236 q 792 197 792 213 q 794 168 792 182 q 790 149 797 154 q 778 142 788 146 q 758 136 768 139 q 738 131 747 133 q 725 126 728 128 q 707 113 719 122 q 681 94 694 104 q 654 75 667 85 q 638 61 642 65 l 400 61 q 378 43 392 61 q 347 4 364 25 q 310 -35 331 -17 q 269 -53 290 -53 l 269 31 m 397 235 l 397 203 q 405 147 397 174 q 443 121 413 121 q 456 122 449 121 q 465 126 463 124 l 594 257 q 594 276 596 258 q 590 319 593 294 q 582 368 586 343 q 574 408 578 393 q 552 435 569 425 q 512 449 535 444 q 466 454 489 453 q 429 456 443 456 q 424 398 429 425 q 413 344 419 371 q 402 291 407 318 q 397 235 397 264 m 638 192 q 630 191 632 193 q 628 181 628 189 q 638 169 628 167 q 649 181 649 172 q 638 192 649 185 m 736 301 q 729 301 733 301 q 725 300 725 300 q 719 292 722 299 q 714 279 717 286 q 708 266 711 272 q 703 257 706 260 l 703 246 l 703 235 l 746 300 q 741 301 744 300 q 736 301 738 301 m 324 321 l 324 257 l 335 365 l 292 365 l 292 278 l 324 321 m 335 474 q 324 463 324 476 q 335 451 324 449 q 346 463 346 454 q 335 474 346 467 m 335 603 q 297 552 307 583 q 288 489 288 521 q 329 508 322 489 q 336 560 336 528 q 335 581 336 564 q 335 603 335 597 m 692 517 l 682 517 q 660 506 675 514 q 638 494 644 499 l 649 494 l 660 494 q 681 503 665 496 q 703 517 697 511 l 692 517 m 421 819 l 421 513 q 475 513 446 513 q 532 520 504 514 q 583 540 560 526 q 617 582 606 554 l 551 582 q 565 594 556 585 q 584 613 574 603 q 603 633 594 624 q 617 646 613 642 q 617 650 617 646 q 618 657 618 654 q 609 690 618 669 q 586 733 600 711 q 557 774 572 756 q 529 799 542 792 q 522 775 529 792 q 508 754 514 758 q 503 753 508 754 q 497 751 499 751 q 491 753 496 751 q 486 754 486 754 q 474 771 479 760 q 465 793 469 782 q 452 813 460 804 q 432 821 444 821 q 427 820 431 821 q 421 819 424 819 m 161 754 l 161 733 l 140 733 l 161 754 m 617 776 q 599 754 599 776 q 617 733 599 733 q 635 754 635 733 q 617 776 635 776 z "},"C":{"ha":910,"x_min":19,"x_max":890,"o":"m 368 56 q 351 53 364 56 q 325 47 339 50 q 299 42 311 43 q 282 43 286 40 q 189 102 236 56 q 104 208 142 149 q 43 332 67 268 q 19 444 19 396 q 42 524 19 478 q 91 614 65 569 q 137 692 117 658 q 151 736 157 726 q 238 786 189 765 q 338 820 286 807 q 443 840 390 833 q 542 847 496 847 q 640 835 593 847 q 736 824 686 824 q 793 840 769 824 q 817 892 817 856 q 840 903 831 892 q 856 928 850 914 q 864 957 861 943 q 867 975 867 971 q 890 925 890 951 l 890 871 l 890 854 q 890 831 890 842 q 889 813 889 821 l 889 801 q 884 740 888 776 q 877 669 881 703 q 870 610 874 635 q 867 585 867 585 l 824 542 q 797 635 817 592 q 744 710 776 678 q 668 762 711 743 q 574 781 625 781 q 459 751 510 781 q 374 676 408 722 q 321 572 339 629 q 303 457 303 514 q 307 336 303 399 q 331 223 311 274 q 392 140 351 172 q 507 107 433 107 q 638 115 582 107 q 733 148 693 124 q 801 215 774 172 q 844 325 828 257 l 868 325 q 867 303 868 319 q 867 282 867 288 q 865 249 867 274 q 859 195 863 224 q 851 142 856 167 q 844 108 847 117 q 757 78 797 97 q 678 42 717 60 q 598 12 639 25 q 510 -1 557 -1 q 478 -1 501 -1 q 430 2 454 0 q 387 9 406 4 q 368 22 368 14 l 368 56 m 325 108 q 314 119 328 119 q 303 108 300 119 q 314 97 306 97 q 325 108 322 97 m 260 217 q 235 188 240 210 q 231 151 231 165 l 285 151 q 282 174 285 160 q 272 195 279 179 q 260 217 265 211 m 107 399 q 106 368 107 386 q 106 330 104 350 q 113 291 107 310 q 131 260 118 272 l 131 585 q 108 493 108 538 q 107 399 107 449 m 867 499 q 885 476 885 499 q 867 456 885 456 q 849 476 849 456 q 867 499 849 499 m 86 693 l 108 693 l 86 672 l 86 693 m 824 693 q 806 672 806 693 q 824 650 806 650 q 842 672 842 650 q 824 693 842 693 m 194 736 q 176 715 176 736 q 194 693 176 693 q 213 715 213 693 q 194 736 213 736 z "},"D":{"ha":899,"x_min":-32,"x_max":881,"o":"m -32 22 q 6 38 -17 33 q 52 47 29 43 q 94 59 75 51 q 119 86 113 67 q 131 203 126 151 q 137 303 135 256 q 140 399 139 351 q 140 501 140 446 q 142 572 140 535 q 140 647 143 610 q 128 719 138 685 q 97 781 119 754 l 76 736 q 61 758 72 744 q 38 788 50 772 q 16 819 25 803 q 7 849 7 835 q 149 843 81 849 q 284 832 217 838 q 422 823 351 826 q 574 824 493 819 q 618 780 590 794 q 676 756 646 765 q 736 740 706 747 q 790 715 767 732 q 806 688 797 710 q 826 635 815 665 q 846 569 836 604 q 863 501 856 533 q 876 443 871 468 q 881 408 881 418 q 880 369 881 388 q 874 333 879 350 q 853 303 868 317 q 813 282 839 290 l 835 260 q 818 231 831 251 q 791 185 806 210 q 764 139 776 161 q 747 108 751 117 q 735 87 742 103 q 726 65 728 71 q 692 58 717 64 q 639 44 667 51 q 587 31 611 38 q 553 22 563 25 q 531 10 547 19 q 510 0 515 0 q 488 10 503 0 q 465 22 472 19 l 456 22 l 444 22 q 423 13 439 19 q 401 0 407 6 l -11 0 l -32 22 m 336 390 q 340 325 336 363 q 351 248 343 288 q 372 171 360 208 q 401 108 385 133 q 413 108 404 108 q 433 106 422 107 q 452 105 443 106 q 465 104 461 104 q 560 135 524 104 q 617 213 596 167 q 647 313 638 260 q 661 411 657 367 l 692 411 q 688 462 692 443 q 678 492 685 481 q 665 513 672 504 q 650 531 658 521 q 633 559 642 542 q 618 607 625 576 q 602 675 610 643 q 579 731 594 707 q 536 768 564 754 q 458 782 508 782 q 405 781 431 782 q 357 758 379 781 q 351 685 354 738 q 344 574 347 633 q 338 463 340 515 q 336 390 336 411 m 661 151 l 618 131 q 623 129 619 131 q 628 128 626 128 q 635 129 631 128 q 639 131 639 131 q 651 139 644 132 q 661 151 658 146 m 185 303 q 176 295 178 306 q 174 271 174 285 q 176 244 174 257 q 185 239 178 232 q 194 271 194 243 q 185 303 194 299 m 314 260 q 303 249 303 263 q 314 238 303 235 q 325 249 325 242 q 322 257 325 256 q 314 260 319 258 m 293 542 q 288 540 290 549 q 285 515 286 532 q 283 473 283 497 q 282 422 282 449 q 283 372 282 397 q 285 330 283 347 q 288 304 286 313 q 293 303 290 296 q 300 349 299 317 q 301 422 301 382 q 300 495 301 463 q 293 542 299 528 m 747 325 q 736 314 736 328 q 747 303 736 300 q 758 314 758 306 q 747 325 758 322 m 856 456 q 849 442 853 451 q 843 423 846 433 q 838 403 840 413 q 835 390 835 394 l 835 368 l 835 347 q 841 359 838 350 q 847 378 844 368 q 853 398 850 389 q 856 411 856 407 l 856 433 l 856 456 m 228 433 q 219 427 222 435 q 217 411 217 419 q 219 396 217 404 q 228 390 222 388 q 239 411 239 393 q 228 433 239 431 m 747 456 q 739 449 742 461 q 736 422 736 438 q 739 396 736 407 q 747 390 742 385 q 758 422 758 401 q 747 456 758 442 m 185 607 l 185 456 q 207 528 201 489 q 213 607 213 568 l 185 607 m 293 736 q 284 731 286 743 q 282 704 282 719 q 284 677 282 689 q 293 672 286 665 q 303 704 303 682 q 293 736 303 726 z "},"E":{"ha":824,"x_min":18,"x_max":808,"o":"m 368 22 q 192 22 278 15 q 22 43 106 28 q 21 49 22 44 q 19 54 19 53 q 40 88 19 79 q 85 101 61 96 q 131 117 110 107 q 151 151 151 126 l 151 628 q 164 650 157 635 q 174 672 171 665 l 174 682 q 158 758 174 735 q 118 796 142 782 q 69 822 94 810 q 22 867 43 835 q 18 878 18 868 l 86 878 l 672 867 l 736 975 l 758 975 q 769 961 765 975 q 776 927 774 947 q 781 884 779 907 q 782 843 782 861 l 782 813 q 782 797 782 808 q 781 774 782 786 q 781 751 781 763 q 781 736 781 740 q 742 721 756 736 q 721 684 729 706 q 705 641 713 663 q 682 607 697 619 l 682 736 l 650 693 l 607 781 l 421 781 q 424 767 421 776 q 430 748 426 758 q 435 728 433 738 q 433 715 436 719 q 427 706 433 713 q 413 692 421 700 q 399 679 406 685 q 390 672 392 674 q 370 628 378 658 q 354 567 363 597 q 335 516 346 538 q 303 499 324 494 l 325 476 q 344 477 326 475 q 387 483 363 479 q 436 490 411 486 q 476 499 461 494 q 501 517 492 501 q 516 556 511 533 q 522 603 521 578 q 524 650 524 628 l 524 693 l 564 693 q 570 678 567 693 q 577 643 574 664 q 583 600 581 622 q 585 564 585 578 q 583 542 585 557 q 577 510 581 526 q 570 478 574 493 q 564 456 567 463 l 542 476 q 528 469 536 476 q 519 456 519 461 q 526 410 519 433 q 542 361 533 386 q 557 310 550 336 q 564 260 564 285 l 564 217 q 538 277 547 240 q 518 349 529 314 q 486 410 507 385 q 424 435 465 435 q 373 425 393 435 q 325 415 353 415 l 325 260 l 368 282 q 365 221 360 253 q 385 163 369 189 q 426 121 400 138 q 483 104 451 104 q 505 106 492 104 q 519 108 518 108 l 672 260 q 673 255 672 258 q 674 249 674 251 q 673 243 674 247 q 672 239 672 239 q 651 204 663 219 q 631 174 640 189 q 616 144 622 160 q 610 108 610 129 l 628 108 q 649 123 632 108 q 686 158 665 138 q 727 201 707 179 q 758 239 747 224 q 767 262 763 246 q 776 297 772 278 q 781 335 779 317 q 783 368 783 354 l 808 368 q 803 310 808 339 q 793 253 799 281 q 783 197 788 225 q 778 139 778 168 q 780 108 778 124 q 801 86 782 93 q 724 56 778 61 q 607 50 671 51 q 478 40 543 49 q 368 0 414 32 l 390 0 l 368 22 m 239 239 q 221 217 221 239 q 239 194 221 194 q 257 217 257 194 q 239 239 257 239 m 217 585 q 206 502 210 538 q 199 435 201 467 q 195 373 196 404 q 194 303 194 342 l 194 239 l 239 325 l 239 585 l 217 585 m 715 303 q 726 293 726 300 q 715 282 726 285 q 704 293 704 279 q 715 303 704 307 z "},"F":{"ha":781,"x_min":-64,"x_max":761,"o":"m -43 22 q -61 0 -61 22 q -43 -22 -61 -22 q -25 0 -25 -22 q -43 22 -25 22 m -64 65 q -47 48 -58 56 q -23 35 -36 40 q 3 26 -10 29 q 22 22 15 22 l 499 22 l 521 43 l 325 86 q 313 104 317 88 q 306 142 308 121 q 302 185 303 164 q 301 217 301 206 l 301 279 q 322 357 301 324 q 401 390 342 390 q 434 362 417 390 q 467 298 451 333 q 494 231 482 263 q 510 194 506 200 l 510 260 l 542 239 l 564 282 l 564 615 q 500 605 517 615 q 481 579 483 594 q 481 546 478 564 q 478 513 485 528 q 448 487 472 497 q 367 476 424 476 q 325 518 325 476 l 325 542 q 328 575 325 550 q 335 628 331 600 q 342 681 339 656 q 347 715 346 706 q 380 745 361 736 q 420 758 399 754 q 465 760 442 761 q 510 760 488 760 l 529 760 q 558 759 542 760 q 588 758 575 758 l 607 758 q 619 701 611 740 q 638 620 626 661 q 666 549 650 579 q 701 518 682 518 q 734 519 715 518 q 758 542 753 519 l 758 565 q 760 606 758 585 q 761 646 761 626 l 761 672 l 761 746 q 756 845 761 799 q 738 953 751 892 q 689 942 706 953 q 660 914 672 931 q 638 878 649 897 q 607 844 626 860 l 582 844 q 542 844 563 844 q 500 843 521 843 l 478 843 q 370 855 417 843 q 271 867 324 867 l 261 867 l 282 824 q 264 820 278 821 q 239 819 250 819 l 228 819 q 180 831 200 819 q 141 855 160 842 q 103 879 122 868 q 57 890 83 890 q 38 890 49 890 q 19 886 28 889 q 6 876 11 883 q 0 856 0 868 l 0 844 l 22 781 l 22 758 l 65 781 q 88 667 76 719 q 110 563 100 615 q 126 456 119 511 q 132 336 132 401 l 132 300 q 131 244 132 272 q 131 188 131 215 l 131 151 q 106 108 131 124 q 48 83 81 92 q -17 72 15 75 q -64 65 -50 68 m 239 476 q 246 455 244 469 q 247 422 247 440 q 246 390 247 404 q 239 368 244 375 q 234 369 236 365 q 231 381 232 372 q 228 400 229 389 q 228 422 228 411 q 231 465 228 447 q 239 476 233 483 m 174 585 q 185 542 185 574 q 174 499 185 510 q 165 508 168 493 q 163 542 163 522 q 165 576 163 561 q 174 585 168 590 m 694 628 q 704 585 704 618 q 694 542 704 551 q 685 551 688 536 q 683 585 683 565 q 685 619 683 604 q 694 628 688 635 z "},"G":{"ha":975,"x_min":19,"x_max":956,"o":"m 672 43 q 554 20 611 21 q 433 19 497 19 l 408 19 q 368 21 389 19 q 326 22 347 22 l 303 22 q 232 80 271 65 q 140 94 193 94 q 125 156 140 126 q 92 212 110 185 q 58 264 74 239 q 43 314 43 289 l 43 325 l 65 368 q 63 378 65 369 q 61 390 61 388 l 40 390 q 44 408 40 401 q 53 422 49 415 q 63 435 58 428 q 67 456 67 443 q 66 468 67 461 q 65 476 65 475 l 22 456 q 22 467 22 458 q 21 486 21 476 q 20 506 21 497 q 19 519 19 515 q 33 590 19 568 q 64 622 47 613 q 94 635 81 632 q 108 650 108 639 l 108 801 q 115 819 108 815 q 128 824 121 824 q 144 822 136 824 q 158 819 153 819 q 156 840 158 828 q 155 865 154 853 q 163 884 156 876 q 188 892 169 892 q 191 854 188 878 q 217 824 194 831 q 239 830 224 826 q 271 837 254 833 q 303 842 288 840 q 325 844 318 844 q 353 845 335 844 q 397 846 372 846 q 451 847 422 846 q 510 847 481 847 q 621 846 568 847 q 693 844 674 844 q 725 880 704 861 q 769 915 746 899 q 819 942 793 932 q 867 953 844 953 q 877 945 872 953 q 889 932 882 938 l 889 921 l 889 910 l 844 715 q 844 701 844 713 q 843 682 843 689 q 844 663 843 675 q 844 650 844 651 q 848 633 844 646 q 856 606 851 621 q 863 579 860 592 q 867 564 867 567 q 860 555 867 561 q 845 542 853 549 q 831 528 838 535 q 824 519 824 522 q 818 499 817 508 q 821 482 819 490 q 819 467 822 474 q 801 456 817 460 q 770 492 781 464 q 750 559 760 521 q 728 640 740 597 q 694 719 717 683 q 632 778 671 754 q 531 801 593 801 q 419 768 463 801 q 349 681 375 735 q 311 560 322 628 q 297 426 300 493 q 297 297 294 358 q 303 194 300 236 l 282 174 q 402 121 339 135 q 531 107 465 107 q 546 107 535 107 q 569 108 557 107 q 592 108 581 108 q 607 108 603 108 q 630 131 618 113 q 651 172 642 150 q 667 216 661 194 q 674 249 674 238 q 659 294 674 279 q 624 317 644 308 q 580 331 603 325 q 542 347 557 336 q 541 351 542 347 q 540 356 540 354 q 541 364 540 360 q 542 368 542 368 q 552 382 543 374 q 564 390 561 390 l 910 390 q 931 382 915 390 q 953 368 947 374 q 954 364 953 368 q 956 357 956 360 q 954 352 956 356 q 953 347 953 349 q 892 319 917 332 q 851 288 867 306 q 830 244 836 271 q 824 174 824 217 q 833 152 824 168 q 844 131 843 136 l 844 119 l 844 108 q 842 91 844 103 q 836 65 839 79 q 830 40 833 51 q 824 22 826 28 l 781 65 q 767 51 776 61 q 748 31 758 42 q 728 12 738 21 q 715 0 719 3 q 710 -1 715 0 q 704 -1 706 -1 q 698 -1 703 -1 q 693 0 693 0 q 680 21 688 6 q 672 43 672 36 m 715 151 q 697 131 697 151 q 715 108 697 108 q 733 131 733 108 q 715 151 733 151 m 758 239 l 758 131 l 781 131 l 758 239 m 260 282 q 251 273 254 288 q 249 239 249 258 q 251 204 249 219 q 260 194 254 189 q 271 239 271 208 q 260 282 271 271 m 194 303 q 176 282 176 303 q 194 260 176 260 q 213 282 213 260 q 194 303 213 303 m 131 433 q 113 411 113 433 q 131 390 113 390 q 149 411 149 390 q 131 433 149 433 m 824 585 q 813 574 813 588 q 824 563 813 560 q 835 574 835 567 q 832 582 835 581 q 824 585 829 583 m 86 715 q 88 709 86 713 q 89 704 89 706 q 88 698 89 703 q 86 693 86 693 q 78 681 85 688 q 65 672 71 674 q 64 677 65 674 q 63 682 63 681 q 64 689 63 685 q 65 693 65 693 q 74 706 67 699 q 86 715 81 713 m 174 693 q 156 672 156 693 q 174 650 156 650 q 192 672 192 650 q 174 693 192 693 z "},"H":{"ha":1083,"x_min":22,"x_max":1061,"o":"m 399 524 q 447 521 411 522 q 524 519 483 519 l 600 519 l 650 519 l 663 519 q 704 533 683 519 q 736 564 725 546 q 737 581 736 569 q 738 607 738 593 q 738 633 738 621 q 739 650 739 644 q 726 738 742 707 q 689 790 710 769 q 649 827 668 811 q 625 871 629 843 q 697 876 656 874 q 783 882 739 879 q 869 887 826 885 q 944 889 911 889 q 980 888 960 889 q 1017 882 1000 888 q 1047 865 1035 876 q 1058 831 1058 853 q 972 815 1004 831 q 922 774 939 800 q 899 711 904 747 q 896 633 894 675 q 902 547 897 592 q 910 456 907 501 q 897 447 904 456 q 889 433 889 439 q 903 398 889 419 q 932 368 918 376 q 909 347 910 363 q 908 315 908 331 q 915 240 908 279 q 940 168 922 201 q 986 112 957 135 q 1061 86 1015 89 l 1040 65 q 990 58 1025 65 q 913 44 954 51 q 831 29 871 36 q 769 22 792 22 l 758 22 q 737 33 753 24 q 715 43 721 43 q 678 48 706 44 q 619 56 650 51 q 559 63 588 60 q 519 65 531 65 l 715 131 q 734 159 729 133 q 739 213 739 185 l 739 246 l 739 271 q 738 286 739 275 q 738 308 738 297 q 737 332 738 321 q 736 347 736 343 l 693 325 q 692 341 693 331 q 692 357 692 351 q 694 398 692 382 q 715 433 697 414 l 499 433 q 461 419 475 433 q 437 388 447 406 q 416 351 426 369 q 390 325 406 333 l 390 131 q 403 122 394 128 q 423 109 413 115 q 442 97 433 103 q 456 86 451 90 q 456 82 456 86 q 457 76 457 78 q 456 70 457 74 q 456 65 456 67 q 425 63 444 65 q 388 54 406 61 q 357 35 369 47 q 347 0 344 22 q 314 38 339 28 q 253 47 289 47 q 180 44 218 47 q 108 42 142 42 q 53 50 76 42 q 22 86 29 58 q 94 96 61 90 q 149 115 126 101 q 185 151 172 128 q 197 215 197 175 q 197 231 197 221 q 196 251 196 242 q 195 271 196 263 q 194 282 194 279 q 186 412 188 346 q 183 544 185 478 q 174 674 181 610 q 151 801 168 739 q 105 815 133 807 q 65 844 76 824 l 86 867 l 476 867 q 496 864 482 872 q 517 856 510 856 l 538 844 q 486 814 510 821 q 456 801 463 807 q 441 793 449 800 q 433 781 433 786 l 399 524 m 801 347 q 793 335 796 354 q 790 293 790 317 q 793 251 790 271 q 801 239 796 232 q 809 260 807 246 q 811 293 811 275 q 809 325 811 310 q 801 347 807 340 m 801 456 q 783 433 783 456 q 801 411 783 411 q 819 433 819 411 q 801 456 819 456 m 282 325 q 274 319 276 326 q 271 303 271 311 q 274 288 271 296 q 282 282 276 279 q 293 303 293 285 q 282 325 293 322 m 672 282 q 682 271 682 278 q 672 260 682 263 q 661 271 661 257 q 663 281 661 279 q 672 282 665 283 z "},"I":{"ha":715,"x_min":13,"x_max":693,"o":"m 347 43 q 295 37 332 40 q 217 30 258 33 q 138 24 175 26 q 86 22 101 22 q 73 22 82 22 q 53 21 64 21 q 34 20 43 21 q 22 19 25 19 l 22 43 q 97 58 60 44 q 151 108 133 71 q 187 244 174 174 q 207 388 200 315 q 215 532 214 460 q 217 672 217 604 q 201 738 217 715 q 164 770 186 760 q 115 785 142 781 q 65 799 88 789 q 28 829 43 808 q 13 892 13 850 q 39 891 18 892 q 65 889 60 890 q 101 878 72 886 q 163 863 129 871 q 224 850 196 856 q 260 844 253 844 q 267 847 260 844 q 285 853 275 850 q 307 860 296 857 q 325 867 318 864 q 347 878 331 868 q 368 889 363 889 q 383 883 372 889 q 403 870 393 878 q 423 856 414 863 q 433 844 432 849 l 693 844 q 642 793 660 804 q 608 780 624 782 q 574 777 593 778 q 519 758 556 776 q 483 712 499 747 q 458 628 468 676 q 442 524 449 581 q 433 416 436 468 q 430 322 431 364 q 429 257 429 279 q 431 228 429 244 q 432 194 432 213 q 433 166 432 179 q 433 151 433 153 l 456 131 l 476 174 q 490 138 479 154 q 512 108 500 122 q 533 80 524 93 q 543 54 543 67 q 542 49 543 53 q 542 43 542 44 l 411 0 l 401 0 l 390 0 q 368 21 383 6 q 347 43 353 36 m 282 239 q 284 215 282 232 q 290 176 286 197 q 297 137 293 156 q 303 108 300 118 q 313 96 306 103 q 325 86 319 89 q 325 101 325 90 q 326 124 325 113 q 326 147 326 136 q 326 163 326 158 q 326 206 326 186 q 324 244 326 225 q 317 282 322 263 q 303 325 313 301 q 297 308 300 319 q 290 282 293 296 q 284 256 286 268 q 282 239 282 244 m 325 411 q 314 401 314 415 q 325 390 314 388 q 336 401 336 393 q 325 411 336 408 z "},"J":{"ha":724,"x_min":19,"x_max":799,"o":"m 19 176 q 43 102 19 135 q 103 47 67 69 q 181 11 139 24 q 260 -1 224 -1 q 329 6 300 -1 q 384 28 358 14 q 436 63 410 43 q 499 108 463 83 q 542 585 563 342 q 563 625 556 603 q 573 672 569 647 q 578 718 576 696 q 585 758 581 740 q 613 785 592 779 q 658 793 635 790 q 699 803 681 796 q 717 835 717 810 q 716 840 717 836 q 715 844 715 844 q 706 858 713 851 q 693 867 699 865 q 647 899 668 879 q 610 936 626 918 q 583 967 594 954 q 564 979 572 979 q 533 971 547 979 q 509 949 519 963 q 490 920 499 936 q 476 889 482 904 l 465 889 l 456 889 q 446 892 451 889 q 433 900 440 896 q 421 907 426 904 q 411 910 415 910 q 402 903 408 910 q 389 890 396 897 q 376 875 382 882 q 368 867 369 868 l 357 867 q 329 870 342 867 q 304 878 317 874 q 278 887 292 883 q 249 890 265 890 q 208 888 229 890 q 170 876 188 885 q 142 853 153 868 q 131 813 131 838 l 131 801 q 160 799 139 801 q 206 794 182 797 q 252 787 231 790 q 282 781 274 783 q 299 768 294 776 q 304 751 303 760 q 304 732 306 742 q 303 715 303 722 q 309 619 306 679 q 316 501 313 560 q 322 399 319 443 q 325 347 325 354 q 328 330 325 343 q 336 302 332 317 q 344 275 340 288 q 347 260 347 263 l 347 239 l 347 217 q 338 229 344 222 q 325 239 331 236 q 267 270 303 251 q 197 306 231 289 q 137 335 163 322 q 108 347 111 347 l 43 347 q 31 324 36 347 q 24 272 26 301 q 20 215 21 243 q 19 176 19 186 m 239 43 q 257 22 257 43 q 239 0 257 0 q 221 22 221 0 q 239 43 221 43 m 174 131 q 176 150 171 138 q 188 176 181 163 q 203 201 194 190 q 217 217 211 213 q 239 217 224 219 q 271 210 254 215 q 303 195 288 204 q 325 174 318 186 l 325 163 l 325 151 q 317 130 324 146 q 303 108 310 114 l 292 108 q 276 108 285 108 q 260 107 268 107 l 249 107 q 233 106 244 107 q 208 106 221 106 q 185 113 196 107 q 174 131 175 118 m 43 174 q 61 151 61 174 q 43 131 61 131 q 25 151 25 131 q 43 174 25 174 m 476 325 l 476 303 l 476 282 q 474 268 476 278 q 469 248 472 258 q 462 228 465 238 q 456 217 458 219 q 454 238 456 222 q 453 260 453 254 q 452 275 453 265 q 453 295 451 285 q 460 314 454 306 q 476 325 465 322 m 542 781 q 531 769 539 769 q 519 780 522 769 q 531 790 517 790 q 542 781 543 790 m 781 844 q 763 824 763 844 q 781 801 763 801 q 799 824 799 801 q 781 844 799 844 m 411 997 q 393 975 393 997 q 411 953 393 953 q 429 975 429 953 q 411 997 429 997 z "},"K":{"ha":1022,"x_min":-54,"x_max":1032,"o":"m 36 110 q 31 80 36 93 q 21 53 26 67 q 10 27 15 40 q 6 -1 6 14 q 139 11 76 -1 q 271 24 201 24 q 317 25 289 24 q 377 25 346 26 q 438 18 408 24 q 488 0 468 13 q 491 16 490 6 q 492 32 492 26 q 463 83 492 71 q 401 86 433 94 q 388 125 393 108 q 381 157 383 142 q 378 189 379 172 q 378 228 378 206 q 378 270 378 251 q 381 307 379 289 q 388 344 383 325 q 401 390 393 364 q 406 391 403 390 q 413 392 410 392 q 465 372 432 392 q 530 322 499 351 q 581 257 561 292 q 596 194 601 222 q 616 210 600 201 q 639 217 632 218 q 660 202 649 214 q 682 176 672 190 q 698 146 692 161 q 704 119 704 131 l 704 108 l 639 174 q 643 127 646 143 q 633 104 640 111 q 616 95 626 97 q 596 90 606 93 q 579 80 586 88 q 572 54 572 72 q 574 48 572 53 q 575 43 575 43 q 583 31 576 38 q 596 22 590 24 q 626 23 604 22 q 672 24 647 24 q 718 23 696 24 q 747 22 740 22 q 755 19 749 22 q 768 11 761 15 q 782 3 775 7 q 792 0 789 0 q 806 3 793 0 q 834 11 819 7 q 862 19 849 15 q 878 22 875 22 q 906 27 885 24 q 953 34 928 31 q 999 40 978 38 q 1029 43 1021 43 q 1031 49 1029 44 q 1032 54 1032 53 q 1031 60 1032 56 q 1029 65 1029 65 q 923 164 978 117 q 813 258 868 211 q 702 353 757 304 q 596 456 647 401 l 618 476 l 575 519 l 683 628 l 672 628 l 661 628 q 649 624 658 628 q 628 617 639 621 q 607 610 617 614 q 596 607 597 607 q 583 615 590 607 q 575 628 575 622 q 647 653 621 640 q 695 681 674 665 q 742 715 717 696 q 813 758 767 733 q 860 772 831 768 q 921 779 890 775 q 976 793 951 783 q 1008 824 1001 803 l 986 844 l 653 844 q 671 814 653 825 q 704 801 689 803 q 640 735 678 772 q 560 665 603 697 q 473 611 518 633 q 385 589 428 589 q 383 598 385 594 q 380 603 381 601 q 381 608 379 606 q 389 614 382 610 q 410 635 397 622 q 422 650 422 647 l 422 674 l 422 715 l 422 757 l 422 781 q 428 789 422 782 q 442 803 435 796 q 457 816 450 810 q 467 824 464 822 q 470 828 468 829 q 472 835 472 828 q 351 843 410 835 q 234 862 292 851 q 118 881 176 872 q 0 890 60 890 l -11 890 q -26 890 -18 890 q -42 889 -35 889 l -54 889 q -10 846 -33 861 q 38 820 13 831 q 88 802 63 810 q 142 781 114 794 q 165 741 156 772 q 183 666 175 710 q 195 572 190 622 q 203 475 200 521 q 207 393 206 429 q 208 343 208 357 q 190 215 208 276 q 163 86 171 153 l 142 86 q 89 98 113 86 q 36 110 65 110 m 271 217 l 271 174 l 244 174 q 271 217 244 203 m 726 239 l 738 239 q 793 218 769 239 q 817 167 817 197 q 786 174 800 167 q 761 194 772 182 q 741 218 750 206 q 726 239 732 231 m 467 411 l 488 411 l 488 390 l 467 411 m 444 456 q 461 433 461 456 q 444 411 461 411 q 426 433 426 411 q 444 456 426 456 m 488 564 l 510 564 l 488 542 l 488 564 z "},"L":{"ha":932,"x_min":18,"x_max":910,"o":"m 260 239 l 260 476 l 239 519 q 240 481 239 508 q 240 422 240 454 q 240 363 240 390 q 239 325 239 336 q 231 303 239 318 q 217 282 222 288 q 206 384 211 329 q 198 495 201 439 q 193 608 194 551 q 194 715 192 664 q 149 754 179 742 q 90 777 119 767 q 40 803 61 788 q 18 853 18 819 q 75 848 44 853 q 131 824 106 843 l 390 824 q 423 849 394 839 q 485 864 451 858 q 551 872 519 869 q 592 874 582 874 q 580 824 592 846 q 549 787 568 803 q 505 758 529 771 q 456 736 481 746 q 434 626 446 683 q 412 513 422 569 q 394 399 401 456 q 388 290 388 342 q 410 207 388 247 q 466 135 432 167 q 543 85 500 104 q 628 65 586 65 q 705 82 676 65 q 750 126 733 99 q 776 187 767 153 q 794 254 785 221 q 820 318 804 288 q 867 368 836 349 l 867 131 q 875 143 868 136 q 889 151 882 150 q 893 152 889 151 q 899 153 897 153 q 905 152 901 153 q 910 151 908 151 q 896 117 901 136 q 884 79 890 97 q 869 46 878 61 q 844 22 860 31 q 623 22 724 25 q 426 13 522 18 q 233 4 331 8 q 22 0 136 0 l 22 22 q 43 42 22 32 q 90 60 64 51 q 141 75 117 68 q 174 86 165 82 q 211 128 199 103 q 231 176 224 153 q 243 218 238 200 q 260 239 249 236 m 368 174 q 360 162 363 181 q 357 119 357 143 q 360 78 357 97 q 368 65 363 58 q 376 87 374 72 q 378 119 378 101 q 376 152 378 138 q 368 174 374 167 m 476 65 q 465 76 479 76 q 455 65 451 76 q 465 54 458 54 q 474 57 472 54 q 476 65 475 60 m 217 693 l 217 672 l 239 672 l 217 693 m 368 801 q 350 781 350 801 q 368 758 350 758 q 386 781 386 758 q 368 801 386 801 z "},"M":{"ha":1257,"x_min":-1,"x_max":1253,"o":"m 564 239 q 540 265 544 246 q 542 303 536 285 q 534 284 539 296 q 523 262 529 272 q 508 244 517 251 q 488 236 499 236 q 469 265 483 236 q 436 338 456 293 q 394 435 417 382 q 351 536 372 488 q 311 622 329 585 q 282 672 293 660 l 282 239 q 292 180 282 214 q 322 115 303 146 q 369 64 342 85 q 433 43 397 43 l 411 22 l 86 22 q 76 30 81 22 q 65 43 71 38 q 64 48 65 43 q 63 54 63 53 q 84 80 63 75 q 133 93 106 85 q 185 122 160 101 q 217 194 210 142 l 217 239 q 217 303 217 269 q 218 368 218 336 l 218 411 l 218 468 q 217 537 218 501 q 217 597 217 572 l 217 628 q 209 719 214 686 q 194 769 204 753 q 171 790 185 786 q 136 793 157 793 q 88 793 115 793 q 22 801 60 793 q 7 815 15 803 q 0 835 -1 828 l 194 835 l 194 896 q 228 883 201 896 q 285 853 256 869 q 340 821 315 836 q 368 801 365 806 q 373 815 368 807 q 385 828 378 822 q 399 840 392 835 q 411 844 406 844 q 483 813 460 844 q 517 738 507 781 q 530 652 526 696 q 542 585 533 608 q 565 518 550 556 q 599 442 581 481 q 636 367 617 404 q 672 303 656 331 q 697 338 681 306 q 731 417 713 369 q 770 520 750 464 q 807 628 790 576 q 834 718 824 679 q 844 771 844 757 l 844 781 q 817 792 832 789 q 788 801 801 796 q 764 815 774 806 q 754 844 754 825 l 781 844 q 816 841 788 844 q 878 834 844 838 q 940 827 911 831 q 975 824 968 824 q 1019 827 983 824 q 1094 834 1054 831 q 1170 841 1135 838 q 1214 844 1206 844 l 1253 844 q 1236 803 1253 814 q 1198 787 1219 793 q 1156 772 1176 781 q 1126 736 1135 763 q 1093 600 1103 675 q 1081 449 1083 525 q 1081 301 1079 372 q 1083 174 1083 229 l 1115 174 l 1115 90 q 1128 88 1115 90 q 1149 86 1140 85 q 1162 90 1153 88 q 1181 96 1171 93 q 1201 102 1192 99 q 1214 108 1210 106 l 1214 44 q 1200 44 1210 44 q 1181 44 1192 44 q 1161 43 1171 43 q 1149 43 1153 43 q 1111 42 1136 43 q 1054 39 1086 40 q 986 35 1022 38 q 918 31 950 33 q 860 26 886 28 q 824 22 835 24 l 781 43 q 808 67 788 56 q 852 88 829 79 q 892 103 875 97 q 910 108 910 108 q 947 124 939 121 q 953 133 956 128 q 945 150 951 138 q 939 194 939 163 l 928 194 q 928 207 928 199 q 928 227 928 217 q 930 247 929 238 q 932 260 931 257 q 935 280 932 264 q 942 314 939 296 q 949 348 946 332 q 953 368 953 364 q 946 377 953 371 q 931 390 939 383 q 917 402 924 396 q 910 411 910 408 q 913 420 910 414 q 921 433 917 426 q 928 447 925 440 q 932 456 932 453 q 932 463 932 456 q 933 478 932 469 q 933 494 933 486 q 933 510 933 504 q 933 519 933 513 q 933 536 933 528 q 932 551 932 544 q 932 564 932 560 l 910 519 q 914 544 913 526 q 913 582 915 563 q 902 616 910 601 q 878 631 894 631 q 872 629 875 631 q 867 628 868 628 q 828 540 847 593 q 788 424 808 486 q 746 295 768 361 q 699 171 724 229 q 646 67 674 113 q 585 0 618 21 q 572 21 579 6 q 564 43 564 36 q 563 81 564 54 q 561 139 561 107 q 563 199 561 171 q 564 239 564 228 m 1018 260 l 997 239 l 1018 239 l 1018 260 m 499 303 q 481 282 481 303 q 499 260 481 260 q 517 282 517 260 q 499 303 517 303 m 519 347 q 501 325 501 347 q 519 303 501 303 q 538 325 538 303 q 519 347 538 347 m 953 693 q 945 688 947 699 q 943 661 943 676 q 945 634 943 646 q 953 628 947 622 q 964 661 964 639 q 953 693 964 683 m 801 781 q 819 758 819 781 q 801 736 819 736 q 783 758 783 736 q 801 781 783 781 z "},"N":{"ha":1018,"x_min":18,"x_max":994,"o":"m 235 194 q 238 244 235 207 q 244 331 240 282 q 253 432 249 379 q 263 529 258 485 q 272 602 268 574 q 279 631 276 631 l 301 631 q 317 618 301 631 q 354 589 333 606 q 397 553 375 572 q 432 522 419 535 q 490 461 453 503 q 568 367 526 419 q 651 254 610 314 q 727 138 693 194 q 782 35 761 82 q 800 -42 803 -12 q 808 -42 801 -42 q 821 -43 815 -43 q 834 -42 825 -43 q 843 -42 843 -42 q 853 -31 844 -42 q 865 -19 863 -19 q 873 -23 867 -19 q 886 -31 879 -26 q 899 -38 893 -35 q 908 -42 906 -42 l 919 -42 l 929 -42 q 881 26 899 -14 q 853 111 863 65 q 840 207 843 157 q 838 306 838 257 q 840 399 838 354 q 842 481 842 444 q 852 659 842 572 q 863 838 863 746 q 902 832 883 838 q 938 825 921 826 q 969 832 954 824 q 994 868 983 840 q 969 874 988 871 q 929 881 950 878 q 890 888 908 885 q 865 890 871 890 q 856 887 863 890 q 842 879 849 883 q 828 872 835 875 q 821 868 822 868 q 792 862 814 865 q 746 856 771 858 q 699 850 721 853 q 669 847 678 847 l 669 825 l 669 803 q 674 785 671 797 q 679 760 676 774 q 685 735 682 747 q 692 717 689 722 q 710 738 704 724 q 719 768 715 753 q 728 794 722 783 q 746 806 733 806 q 752 804 747 806 q 757 803 757 803 q 767 784 761 800 q 778 760 772 768 l 778 749 l 778 739 l 757 674 l 757 663 l 757 651 q 765 631 758 647 q 778 608 772 614 l 778 369 q 701 444 735 400 q 635 538 667 489 q 569 633 603 586 q 496 717 536 681 q 535 728 528 715 q 542 758 542 740 q 511 797 542 775 q 442 840 481 819 q 369 876 404 861 q 324 890 333 890 q 314 887 321 890 q 300 879 307 883 q 287 872 293 875 q 279 868 281 868 q 227 862 264 865 q 149 856 190 858 q 72 850 108 853 q 19 847 35 847 q 19 841 19 844 q 18 836 18 838 q 19 830 18 835 q 19 825 19 825 q 58 802 29 815 q 117 775 86 789 q 170 746 147 761 q 193 717 193 731 l 193 240 q 174 180 193 207 q 127 131 154 153 q 70 94 100 110 q 19 67 40 78 l 19 44 l 344 44 l 388 89 q 333 86 360 81 q 284 107 306 92 q 249 146 263 122 q 235 194 235 169 m 713 283 q 729 261 729 283 q 713 240 729 240 q 694 261 694 240 q 713 283 694 283 m 692 306 q 708 283 708 306 q 692 261 708 261 q 674 283 674 261 q 692 306 674 306 m 279 326 q 269 315 269 331 q 280 306 269 304 q 290 315 290 308 q 279 326 290 324 m 669 326 q 686 306 686 326 q 669 283 686 283 q 651 306 651 283 q 669 326 651 326 m 258 803 q 271 799 267 803 q 275 782 275 794 q 258 760 275 760 q 240 782 240 760 q 245 799 240 794 q 258 803 250 803 z "},"O":{"ha":932,"x_min":19,"x_max":910,"o":"m 22 260 l 22 283 q 21 325 22 304 q 19 365 19 346 l 19 390 q 38 554 19 483 q 97 678 57 625 q 198 772 136 732 q 347 844 260 813 q 365 851 354 847 q 385 859 375 856 q 403 865 396 863 q 411 867 411 867 q 603 835 513 867 q 761 742 693 803 q 869 596 829 682 q 910 401 910 510 q 880 259 910 319 q 801 151 850 199 q 690 68 751 104 q 564 0 628 32 l 554 0 q 506 6 542 0 q 422 22 469 13 q 320 44 374 32 q 222 69 267 57 q 144 92 176 81 q 108 108 113 103 q 89 148 96 126 q 74 190 82 169 q 55 228 67 210 q 22 260 43 247 m 258 489 q 259 440 258 474 q 263 363 260 406 q 274 276 267 321 q 293 194 281 231 q 324 133 306 157 q 368 108 342 108 l 564 108 q 581 125 569 108 q 608 168 593 142 q 637 226 622 194 q 664 285 651 257 q 685 337 676 314 q 693 368 693 360 q 692 401 693 376 q 689 454 690 426 q 685 507 688 482 q 682 542 683 532 l 682 411 q 672 485 678 443 q 658 570 667 526 q 634 656 649 614 q 596 730 619 697 q 538 783 572 763 q 456 803 504 803 q 359 769 397 803 q 299 688 321 736 q 267 585 276 639 q 258 489 258 531 m 693 131 l 693 108 l 715 131 l 693 131 m 174 174 q 156 151 156 174 q 174 131 156 131 q 192 151 192 131 q 174 174 192 174 m 194 260 q 176 239 176 260 q 194 217 176 217 q 213 239 213 217 q 194 260 213 260 m 174 411 q 165 394 168 419 q 163 336 163 368 q 163 304 163 319 q 165 278 164 289 q 169 261 167 267 q 174 260 171 256 q 181 290 179 268 q 182 336 182 311 q 181 383 182 361 q 174 411 179 404 m 217 303 q 206 293 206 307 q 217 282 206 279 q 228 293 228 285 q 217 303 228 300 m 736 433 l 736 325 q 755 377 747 349 q 763 433 763 406 l 736 433 m 217 390 q 206 379 206 393 q 217 368 206 365 q 228 379 228 371 q 217 390 228 386 m 86 564 q 76 553 76 565 q 87 542 76 539 q 97 553 97 544 q 86 564 97 560 m 672 736 q 654 715 654 736 q 672 693 654 693 q 690 715 690 693 q 672 736 690 736 m 650 758 l 650 736 l 672 758 l 650 758 z "},"P":{"ha":767,"x_min":-19,"x_max":747,"o":"m 185 519 l 185 564 q 183 628 185 594 q 182 693 182 661 l 182 736 q 160 775 183 767 q 106 790 136 783 q 50 810 75 796 q 25 867 25 824 l 572 867 q 592 881 576 872 q 615 889 608 889 q 628 881 619 889 q 638 867 638 872 q 628 844 638 860 q 615 824 619 829 q 676 794 651 815 q 717 744 701 772 q 740 683 733 717 q 747 618 747 650 q 711 514 747 557 q 622 441 675 471 q 509 394 569 411 q 399 368 449 376 q 392 340 396 361 q 386 294 389 318 q 381 247 383 269 q 378 217 378 225 q 376 201 378 215 q 375 181 375 186 q 401 120 375 143 q 464 97 426 97 l 464 65 l 572 65 q 575 90 572 76 q 583 114 578 103 q 597 133 588 125 q 621 140 606 140 q 617 79 621 113 q 594 22 614 46 q 486 7 546 13 q 363 -2 426 1 q 235 -6 299 -6 q 113 -7 171 -7 l -19 -7 q 6 49 -19 35 q 64 69 32 64 q 125 80 96 75 q 161 108 154 85 q 181 260 176 176 q 185 421 185 343 l 185 519 m 529 131 q 518 119 528 119 q 507 130 510 119 q 518 140 504 140 q 529 131 531 140 m 269 325 q 258 336 272 336 q 247 325 244 336 q 258 314 250 314 q 269 325 265 314 m 442 411 q 432 422 446 422 q 421 412 418 422 q 432 401 424 401 q 442 411 440 401 m 247 499 l 247 476 l 290 499 l 247 499 m 378 529 q 397 500 378 504 q 433 496 415 496 q 482 508 463 496 q 512 538 501 519 q 526 581 522 557 q 531 631 531 606 l 531 694 q 507 758 531 738 l 453 672 l 453 794 q 432 791 453 794 q 399 781 411 788 q 385 758 393 774 q 378 736 378 743 q 388 715 378 731 q 399 693 399 699 q 395 665 399 688 q 388 617 392 643 q 381 569 385 592 q 378 542 378 547 l 378 529 m 638 564 q 625 554 632 561 q 615 542 618 547 q 615 537 615 542 q 614 531 614 532 q 615 526 614 529 q 615 519 615 522 l 638 564 m 290 585 q 272 564 272 585 q 290 542 272 542 q 307 564 307 542 q 290 585 307 585 z "},"Q":{"ha":925,"x_min":18,"x_max":1015,"o":"m 18 356 q 52 269 36 319 q 87 169 68 219 q 131 76 106 119 q 192 8 156 32 q 253 -24 231 -18 q 291 -29 276 -31 q 315 -26 306 -28 q 337 -31 324 -24 q 371 -64 350 -39 q 429 -143 392 -89 q 460 -159 433 -150 q 526 -178 488 -168 q 610 -197 565 -187 q 696 -213 656 -206 q 767 -226 736 -221 q 806 -231 797 -231 q 859 -230 833 -231 q 907 -208 885 -229 l 885 -186 q 893 -174 886 -182 q 907 -164 900 -167 q 928 -159 913 -162 q 960 -152 943 -156 q 993 -146 978 -149 q 1015 -143 1008 -143 l 993 -121 l 690 -121 q 653 -108 672 -121 q 617 -77 633 -96 q 589 -37 600 -58 q 578 0 578 -17 q 598 22 578 13 q 644 41 618 32 q 697 58 671 50 q 733 74 722 65 q 799 144 771 103 q 847 232 828 185 q 876 328 867 279 q 886 424 886 378 q 885 447 886 431 q 885 464 885 463 q 817 614 856 543 q 726 738 778 685 q 606 824 674 792 q 451 856 538 856 q 322 824 379 856 q 213 754 264 792 q 115 686 163 717 q 18 658 68 656 l 18 356 m 300 -12 q 282 -35 282 -12 q 300 -56 282 -56 q 315 -35 315 -56 q 300 -12 315 -12 m 188 74 q 190 86 188 78 q 192 96 192 94 q 217 83 204 89 q 240 69 229 78 q 257 50 250 61 q 264 24 264 39 q 210 32 233 24 q 188 74 188 40 m 776 53 q 758 31 758 53 q 776 8 758 8 q 793 31 793 8 q 776 53 793 53 m 210 313 q 219 397 210 356 q 238 482 228 439 q 254 569 247 525 q 257 658 261 613 q 274 683 261 667 q 305 717 288 700 q 339 749 322 735 q 365 767 356 763 q 388 768 367 767 q 421 769 408 769 q 527 742 478 769 q 613 671 576 715 q 669 570 649 626 q 690 456 690 514 l 690 421 q 688 378 690 408 q 681 313 685 347 q 674 247 678 278 q 668 204 669 217 l 625 290 q 613 238 618 274 q 598 165 607 201 q 575 101 589 129 q 538 74 561 74 l 343 74 q 290 103 314 74 q 248 171 265 132 q 220 250 231 210 q 210 313 210 290 m 907 356 q 898 355 900 357 q 896 344 896 353 q 906 333 896 331 q 917 344 917 336 q 907 356 917 353 m 213 681 q 229 658 229 681 q 213 638 229 638 q 194 658 194 638 q 213 681 194 681 m 754 789 q 736 767 736 789 q 754 746 736 746 q 771 767 771 746 q 754 789 771 789 m 474 854 q 489 832 489 854 q 474 811 489 811 q 456 832 456 811 q 474 854 456 854 z "},"R":{"ha":1138,"x_min":-1,"x_max":1224,"o":"m 744 43 q 774 44 751 43 q 819 44 796 44 q 866 44 844 44 q 896 43 888 43 q 919 40 906 43 q 946 31 933 38 q 967 15 958 25 q 975 -11 975 4 l 1047 -11 l 1069 22 l 1224 22 q 1217 48 1224 33 q 1199 65 1211 63 q 1126 74 1156 71 q 1073 82 1096 78 q 1033 93 1050 86 q 999 115 1015 100 q 963 155 982 131 q 917 217 943 179 l 874 194 l 765 303 l 765 325 q 786 313 769 319 q 808 303 803 306 l 819 303 l 831 303 q 811 324 824 308 q 785 356 799 339 q 760 389 771 374 q 744 411 749 404 q 742 416 744 411 q 740 422 740 421 q 742 428 740 424 q 744 433 744 432 q 816 469 779 449 q 883 518 853 490 q 933 580 914 546 q 953 654 953 614 q 924 760 953 719 q 849 824 896 800 q 744 860 803 849 q 626 878 686 871 q 513 890 567 885 q 419 910 458 896 q 418 881 422 890 q 406 869 414 872 q 386 867 397 867 q 368 867 376 867 q 186 879 276 867 q -1 892 96 892 q 15 860 -1 868 q 50 844 31 851 q 78 838 56 842 q 125 831 100 835 q 172 826 150 828 q 203 824 194 824 l 246 736 q 247 711 246 736 q 250 647 249 686 q 253 558 251 607 q 258 458 256 508 q 263 362 261 408 q 267 282 265 315 l 267 246 q 258 167 267 206 q 249 85 249 129 q 190 83 225 85 q 119 76 156 82 q 53 58 83 71 q 7 22 22 44 l 25 22 q 55 21 39 22 q 85 19 71 19 l 104 19 q 228 24 167 19 q 350 35 289 29 q 472 45 411 40 q 596 50 533 50 q 575 83 596 75 q 529 95 554 92 q 483 104 504 99 q 463 131 463 110 l 463 411 l 528 411 q 540 397 529 411 q 564 361 550 382 q 592 318 578 340 q 614 282 606 296 l 722 65 q 731 52 724 60 q 744 43 738 44 m 917 174 q 933 151 933 174 q 917 131 933 131 q 899 151 899 131 q 917 174 899 174 m 896 194 q 911 174 911 194 q 896 151 911 151 q 878 174 878 151 q 896 194 878 194 m 332 239 q 349 217 349 239 q 332 194 349 194 q 314 217 314 194 q 332 239 314 239 m 853 260 l 874 239 l 874 260 l 853 260 m 332 282 q 349 260 349 282 q 332 239 349 239 q 314 260 314 239 q 332 282 314 282 m 354 347 q 365 336 365 342 q 354 325 365 328 q 343 336 343 322 q 354 347 343 350 m 700 433 q 690 422 696 422 q 679 433 682 422 q 690 444 676 444 q 700 433 704 444 m 440 542 q 456 585 444 568 q 478 616 467 603 q 498 644 489 629 q 507 682 507 658 q 502 717 507 701 q 492 747 497 732 q 483 777 488 761 q 478 813 478 793 q 504 811 479 813 q 569 806 529 810 q 645 795 608 801 q 708 778 682 789 q 735 754 735 768 l 735 582 l 782 582 q 751 531 782 551 q 680 499 721 511 q 599 481 639 486 q 538 475 558 475 q 508 477 526 475 q 474 486 490 479 q 447 506 457 493 q 440 542 436 519 m 419 801 q 408 790 413 790 q 397 801 400 790 q 408 813 394 813 q 419 801 422 813 z "},"S":{"ha":672,"x_min":18,"x_max":654,"o":"m 65 31 l 65 43 q 68 76 65 51 q 74 129 71 101 q 81 182 78 157 q 86 217 85 207 q 49 249 63 225 q 29 304 36 274 q 20 366 22 335 q 18 419 18 397 q 78 397 56 419 q 115 339 100 374 q 143 264 131 304 q 172 189 156 224 q 215 131 189 154 q 282 108 240 108 q 292 118 283 108 q 303 131 301 128 l 313 131 l 325 131 q 345 127 329 131 q 379 119 361 124 q 413 112 397 115 q 433 108 429 108 q 450 119 440 111 q 470 137 460 126 q 488 157 481 147 q 499 174 496 167 q 490 254 514 219 q 419 318 465 289 q 316 376 374 347 q 207 442 258 406 q 121 525 156 478 q 86 639 86 572 q 102 726 86 685 q 147 798 118 767 q 215 848 175 829 q 301 867 254 867 q 358 860 331 867 q 413 845 386 853 q 467 831 440 838 q 519 824 494 824 q 540 847 528 824 q 565 900 553 871 q 591 953 578 929 q 615 976 604 976 q 641 967 633 976 q 651 943 649 957 q 652 915 653 929 q 651 890 651 900 q 645 814 651 851 q 631 739 639 776 q 617 663 624 701 q 607 585 610 625 q 601 584 604 585 q 596 583 597 583 q 572 601 585 583 q 542 646 558 619 q 506 704 526 672 q 460 763 486 736 q 400 807 433 789 q 324 825 367 825 q 291 819 303 825 q 269 803 279 814 q 249 775 260 792 q 217 736 238 758 q 216 732 217 736 q 215 726 215 728 q 216 719 215 724 q 217 715 217 715 q 263 648 240 675 q 314 599 286 621 q 376 559 342 578 q 456 519 410 540 q 490 511 472 528 q 527 472 508 494 q 566 435 546 450 q 607 433 586 421 q 646 343 638 383 q 654 251 654 303 q 653 237 654 246 q 652 219 653 228 q 651 203 651 210 q 650 194 650 196 l 519 43 q 499 57 514 49 q 476 65 483 65 q 465 62 474 65 q 444 54 456 58 q 424 47 433 50 q 411 43 414 43 q 392 42 410 43 q 367 42 375 42 q 342 42 358 42 q 325 43 326 43 q 288 53 310 46 q 244 67 265 60 q 209 80 224 74 q 194 86 194 86 l 194 108 l 131 108 l 86 0 q 74 8 81 1 q 65 22 67 15 l 65 31 m 564 86 q 582 65 582 86 q 564 43 582 43 q 546 65 546 43 q 564 86 546 86 m 131 628 q 113 607 113 628 q 131 585 113 585 q 149 607 149 585 q 131 628 149 628 z "},"T":{"ha":857,"x_min":-12,"x_max":858,"o":"m 99 43 q 131 49 119 54 q 150 33 142 43 q 167 11 158 22 q 193 0 176 0 q 286 11 242 0 q 378 22 331 22 l 424 22 l 618 0 l 631 0 l 640 0 q 660 8 644 1 q 692 23 675 14 q 726 43 710 32 q 749 65 742 54 q 737 83 747 78 q 713 89 726 88 q 688 90 700 90 q 672 89 676 89 q 656 90 668 89 q 631 89 644 90 q 608 83 618 88 q 596 65 597 78 q 545 182 558 124 q 532 307 532 240 q 533 414 532 363 q 537 517 535 465 q 543 622 539 568 q 553 736 547 675 q 591 749 574 744 q 625 756 608 754 q 658 759 642 758 q 696 760 675 760 q 719 760 706 760 q 743 758 732 761 q 763 749 754 756 q 771 726 771 742 q 767 709 771 715 q 758 697 763 703 q 750 683 754 690 q 746 661 746 675 q 763 590 746 622 q 792 519 781 558 q 819 588 807 550 q 840 666 832 626 q 853 744 849 706 q 858 814 858 782 q 858 820 858 817 q 857 824 857 824 q 844 830 853 826 q 824 837 835 833 q 805 842 814 840 q 792 844 796 844 l 424 844 q 397 827 406 831 q 379 824 388 824 q 364 825 372 824 q 336 826 356 826 l 336 896 q 303 884 328 896 q 249 858 279 872 q 188 833 219 844 q 131 821 156 821 q 77 832 103 821 q 33 867 51 843 q -5 840 3 853 q -12 803 -12 828 q -2 771 -12 786 q 21 741 8 756 q 44 715 33 726 q 54 693 54 703 q 47 677 54 690 q 33 649 40 664 q 18 622 25 635 q 11 607 11 610 q 6 584 8 600 q 3 550 4 568 q 1 516 1 532 q 0 494 0 500 q 51 515 33 494 q 81 561 68 535 q 112 613 94 588 q 163 650 129 639 q 126 661 135 649 q 117 693 117 674 q 126 723 117 715 q 163 736 135 731 q 194 735 172 736 q 241 732 217 733 q 287 729 265 731 q 318 728 308 728 q 326 602 318 667 q 342 472 333 538 q 357 342 351 407 q 358 217 363 278 q 317 131 353 158 q 228 104 281 104 l 228 56 q 206 57 221 56 q 174 60 190 58 q 142 64 157 63 q 119 65 126 65 q 106 57 114 65 q 99 43 99 49 m 532 86 q 550 65 550 86 q 532 43 550 43 q 514 65 514 43 q 532 86 514 86 m 510 131 q 521 119 521 126 q 510 108 521 113 q 499 119 499 104 q 510 131 499 133 m 424 282 q 424 312 424 290 q 425 357 425 333 q 424 404 425 383 q 424 433 424 425 q 413 455 424 439 q 401 476 401 471 q 410 492 401 486 q 431 500 419 497 q 453 504 443 503 q 467 506 464 506 l 467 260 l 424 282 m 813 456 q 794 433 794 456 q 813 411 794 411 q 831 433 831 411 q 813 456 831 456 m 467 564 q 456 553 463 553 q 444 563 447 553 q 456 574 442 574 q 467 564 468 574 m 726 736 q 715 726 715 740 q 726 715 715 711 q 738 726 738 719 q 726 736 738 733 z "},"U":{"ha":976,"x_min":29,"x_max":965,"o":"m 294 43 q 333 32 307 39 q 390 17 360 25 q 448 5 421 10 q 489 0 475 0 q 558 14 518 0 q 639 50 599 28 q 715 99 679 72 q 771 151 751 126 q 777 194 774 164 q 784 260 781 225 q 790 325 788 294 q 793 368 793 356 l 793 381 q 781 423 793 406 q 769 464 769 440 q 772 597 769 546 q 790 686 774 649 q 842 753 806 724 q 944 824 878 783 q 957 832 950 825 q 965 844 964 839 q 931 851 956 847 q 878 859 906 856 q 826 865 850 863 q 793 867 801 867 l 760 867 l 728 867 l 749 844 q 740 844 747 844 q 728 844 735 844 q 714 843 721 843 q 706 843 708 843 q 681 844 697 843 q 663 844 664 844 q 654 848 660 844 q 642 856 649 851 q 628 863 635 860 q 619 867 622 867 q 599 849 601 867 q 596 821 596 832 q 597 808 596 815 q 597 801 597 801 q 640 771 631 771 q 661 769 653 768 q 678 765 669 771 q 697 738 686 758 q 728 672 708 718 l 728 638 q 728 585 728 613 q 729 531 729 557 l 729 499 q 731 413 729 460 q 728 317 732 365 q 715 224 725 269 q 681 143 704 178 q 620 87 658 108 q 522 65 582 65 q 443 103 472 65 q 398 199 414 140 q 377 330 382 258 q 372 468 372 401 q 376 596 372 539 q 379 681 379 653 q 379 701 379 689 q 380 728 379 715 q 381 749 381 740 q 381 758 381 758 l 446 824 l 424 844 q 364 844 407 844 q 272 843 321 843 q 182 844 225 843 q 121 844 139 844 q 119 855 117 844 q 117 865 121 865 q 98 863 110 865 q 74 856 86 860 q 49 849 61 853 q 31 843 38 844 q 30 838 31 842 q 29 832 29 835 q 30 826 29 831 q 31 821 31 821 q 61 795 39 801 q 104 789 83 789 q 119 791 117 789 q 119 795 121 793 q 116 799 118 797 q 121 801 114 801 l 153 758 l 153 194 q 171 173 160 189 q 186 151 182 157 q 195 140 189 149 q 208 119 201 131 q 221 99 215 108 q 229 86 226 89 q 238 90 232 86 q 251 97 244 93 q 264 105 258 101 q 272 108 269 108 q 288 99 283 108 q 294 79 293 90 q 295 58 296 68 q 294 43 294 47 m 272 86 q 257 65 257 86 q 272 43 257 43 q 290 65 290 43 q 272 86 290 86 m 251 151 q 269 131 269 151 q 251 108 269 108 q 235 131 235 108 q 251 151 235 151 m 294 194 q 313 174 313 194 q 294 151 313 151 q 278 174 278 151 q 294 194 278 194 m 272 217 q 290 194 290 217 q 272 174 290 174 q 257 194 257 174 q 272 217 257 217 m 249 347 q 253 380 249 367 q 272 411 257 393 l 272 282 q 253 314 257 300 q 249 347 249 328 m 186 347 q 197 336 197 343 q 186 325 197 328 q 175 336 175 322 q 186 347 175 350 m 272 476 q 290 456 290 476 q 272 433 290 433 q 257 456 257 433 q 272 476 257 476 m 922 781 q 911 769 911 783 q 922 758 911 754 q 933 769 933 763 q 922 781 933 776 m 814 824 q 832 801 832 824 q 814 781 832 781 q 799 801 799 781 q 814 824 799 824 m 360 910 q 343 889 343 910 q 360 867 343 867 q 378 889 378 867 q 360 910 378 910 z "},"V":{"ha":822,"x_min":-161,"x_max":839,"o":"m 358 65 q 349 44 358 60 q 336 22 339 28 l 336 11 l 336 0 q 384 -5 360 -11 q 424 19 408 1 q 441 60 439 36 q 424 108 443 85 q 559 452 483 288 q 726 781 635 617 q 749 794 731 783 q 788 821 768 806 q 823 854 807 836 q 839 889 839 872 l 553 889 l 532 867 q 556 842 538 847 q 592 833 574 838 q 626 815 611 828 q 642 769 642 803 q 641 751 642 763 q 640 736 640 739 l 467 368 l 444 368 l 381 476 q 356 563 360 514 q 345 660 351 613 q 320 746 339 707 q 250 801 301 785 l 336 844 q 349 858 340 851 q 358 867 358 865 q 349 888 358 872 q 336 910 340 904 q 333 910 336 910 q 326 911 331 911 q 319 910 324 911 q 315 910 315 910 q 303 901 310 908 q 293 889 296 894 l 274 889 q 244 888 260 889 q 215 886 228 886 l 196 886 q 42 898 117 886 q -107 910 -32 910 l -161 910 q -116 871 -142 885 q -64 845 -90 857 q -12 819 -37 833 q 33 781 14 806 q 111 652 79 722 q 168 508 143 582 q 215 359 193 433 q 261 217 236 285 l 261 282 q 291 253 274 282 q 323 188 308 225 q 348 115 338 150 q 358 65 358 79 m 401 325 q 418 303 418 325 q 401 282 418 282 q 383 303 383 282 q 401 325 383 325 m 401 390 q 418 368 418 390 q 401 347 418 347 q 383 368 383 347 q 401 390 383 390 m 250 456 q 258 451 254 453 q 261 444 261 450 q 250 433 261 436 q 239 444 239 431 q 250 456 239 458 m 228 844 q 244 824 244 844 q 228 801 244 801 q 210 824 210 801 q 228 844 210 844 z "},"W":{"ha":1111,"x_min":-206,"x_max":1165,"o":"m 515 442 q 481 380 499 425 q 444 276 463 335 q 406 153 425 217 q 366 37 386 90 q 326 -51 346 -17 q 286 -85 306 -85 q 275 9 286 -50 q 244 140 264 68 q 196 292 224 213 q 135 449 168 372 q 66 596 103 526 q -8 716 29 665 q -84 793 -46 767 q -157 811 -122 819 q -147 842 -142 832 q -166 859 -153 853 q -192 873 -179 865 q -206 897 -206 881 q -203 909 -206 901 q -200 919 -200 917 l -26 897 l -49 875 q -35 858 -47 863 q -7 851 -22 853 q 22 851 8 850 q 39 853 35 853 l 54 853 q 76 853 65 853 q 94 854 86 854 l 103 854 q 110 858 104 854 q 124 865 117 861 q 138 872 131 868 q 147 875 144 875 q 167 872 156 875 q 192 863 179 868 q 215 849 204 857 q 233 832 226 842 l 211 811 l 256 789 l 211 746 q 235 703 221 742 q 261 617 249 665 q 284 525 274 569 q 299 464 294 481 q 324 462 314 471 q 342 442 335 453 l 385 356 q 426 403 407 371 q 460 472 446 435 q 484 546 475 510 q 493 604 493 582 q 482 673 493 638 q 451 740 471 708 q 403 797 431 772 q 342 832 375 821 q 349 853 342 836 q 364 875 357 869 l 372 875 q 452 872 406 875 q 549 864 499 869 q 647 850 599 858 q 732 832 694 842 q 744 823 736 831 q 753 811 751 815 q 713 816 726 821 q 692 799 699 811 q 685 773 686 788 q 683 749 683 758 q 706 646 683 699 q 753 540 728 593 q 794 435 778 488 q 797 333 810 383 l 818 356 q 838 462 826 418 q 865 542 850 506 q 901 616 881 579 q 949 703 922 653 q 949 707 949 703 q 950 713 950 711 q 949 719 950 715 q 949 724 949 724 q 933 738 946 725 q 903 765 919 750 q 875 794 888 781 q 861 811 863 807 q 860 815 861 811 q 860 821 860 819 q 860 828 860 824 q 861 832 861 832 q 872 845 865 836 q 883 854 878 854 l 1165 854 q 1149 834 1161 847 q 1124 808 1138 821 q 1097 783 1110 794 q 1078 767 1083 771 q 1062 771 1072 765 q 1050 776 1051 776 q 1044 724 1050 758 q 1030 647 1039 689 q 1008 559 1021 604 q 982 476 996 514 q 954 410 968 438 q 926 378 940 383 l 926 442 q 889 353 903 401 q 865 253 875 304 q 844 150 854 201 q 817 51 833 99 q 776 -35 801 4 q 710 -100 750 -74 q 707 -21 713 -68 q 690 81 701 26 q 660 192 678 135 q 619 298 642 249 q 571 385 597 347 q 515 442 544 424 m 275 204 q 276 184 275 196 q 280 162 276 172 q 290 144 283 151 q 310 138 297 138 q 315 138 311 138 q 319 139 318 139 l 276 225 q 276 216 276 224 q 275 204 275 208 m 253 421 q 262 367 253 396 q 284 308 271 338 q 313 252 297 279 q 342 204 329 225 q 347 222 343 210 q 353 247 350 233 q 359 272 356 260 q 364 290 363 285 l 364 303 l 364 313 l 256 442 q 254 433 256 440 q 253 421 253 425 m 233 313 l 233 269 l 258 269 q 233 313 258 297 m 515 399 q 526 388 526 396 q 515 377 526 381 q 504 388 504 374 q 515 399 504 403 m 168 518 q 178 463 168 493 q 211 421 188 432 l 211 432 q 202 486 211 456 q 168 529 193 517 l 168 518 m 906 550 q 886 519 890 533 q 882 486 882 506 q 883 472 882 479 q 883 464 883 465 q 903 495 899 482 q 907 529 907 508 q 906 541 907 533 q 906 550 906 549 m 233 529 q 215 507 215 529 q 233 486 215 486 q 250 507 250 486 q 233 529 250 529 z "},"X":{"ha":1022,"x_min":-65,"x_max":1029,"o":"m 336 43 l 336 0 q 349 12 340 3 q 369 31 358 21 q 388 51 379 42 q 401 65 397 61 q 406 76 403 71 q 408 86 408 81 l 293 86 q 315 122 300 97 q 347 175 331 147 q 379 227 364 203 q 401 260 394 251 q 439 309 422 292 q 488 326 456 326 q 515 314 500 326 q 544 284 531 301 q 565 248 557 267 q 574 217 574 229 q 566 203 574 211 q 553 194 558 194 q 592 156 575 176 q 618 108 610 135 q 577 99 599 104 q 538 83 556 93 q 508 58 519 74 q 496 19 496 43 q 572 32 536 19 q 651 44 608 44 q 667 45 656 44 q 692 45 679 46 q 715 40 704 44 q 726 22 725 35 q 741 57 729 43 q 769 79 753 71 q 806 91 786 88 q 843 94 825 94 l 890 94 q 872 167 890 140 q 828 215 854 194 q 774 254 803 235 q 726 303 746 274 q 713 326 722 307 q 692 368 703 346 q 673 410 682 390 q 661 433 664 429 l 596 499 q 595 503 596 499 q 594 510 594 507 q 595 515 594 511 q 596 519 596 519 l 639 564 q 713 651 674 617 q 794 713 751 686 q 885 765 838 740 q 986 824 933 790 q 987 828 986 825 q 988 835 988 832 q 987 840 988 836 q 986 844 986 844 q 965 859 981 851 q 943 867 949 867 l 919 867 q 883 867 901 867 q 847 868 865 868 l 824 868 l 793 868 q 753 867 774 868 q 718 867 733 867 l 704 867 q 673 864 692 867 q 637 857 654 861 q 608 849 619 853 q 596 844 596 846 l 596 813 l 669 813 q 675 803 671 811 q 683 781 679 794 q 682 758 686 767 q 661 722 678 743 q 640 684 653 704 q 611 645 626 664 q 581 610 596 626 q 553 585 565 594 q 526 621 544 592 q 488 683 507 650 q 456 746 469 717 q 442 782 442 775 q 452 806 442 800 q 477 816 463 813 q 507 824 492 819 q 531 844 522 829 q 303 846 418 839 q 76 867 189 853 q 142 888 108 885 q 215 892 176 892 q 208 908 215 900 q 190 920 200 915 q 172 928 181 925 q 163 932 164 932 q 128 927 154 932 q 76 913 103 922 q 29 890 50 904 q 8 856 8 875 q 39 817 8 829 q 107 797 69 806 q 175 776 144 789 q 206 736 206 764 q 198 714 206 729 q 185 693 190 699 q 206 706 190 699 q 228 715 222 713 l 239 715 l 249 715 q 288 647 268 682 q 324 574 308 611 q 350 499 340 536 q 360 424 360 461 q 343 355 360 392 q 305 283 326 318 q 261 218 283 247 q 228 174 239 189 q 183 135 211 150 q 123 108 156 119 q 57 90 90 97 q -3 75 24 82 q -48 60 -31 68 q -65 43 -65 53 l 336 43 m 921 86 l 921 35 q 938 36 926 35 q 964 39 950 38 q 990 42 978 40 q 1007 43 1001 43 q 1022 51 1014 43 q 1029 65 1029 60 q 1016 72 1025 68 q 997 78 1007 75 q 977 84 986 82 q 964 86 968 86 l 943 86 l 921 86 m 790 86 q 772 65 772 86 q 790 43 772 43 q 808 65 808 43 q 790 86 808 86 m 442 239 q 443 225 442 232 q 444 217 444 218 q 452 192 446 207 q 466 164 458 178 q 481 140 474 150 q 488 131 488 131 l 513 131 q 512 139 513 133 q 510 151 511 144 q 497 174 506 158 q 477 206 488 189 q 458 238 467 222 q 444 260 449 253 q 443 251 444 258 q 442 239 442 244 m 747 174 q 765 151 765 174 q 747 131 765 131 q 729 151 729 131 q 747 174 729 174 m 531 239 q 513 217 513 239 q 531 194 513 194 q 549 217 549 194 q 531 239 549 239 m 357 303 q 358 298 357 301 q 360 293 360 294 q 358 286 360 290 q 357 282 357 282 q 349 269 356 276 q 336 260 342 261 q 335 265 336 261 q 333 271 333 269 q 335 277 333 272 q 336 282 336 282 q 344 294 338 288 q 357 303 351 301 m 465 390 q 483 368 483 390 q 465 347 483 347 q 447 368 447 347 q 465 390 447 390 m 422 433 q 440 411 440 433 q 422 390 440 390 q 404 411 404 390 q 422 433 404 433 m 401 476 l 422 476 l 422 456 l 401 456 l 401 476 m 228 693 q 210 672 210 693 q 228 650 210 650 q 246 672 246 650 q 228 693 246 693 m 401 801 q 419 781 419 801 q 401 758 419 758 q 383 781 383 758 q 401 801 383 801 m 379 824 q 397 801 397 824 q 379 781 397 781 q 361 801 361 781 q 379 824 361 824 m 1007 889 q 997 899 1011 899 q 986 888 982 899 q 997 878 990 878 q 1007 889 1006 878 z "},"Y":{"ha":983,"x_min":-18,"x_max":1000,"o":"m 143 29 q 160 73 143 60 q 204 92 178 86 q 261 101 231 97 q 317 115 292 104 q 358 149 342 125 q 372 217 374 172 l 393 194 q 400 208 396 199 q 407 227 404 217 q 413 247 410 238 q 415 260 415 256 l 415 271 q 403 327 415 293 q 375 398 392 361 q 340 467 358 435 q 307 519 321 500 q 272 576 294 539 q 224 651 249 613 q 181 721 200 690 q 156 758 161 751 q 109 796 136 786 q 56 813 82 806 q 10 836 31 821 q -18 889 -11 851 l 90 889 q 78 910 86 894 q 68 932 71 926 l 68 943 l 68 953 q 127 917 103 933 q 176 890 151 901 q 232 873 201 879 q 311 867 263 867 l 329 867 q 338 870 332 867 q 351 878 344 874 q 364 885 358 882 q 372 889 369 889 q 383 878 375 889 q 393 867 392 867 q 413 865 399 867 q 441 861 426 863 q 469 858 456 860 q 488 857 482 857 q 479 837 488 844 q 461 822 471 829 q 443 805 451 814 q 435 782 435 796 q 443 721 435 753 q 464 658 451 689 q 492 597 476 626 q 524 542 508 567 l 567 564 q 569 558 567 561 q 571 553 571 554 q 569 546 571 550 q 567 542 567 542 q 558 529 565 536 q 546 519 551 522 q 551 519 549 519 q 556 518 554 518 q 584 528 572 518 q 604 551 596 538 q 619 581 613 565 q 632 607 625 596 l 718 736 q 701 748 704 742 q 698 762 697 754 q 701 777 699 769 q 704 794 704 785 q 672 792 683 794 q 650 785 660 789 q 629 779 640 782 q 600 776 618 776 q 654 867 600 838 q 672 867 660 867 q 698 867 685 867 q 722 868 711 868 q 740 868 735 868 q 764 868 750 868 q 791 867 778 868 q 814 867 804 867 q 826 867 824 867 q 876 860 846 864 q 933 854 906 857 q 981 849 961 851 q 1000 844 1000 846 l 1000 824 l 892 758 l 892 771 q 862 758 876 771 q 833 726 847 744 q 807 686 819 707 q 783 650 794 665 q 741 587 767 626 q 691 508 715 547 q 649 441 667 469 q 632 411 632 413 q 631 391 632 408 q 628 351 629 374 q 626 306 628 329 q 625 271 625 283 q 626 242 625 263 q 628 200 628 222 q 631 158 629 178 q 632 131 632 139 q 688 115 658 125 q 742 90 717 106 q 784 51 767 74 q 806 0 801 29 q 796 -1 803 0 q 783 -1 789 -1 q 759 1 771 -1 q 740 22 747 4 l 458 22 l 438 -22 l 438 0 q 423 5 438 1 q 388 13 408 8 q 344 19 367 17 q 307 22 322 22 q 274 24 299 22 q 224 26 250 25 q 174 28 197 26 q 143 29 151 29 m 610 22 q 628 0 628 22 q 610 -22 628 -22 q 594 0 594 -22 q 610 22 594 22 m 372 303 q 390 282 390 303 q 372 260 390 260 q 356 282 356 260 q 372 303 356 303 m 350 325 q 368 303 368 325 q 350 282 368 282 q 333 303 333 282 q 350 325 333 325 m 481 476 q 469 465 469 479 q 481 455 469 451 q 492 465 492 458 q 489 474 492 472 q 481 476 486 475 m 632 519 q 610 499 626 514 q 589 476 594 483 q 588 472 589 476 q 586 465 586 468 q 588 460 586 464 q 589 456 589 457 q 598 464 592 458 q 611 476 604 469 q 624 488 618 482 q 632 499 629 494 q 634 503 632 499 q 636 510 636 507 q 634 515 636 511 q 632 519 632 518 m 718 693 l 675 628 q 681 627 678 628 q 686 626 685 626 q 693 627 689 626 q 697 628 697 628 q 708 647 703 631 q 718 672 714 664 l 718 682 l 718 693 m 329 932 q 339 921 339 928 q 328 910 339 914 q 318 921 318 906 q 329 932 318 935 m 307 975 q 325 953 325 975 q 307 932 325 932 q 290 953 290 932 q 307 975 290 975 z "},"Z":{"ha":953,"x_min":22,"x_max":950,"o":"m 715 43 q 651 42 693 43 q 550 42 608 42 l 433 42 l 315 42 q 216 42 258 42 q 151 43 174 43 q 115 46 136 43 q 72 53 93 49 q 37 60 51 57 q 22 65 22 64 l 22 86 q 36 108 22 94 q 70 134 50 122 q 113 152 90 146 q 151 151 135 158 q 240 296 199 232 q 323 417 282 360 q 406 529 364 474 q 499 650 449 585 q 518 685 514 671 q 521 715 522 700 q 515 749 519 729 q 511 800 511 768 q 505 801 510 800 q 499 801 500 801 l 368 758 q 358 758 367 758 q 347 757 349 757 l 347 771 q 272 756 296 771 q 237 719 247 742 q 224 671 226 697 q 215 622 222 644 q 189 585 208 600 q 126 571 169 571 q 134 615 126 593 q 151 657 142 636 q 167 697 160 678 q 175 735 175 715 q 160 790 175 767 q 127 832 144 813 q 94 871 110 851 q 79 917 79 890 q 192 906 139 917 q 299 881 246 894 q 409 856 353 867 q 531 844 465 844 q 722 856 629 844 q 914 868 815 868 q 894 826 914 843 q 847 795 874 810 q 795 767 821 781 q 758 736 769 753 l 564 411 l 564 456 q 595 511 576 476 q 633 585 614 546 q 669 663 653 624 q 693 736 685 703 l 693 747 l 693 758 q 681 750 688 757 q 672 736 674 743 q 638 674 661 717 q 592 587 615 632 q 547 503 568 542 q 519 456 526 465 q 500 406 515 444 q 467 323 485 367 q 432 241 449 279 q 411 194 415 203 l 390 151 q 389 144 390 151 q 388 131 388 136 q 389 117 388 124 q 390 108 390 110 l 628 86 q 660 104 643 83 q 693 156 676 125 q 727 225 710 188 q 763 294 744 263 q 799 348 781 326 q 835 369 817 369 q 863 351 858 369 q 868 315 868 333 q 867 279 868 306 q 865 217 867 253 q 858 143 863 182 q 845 72 854 104 q 823 19 836 40 q 790 -1 810 -1 q 785 -1 789 -1 q 781 0 781 0 q 767 8 776 3 q 747 21 757 14 q 727 34 736 28 q 715 43 718 40 m 131 131 q 113 108 113 131 q 131 86 113 86 q 149 108 149 86 q 131 131 149 131 m 801 282 q 781 247 783 263 q 778 206 778 231 q 779 190 778 200 q 781 174 781 179 q 795 184 790 176 q 802 202 800 192 q 803 222 804 213 q 803 239 803 232 q 802 260 803 244 q 801 282 801 276 m 433 519 q 390 480 410 503 q 355 431 371 457 q 326 378 339 406 q 303 325 313 350 q 380 413 350 358 q 433 519 410 468 m 456 456 q 442 446 449 453 q 433 433 435 439 q 433 428 433 433 q 432 422 432 424 q 433 417 432 421 q 433 411 433 414 q 446 421 439 414 q 456 433 453 428 q 456 438 456 433 q 457 444 457 442 q 456 449 457 446 q 456 456 456 453 m 542 585 q 524 564 524 585 q 542 542 524 542 q 560 564 560 542 q 542 585 560 585 m 174 672 q 163 661 163 675 q 174 650 163 647 q 185 661 185 653 q 174 672 185 668 m 607 715 q 585 694 600 710 q 564 672 569 679 q 563 667 564 672 q 561 661 561 663 q 563 655 561 658 q 564 650 564 651 q 590 679 581 661 q 607 715 600 697 m 932 844 q 950 824 950 844 q 932 801 950 801 q 914 824 914 801 q 932 844 914 844 m 303 910 q 293 899 300 899 q 282 910 285 899 q 293 921 279 921 q 303 910 307 921 z "},"[":{"ha":443,"x_min":22,"x_max":428,"o":"m 228 -64 q 169 -66 193 -65 q 125 -65 146 -67 q 82 -60 104 -64 q 28 -50 60 -57 q 27 -46 28 -49 q 26 -42 26 -43 q 32 -16 26 -24 q 44 -3 38 -8 q 56 9 50 1 q 61 36 61 17 l 58 560 q 68 577 63 564 q 75 593 74 590 l 75 601 q 73 660 75 642 q 65 688 71 678 q 50 707 60 697 q 25 740 40 717 q 22 749 22 743 l 426 749 l 408 676 l 265 676 q 272 651 265 669 q 275 626 279 633 q 270 620 275 625 q 259 610 265 615 q 248 599 253 604 q 242 593 243 594 q 231 567 235 586 q 223 524 226 549 q 216 474 219 500 q 208 427 213 449 q 195 393 203 406 q 178 383 188 381 l 194 119 l 228 136 q 224 89 221 113 q 240 45 228 65 q 272 13 253 25 q 317 0 292 0 q 333 1 324 0 q 344 3 343 3 q 369 14 358 7 q 389 24 381 21 q 404 23 397 26 q 415 3 411 19 l 428 3 q 409 -10 415 3 q 386 -39 403 -24 q 334 -67 369 -54 q 228 -81 299 -81 l 244 -81 l 228 -64 m 128 103 q 115 86 115 103 q 128 69 115 69 q 142 86 142 69 q 128 103 142 103 m 111 450 q 98 295 101 376 q 94 153 94 214 l 94 103 l 128 250 l 128 450 l 111 450 z "},"\\":{"ha":744,"x_min":-17,"x_max":750,"o":"m 267 600 l 519 290 q 561 231 536 268 q 617 158 586 194 q 681 95 647 122 q 750 67 715 68 l 733 50 q 694 44 722 50 q 635 33 667 39 q 574 22 604 26 q 525 17 543 17 l 517 17 q 500 26 513 18 q 483 33 488 33 q 460 41 468 38 q 435 44 451 44 l 483 100 q 489 108 488 101 q 481 134 490 115 q 447 186 471 153 q 378 274 424 219 q 260 409 332 329 q 83 599 188 489 q 62 605 76 600 q 31 617 47 610 q 2 633 15 625 q -17 650 -11 642 l 0 667 l 289 667 q 301 664 292 671 q 317 657 311 657 l 336 647 q 306 622 321 625 q 283 617 290 618 q 273 610 279 615 q 267 600 267 604 m 557 225 l 542 225 q 544 193 542 208 q 550 183 546 178 q 556 200 554 189 q 557 225 557 211 z "},"]":{"ha":443,"x_min":22,"x_max":428,"o":"m 222 -64 q 280 -66 257 -65 q 324 -65 303 -67 q 367 -60 344 -64 q 422 -50 390 -57 q 423 -46 422 -49 q 424 -42 424 -43 q 418 -16 424 -24 q 406 -3 413 -8 q 394 9 400 1 q 389 36 389 17 l 392 560 q 382 577 388 564 q 375 593 376 590 l 375 601 q 377 660 375 642 q 385 688 379 678 q 400 707 390 697 q 425 740 410 717 q 428 749 428 743 l 24 749 l 42 676 l 185 676 q 178 651 185 669 q 175 626 171 633 q 180 620 175 625 q 191 610 185 615 q 202 599 197 604 q 208 593 207 594 q 219 567 214 586 q 227 524 224 549 q 234 474 231 500 q 242 427 238 449 q 254 393 247 406 q 272 383 261 381 l 256 119 l 222 136 q 226 89 229 113 q 210 45 222 65 q 178 13 197 25 q 133 0 158 0 q 117 1 126 0 q 106 3 107 3 q 81 14 92 7 q 61 24 69 21 q 46 23 53 26 q 35 3 39 19 l 22 3 q 41 -10 35 3 q 64 -39 47 -24 q 116 -67 81 -54 q 222 -81 151 -81 l 206 -81 l 222 -64 m 322 103 q 335 86 335 103 q 322 69 335 69 q 308 86 308 69 q 322 103 308 103 m 339 450 q 352 295 349 376 q 356 153 356 214 l 356 103 l 322 250 l 322 450 l 339 450 z "},"^":{"ha":714,"x_min":1,"x_max":772,"o":"m 372 647 q 379 663 372 650 q 389 681 386 676 l 389 689 l 389 697 q 352 700 371 706 q 322 681 333 694 q 309 650 311 668 q 322 614 307 632 q 217 351 275 478 q 89 97 160 224 q 72 86 86 94 q 42 66 57 78 q 14 40 26 54 q 1 14 1 26 l 222 14 l 239 31 q 219 49 233 44 q 191 56 206 53 q 165 69 176 60 q 153 106 153 79 q 154 119 153 110 q 156 131 156 128 l 289 414 l 306 414 l 356 331 q 374 263 372 300 q 381 189 376 225 q 401 123 386 153 q 456 81 415 93 l 389 47 q 378 38 385 43 q 372 31 372 32 q 378 13 372 26 q 389 -3 385 0 q 391 -4 389 -3 q 397 -6 393 -6 q 402 -4 399 -6 q 406 -3 406 -3 q 414 4 408 -1 q 422 14 419 10 l 436 14 q 459 15 447 14 q 482 15 471 15 l 497 15 q 613 6 556 15 q 731 -3 671 -3 l 772 -3 q 738 28 757 18 q 697 47 718 39 q 656 66 676 56 q 622 97 636 76 q 561 196 586 142 q 517 307 536 250 q 481 421 497 364 q 447 531 465 478 l 447 481 q 424 503 436 481 q 399 553 411 525 q 380 609 388 582 q 372 647 372 636 m 339 447 q 325 464 325 447 q 339 481 325 481 q 351 464 351 481 q 339 447 351 447 m 339 397 q 325 414 325 397 q 339 431 325 431 q 351 414 351 431 q 339 397 351 397 m 456 347 q 447 356 447 349 q 456 364 447 363 q 464 356 464 365 q 456 347 464 342 m 472 47 q 458 64 458 47 q 472 81 458 81 q 485 64 485 81 q 472 47 485 47 z "},"_":{"ha":542,"x_min":22,"x_max":508,"o":"m 426 106 q 442 110 432 108 q 450 115 451 111 q 459 124 451 121 q 494 143 467 128 q 500 138 494 140 q 506 131 506 135 l 506 128 l 508 -11 l 499 -31 l 481 -31 q 456 -30 465 -31 q 443 -19 447 -29 q 315 -1 368 -7 q 226 8 263 6 q 167 9 189 10 q 135 8 146 8 q 115 3 115 8 l 128 -15 l 50 -36 q 47 -28 47 -29 q 47 -25 47 -26 q 47 -24 47 -25 q 43 -19 46 -24 q 35 -20 43 -17 q 25 -22 26 -24 l 24 -17 q 23 21 24 -3 q 22 69 22 44 l 22 115 q 24 126 22 126 q 25 128 26 125 q 83 118 42 114 q 176 122 125 122 l 265 124 l 281 124 q 292 122 289 124 l 426 106 m 226 114 q 192 86 200 96 l 190 86 l 190 85 l 192 85 q 231 103 199 85 l 226 114 z "},"`":{"ha":282,"x_min":24,"x_max":250,"o":"m 250 506 q 239 483 247 490 q 219 473 231 476 q 193 467 207 469 q 167 461 179 465 l 165 461 q 129 485 153 467 q 82 528 106 504 q 41 576 58 553 q 24 615 24 600 q 47 663 24 654 q 115 672 71 672 q 122 670 117 672 q 131 667 126 668 q 180 638 165 656 q 194 586 194 621 l 194 582 l 250 510 l 250 506 m 140 485 l 133 485 l 140 482 l 140 485 m 244 493 q 244 487 240 486 q 244 493 247 488 m 240 508 q 236 503 236 508 q 240 500 236 500 q 244 503 244 500 q 240 508 244 508 m 164 590 q 161 576 161 589 q 174 563 161 574 q 202 540 186 551 q 231 518 218 528 q 244 508 244 508 q 232 517 244 508 q 205 539 219 526 q 178 563 190 551 q 165 576 165 574 l 165 586 q 164 590 165 592 m 235 515 l 235 514 q 236 511 235 511 q 239 514 239 511 q 235 515 239 515 m 51 610 l 56 619 q 52 604 56 613 q 51 592 49 596 l 51 610 m 153 586 l 153 583 q 155 583 153 583 q 157 583 157 582 q 153 586 157 590 m 181 617 l 181 615 q 182 614 181 614 l 182 615 q 181 617 182 617 m 61 667 q 60 661 60 667 q 61 657 60 657 q 68 661 68 657 q 61 667 68 667 m 68 668 l 61 668 l 68 667 l 68 668 z "},"a":{"ha":767,"x_min":-108,"x_max":792,"o":"m 675 -58 l 675 -75 l 625 -75 l 675 -58 m 375 -8 l 442 125 q 439 154 451 142 q 406 175 426 167 q 366 188 386 183 q 342 192 346 192 q 315 193 335 192 q 274 197 296 194 q 233 203 253 200 q 208 208 214 206 q 201 191 206 203 q 190 167 196 179 q 181 142 185 154 q 175 125 176 131 l 175 117 q 188 92 175 99 q 217 82 201 86 q 247 72 233 78 q 260 50 260 67 q 249 28 260 31 q 222 25 238 25 l 208 25 l 58 8 l 47 8 l 42 8 q 28 15 36 10 q 13 27 21 21 q -3 38 4 33 q -17 43 -11 43 q -33 40 -28 43 q -42 33 -37 38 q -54 26 -47 29 q -75 24 -61 24 q -92 24 -79 24 q -108 25 -106 25 q -78 56 -96 44 q -42 72 -61 67 q -2 77 -22 76 q 36 78 18 78 q 72 83 56 78 q 101 103 89 89 q 121 142 114 117 q 128 206 128 167 q 126 207 126 206 q 125 208 126 208 l 92 192 q 88 191 92 192 q 81 190 85 190 q 69 197 74 190 q 60 211 64 203 q 51 228 56 219 q 42 242 47 236 q 65 243 49 242 q 101 247 82 244 q 135 253 119 250 q 158 258 151 256 q 183 283 171 261 q 206 333 196 306 q 226 386 217 360 q 242 425 235 413 q 248 433 243 426 q 259 449 253 440 q 270 465 265 457 q 275 475 275 472 q 267 492 275 479 q 258 508 258 504 q 274 554 263 536 q 296 590 285 572 q 316 628 307 607 q 325 683 325 649 l 325 692 q 317 708 322 696 q 308 725 311 721 q 315 726 310 725 q 325 728 321 728 q 333 726 328 728 q 342 725 339 725 q 380 686 368 706 q 397 647 392 667 q 404 610 401 628 q 415 579 407 593 q 441 556 424 565 q 492 542 458 546 q 492 535 492 540 q 493 525 493 529 q 490 507 493 514 q 483 494 486 500 q 476 479 479 488 q 472 458 472 471 q 485 405 472 426 q 515 367 499 383 q 545 340 532 351 q 558 317 558 329 l 558 308 l 542 275 l 542 267 q 560 236 542 250 q 600 210 579 222 q 635 185 621 197 q 642 158 650 172 l 725 58 l 725 42 l 792 -8 q 767 -18 786 -12 q 742 -25 749 -24 l 725 -25 q 670 -16 696 -25 q 614 -7 644 -7 q 590 -10 599 -7 q 574 -17 581 -12 q 559 -24 567 -21 q 539 -26 551 -26 q 524 -21 528 -26 q 516 -8 519 -15 q 508 4 513 -1 q 493 10 504 10 q 470 4 481 10 q 449 -8 460 -1 q 426 -19 438 -14 q 400 -25 414 -25 l 392 -25 q 379 -15 386 -21 q 375 -8 372 -10 m 475 58 l 475 42 l 492 42 l 475 58 m 108 75 q 100 83 110 83 q 91 75 89 83 q 100 67 93 67 q 108 75 104 67 m 658 92 q 644 75 644 92 q 658 58 644 58 q 671 75 671 58 q 658 92 671 92 m 642 108 q 628 92 628 108 q 642 75 628 75 q 654 92 654 75 q 642 108 654 108 m 625 125 q 617 117 617 126 q 625 108 617 106 q 633 117 633 110 q 625 125 633 122 m 608 158 q 594 142 594 158 q 608 125 594 125 q 621 142 621 125 q 608 158 621 158 m 572 183 q 574 178 572 182 q 575 175 575 175 q 582 165 576 171 q 592 158 588 160 q 592 163 592 160 q 593 167 593 165 q 592 172 593 168 q 592 175 592 175 q 583 185 589 179 q 575 192 578 190 q 574 188 575 190 q 572 183 572 185 m 42 192 q 33 183 38 183 q 24 192 28 183 q 31 200 21 200 q 42 192 43 200 m 308 408 q 253 341 272 385 q 225 258 235 297 l 381 258 q 376 300 381 278 q 361 343 371 322 q 338 381 351 364 q 308 408 325 399 m 425 642 q 438 625 438 642 q 425 608 438 608 q 411 625 411 608 q 425 642 411 642 z "},"b":{"ha":681,"x_min":-14,"x_max":672,"o":"m 206 24 l 219 24 q 250 28 233 24 q 272 47 267 32 q 256 48 268 47 q 239 49 243 49 q 176 38 206 49 q 114 28 147 28 q 85 31 106 28 q 42 41 64 35 q 3 55 19 47 q -14 72 -14 63 q -11 81 -14 72 q 44 87 24 82 q 77 103 64 92 q 100 133 90 114 q 122 181 110 151 l 139 164 l 156 181 l 156 581 q 142 615 156 606 q 110 627 129 625 q 69 626 90 629 q 32 624 47 624 q 6 647 8 624 q 45 660 22 654 q 92 671 68 667 q 137 678 115 675 q 172 681 158 681 q 190 674 178 681 q 206 664 201 667 l 506 664 q 540 631 518 636 q 585 619 563 625 q 623 599 607 614 q 639 539 639 583 l 639 531 l 606 481 q 605 477 606 481 q 604 472 604 474 q 605 467 604 469 q 606 464 606 464 q 613 454 607 460 q 622 447 618 449 q 585 426 599 443 q 571 389 571 410 q 583 355 571 367 q 613 335 596 343 q 647 319 631 326 q 672 297 664 311 l 656 281 l 656 164 q 649 172 654 167 q 639 181 643 178 q 635 181 639 181 q 631 182 632 182 q 611 172 615 182 q 607 151 607 163 q 609 129 607 140 q 606 114 611 118 q 595 109 603 111 q 579 105 588 107 q 564 101 571 103 q 556 97 557 99 q 542 88 551 94 q 522 73 532 81 q 502 58 511 65 q 489 47 493 51 l 306 47 q 289 33 299 47 q 266 3 279 19 q 238 -26 253 -12 q 206 -40 222 -40 l 206 24 m 304 181 l 304 156 q 310 113 304 133 q 339 93 315 93 q 349 94 343 93 q 356 97 354 94 l 456 197 q 456 213 457 199 q 451 245 454 226 q 445 283 449 264 q 439 314 442 301 q 422 334 436 326 q 392 345 408 342 q 357 349 375 349 q 328 350 339 350 q 316 265 328 304 q 304 181 304 225 m 489 147 q 481 139 481 149 q 489 130 481 128 q 497 139 497 132 q 489 147 497 143 m 564 232 q 559 231 563 232 q 556 231 556 231 q 547 215 551 228 q 539 197 543 201 l 539 189 l 539 181 l 572 231 q 568 231 571 231 q 564 232 565 232 m 247 247 l 247 197 l 256 281 l 222 281 l 222 214 l 247 247 m 256 364 q 247 356 247 365 q 256 347 247 344 q 264 356 264 349 q 256 364 264 360 m 256 464 q 227 424 235 449 q 219 376 219 400 q 251 392 246 376 q 257 431 257 407 q 256 447 257 433 q 256 464 256 460 m 531 397 l 522 397 q 506 389 518 394 q 489 381 493 383 l 497 381 l 506 381 q 522 388 510 382 q 539 397 535 393 l 531 397 m 322 631 l 322 394 q 363 395 340 394 q 408 401 386 396 q 447 416 429 406 q 472 447 464 426 l 422 447 q 433 456 425 449 q 448 471 440 463 q 463 487 456 479 q 472 497 469 494 q 473 500 472 497 q 474 506 474 503 q 467 531 474 515 q 449 564 460 547 q 427 594 439 581 q 406 614 415 608 q 399 597 406 610 q 389 581 393 583 q 385 579 389 581 q 381 578 382 578 q 376 579 379 578 q 372 581 372 581 q 363 594 367 585 q 356 611 360 603 q 346 626 351 619 q 331 632 340 632 q 326 631 329 632 q 322 631 324 631 m 122 581 l 122 564 l 106 564 l 122 581 m 472 597 q 458 581 458 597 q 472 564 458 564 q 486 581 486 564 q 472 597 486 597 z "},"c":{"ha":700,"x_min":15,"x_max":685,"o":"m 283 43 q 271 41 281 43 q 250 36 261 39 q 229 32 239 33 q 217 33 219 31 q 145 78 181 43 q 81 160 110 114 q 33 256 51 207 q 15 342 15 304 q 33 403 15 367 q 70 473 50 439 q 106 533 90 507 q 117 567 121 560 q 183 605 146 589 q 260 631 219 621 q 340 647 300 642 q 417 651 381 651 q 492 642 457 651 q 567 633 528 633 q 610 646 592 633 q 628 686 628 658 q 647 694 639 686 q 658 714 654 703 q 665 735 663 725 q 667 750 667 746 q 685 711 685 732 l 685 669 l 685 657 q 684 640 685 647 q 683 625 683 632 l 683 617 q 680 569 682 597 q 675 515 678 542 q 669 469 672 489 q 667 450 667 450 l 633 417 q 613 488 628 454 q 572 546 597 521 q 515 585 547 571 q 442 600 482 600 q 353 578 392 600 q 288 520 315 556 q 247 440 261 485 q 233 351 233 396 q 237 258 233 306 q 256 172 240 211 q 302 107 271 132 q 390 82 333 82 q 490 88 447 82 q 565 113 533 94 q 617 165 596 132 q 650 250 638 197 l 668 250 q 667 233 668 246 q 667 217 667 221 q 665 191 667 210 q 660 150 663 172 q 655 109 658 128 q 650 83 651 90 q 583 60 614 75 q 522 33 551 46 q 460 9 492 19 q 392 -1 429 -1 q 367 -1 385 -1 q 331 1 350 0 q 298 6 313 3 q 283 17 283 10 l 283 43 m 250 83 q 242 92 251 92 q 233 83 231 92 q 242 75 235 75 q 250 83 247 75 m 200 167 q 181 144 185 161 q 178 117 178 128 l 219 117 q 217 133 219 122 q 210 150 215 138 q 200 167 204 163 m 82 307 q 81 283 82 297 q 81 253 81 268 q 86 224 82 239 q 100 200 90 210 l 100 450 q 83 380 83 414 q 82 307 82 346 m 667 383 q 681 367 681 383 q 667 350 681 350 q 653 367 653 350 q 667 383 653 383 m 67 533 l 83 533 l 67 517 l 67 533 m 633 533 q 619 517 619 533 q 633 500 619 500 q 647 517 647 500 q 633 533 647 533 m 150 567 q 136 550 136 567 q 150 533 136 533 q 164 550 164 533 q 150 567 164 567 z "},"d":{"ha":699,"x_min":-18,"x_max":685,"o":"m -18 17 q 12 28 -6 25 q 47 35 29 32 q 79 45 65 39 q 99 67 93 51 q 106 157 103 117 q 112 234 110 197 q 115 307 114 271 q 115 386 115 343 q 116 440 115 411 q 115 499 117 469 q 106 554 113 528 q 82 600 99 581 l 65 567 q 53 584 63 574 q 35 606 44 594 q 18 630 25 618 q 11 653 11 642 q 121 649 68 653 q 226 640 174 644 q 332 633 278 636 q 449 633 386 631 q 482 599 461 610 q 526 582 503 589 q 574 569 550 575 q 615 550 597 563 q 634 511 622 544 q 657 438 646 478 q 676 361 668 397 q 685 314 685 325 q 678 256 685 282 q 632 217 672 231 l 649 200 q 636 177 646 193 q 615 142 626 161 q 594 107 604 124 q 582 83 585 90 q 572 67 578 79 q 565 50 567 54 q 538 44 557 49 q 498 35 519 40 q 458 24 476 29 q 432 17 439 18 q 415 8 428 15 q 399 0 401 0 q 381 8 394 0 q 365 17 368 15 l 357 17 l 349 17 q 331 10 344 15 q 315 0 318 4 l -1 0 l -18 17 m 265 300 q 268 250 265 279 q 277 190 271 221 q 293 131 283 160 q 315 83 303 103 q 340 81 321 82 q 365 81 358 81 q 438 105 410 81 q 481 165 465 129 q 505 241 497 200 q 515 317 513 282 l 539 317 q 533 369 539 354 q 518 394 526 383 q 500 418 510 404 q 482 467 490 432 q 469 519 475 494 q 452 562 464 543 q 419 591 440 581 q 360 601 397 601 q 318 601 339 601 q 282 583 297 600 q 276 526 279 567 q 272 442 274 486 q 267 357 269 397 q 265 300 265 317 m 515 117 l 482 100 q 486 99 483 100 q 490 99 489 99 q 495 99 492 99 q 499 100 499 100 q 508 107 501 101 q 515 117 514 113 m 149 233 q 142 227 144 235 q 140 208 140 219 q 142 188 140 197 q 149 183 144 179 q 157 208 157 189 q 149 233 157 228 m 249 200 q 240 192 240 201 q 249 183 240 181 q 257 192 257 185 q 249 200 257 197 m 232 417 q 228 416 229 422 q 226 396 226 410 q 224 363 225 382 q 224 325 224 344 q 224 287 224 306 q 226 254 225 268 q 228 234 226 240 q 232 233 229 228 q 237 269 235 244 q 239 325 239 294 q 237 381 239 356 q 232 417 235 406 m 582 250 q 574 242 574 251 q 582 233 574 231 q 590 242 590 235 q 582 250 590 247 m 665 350 q 656 326 661 344 q 649 300 650 307 l 649 283 l 649 267 q 658 291 651 272 q 665 317 664 310 l 665 333 l 665 350 m 182 333 q 176 329 178 335 q 174 317 174 324 q 176 304 174 310 q 182 300 178 299 q 190 317 190 303 q 182 333 190 331 m 582 350 q 576 345 578 354 q 574 325 574 336 q 576 305 574 314 q 582 300 578 296 q 590 325 590 311 q 582 350 590 339 m 149 467 l 149 350 q 166 407 163 376 q 169 467 169 438 l 149 467 m 232 567 q 226 562 228 571 q 224 542 224 553 q 226 522 224 531 q 232 517 228 513 q 240 542 240 528 q 232 567 240 556 z "},"e":{"ha":633,"x_min":14,"x_max":622,"o":"m 283 17 q 17 33 144 8 q 16 38 17 35 q 15 42 15 40 q 31 67 15 60 q 66 78 47 74 q 101 90 85 82 q 117 117 117 97 l 117 483 q 126 500 121 488 q 133 517 132 513 l 133 525 q 121 583 133 565 q 90 612 108 601 q 52 633 72 622 q 17 667 32 643 q 14 675 14 669 l 67 675 l 517 667 l 567 750 l 583 750 q 592 739 589 750 q 598 713 596 728 q 601 680 600 697 q 601 649 601 663 l 601 625 q 601 596 601 618 q 600 567 600 574 q 571 555 581 567 q 555 526 561 543 q 543 493 549 510 q 525 467 538 476 l 525 567 l 500 533 l 467 600 l 324 600 q 331 575 324 593 q 333 550 338 557 q 328 542 333 547 q 317 532 324 538 q 306 522 311 526 q 300 517 301 518 q 285 483 290 506 q 273 436 279 460 q 258 396 267 413 q 233 383 249 379 l 250 367 q 265 367 251 365 q 298 371 279 368 q 335 377 317 374 q 367 383 354 381 q 386 399 379 386 q 397 428 393 411 q 401 464 400 444 q 403 500 403 483 l 403 533 l 433 533 q 439 522 436 533 q 444 495 442 511 q 449 462 447 479 q 450 433 450 444 q 448 416 450 428 q 444 392 446 404 q 438 367 442 379 q 433 350 435 356 l 417 367 q 406 360 413 367 q 400 350 400 354 q 405 315 400 333 q 416 278 410 297 q 428 239 422 258 q 433 200 433 219 l 433 167 q 414 213 421 185 q 399 269 407 242 q 374 315 390 296 q 326 335 358 335 q 287 327 303 335 q 250 319 271 319 l 250 200 l 283 217 q 280 169 276 193 q 296 126 283 146 q 328 93 308 106 q 372 81 347 81 q 389 82 379 81 q 400 83 399 83 l 517 200 q 517 196 517 199 q 518 192 518 193 q 517 187 518 190 q 517 183 517 183 q 485 133 501 153 q 469 83 469 114 l 483 83 q 499 94 486 83 q 528 122 513 106 q 560 155 544 138 q 583 183 575 172 q 591 201 588 189 q 597 228 594 214 q 601 258 600 243 q 603 283 603 272 l 622 283 q 610 194 622 238 q 599 107 599 151 q 600 83 599 96 q 617 67 601 71 q 557 44 599 47 q 467 39 515 40 q 368 31 418 38 q 283 0 318 25 l 300 0 l 283 17 m 183 183 q 169 167 169 183 q 183 150 169 150 q 197 167 197 150 q 183 183 197 183 m 167 450 q 158 387 161 414 q 153 335 156 360 q 151 288 151 311 q 150 233 150 264 l 150 183 l 183 250 l 183 450 l 167 450 m 550 233 q 558 225 558 231 q 550 216 558 218 q 542 225 542 214 q 550 233 542 235 z "},"f":{"ha":633,"x_min":-17,"x_max":618,"o":"m 0 17 q -14 0 -14 17 q 0 -17 -14 -17 q 14 0 14 -17 q 0 17 14 17 m -17 50 q -3 37 -12 43 q 15 26 6 31 q 35 19 25 22 q 50 17 44 17 l 417 17 l 433 33 l 283 67 q 273 81 276 68 q 268 110 269 93 q 266 142 267 126 q 265 167 265 158 l 265 215 q 281 275 265 250 q 342 300 296 300 q 367 278 354 300 q 392 228 381 256 q 413 178 404 201 q 425 150 422 154 l 425 200 l 450 183 l 467 217 l 467 474 q 417 466 431 474 q 402 446 404 458 q 403 420 400 433 q 401 394 406 407 q 378 374 396 382 q 315 367 360 367 q 283 399 283 367 l 283 417 q 285 442 283 424 q 290 483 288 461 q 296 524 293 504 q 300 550 299 543 q 324 573 310 565 q 356 583 339 581 q 390 585 372 586 q 425 585 408 585 l 440 585 q 463 584 450 585 q 485 583 475 583 l 500 583 q 510 539 504 569 q 525 477 517 508 q 545 422 533 446 q 572 399 557 399 q 598 399 583 399 q 617 417 613 400 l 617 435 q 617 466 617 450 q 618 497 618 482 l 618 517 l 618 574 q 615 649 618 614 q 600 733 611 685 q 563 724 576 733 q 541 703 550 715 q 524 676 532 690 q 500 650 515 661 l 481 650 q 449 649 465 650 q 418 649 433 649 l 400 649 q 318 658 354 649 q 242 667 282 667 l 233 667 l 250 633 q 229 631 244 632 q 208 631 214 631 q 171 639 186 631 q 141 658 156 647 q 112 676 126 668 q 76 685 97 685 q 48 681 63 685 q 33 658 33 678 l 33 650 l 50 600 l 50 583 l 83 600 q 101 513 92 554 q 117 433 110 472 q 130 351 125 393 q 135 258 135 308 l 135 231 q 134 188 135 210 q 133 144 133 165 l 133 117 q 115 82 133 94 q 71 63 96 69 q 21 54 46 57 q -17 50 -4 51 m 217 367 q 222 350 221 361 q 224 325 224 339 q 222 300 224 311 q 217 283 221 289 q 210 293 213 278 q 208 325 208 308 q 210 358 208 344 q 217 367 213 372 m 167 450 q 175 417 175 442 q 167 383 175 392 q 160 390 163 379 q 158 417 158 401 q 160 443 158 432 q 167 450 163 454 m 567 483 q 575 450 575 475 q 567 417 575 425 q 560 424 563 413 q 558 450 558 435 q 560 476 558 465 q 567 483 563 488 z "},"g":{"ha":750,"x_min":15,"x_max":735,"o":"m 517 33 q 426 16 471 17 q 333 15 382 15 l 314 15 q 283 16 299 15 q 251 17 267 17 l 233 17 q 178 61 208 50 q 108 72 149 72 q 97 119 108 97 q 71 163 85 142 q 45 203 57 183 q 33 242 33 222 l 33 250 l 50 283 q 49 292 50 285 q 47 300 47 299 l 31 300 q 34 314 31 308 q 41 324 38 319 q 48 335 44 329 q 51 350 51 340 q 51 360 51 354 q 50 367 50 365 l 17 350 q 16 374 17 356 q 15 400 15 393 q 26 454 15 438 q 49 478 36 471 q 73 489 63 486 q 83 500 83 492 l 83 617 q 88 631 83 628 q 99 633 93 633 q 112 632 106 633 q 122 631 118 631 q 120 647 122 638 q 119 665 118 657 q 125 680 119 674 q 144 686 131 686 q 147 657 144 675 q 167 633 150 639 q 184 638 172 635 q 208 644 196 642 q 233 648 221 646 q 250 650 244 650 q 306 651 265 650 q 392 651 347 651 q 477 651 436 651 q 533 650 518 650 q 558 677 542 663 q 592 704 574 692 q 631 725 611 717 q 667 733 650 733 q 675 727 671 733 q 683 717 679 721 l 683 708 l 683 700 l 650 550 q 649 540 650 549 q 649 525 649 531 q 649 510 649 519 q 650 500 650 501 q 653 488 650 497 q 658 466 656 478 q 664 444 661 454 q 667 433 667 435 q 661 426 667 431 q 649 417 656 422 q 638 406 643 411 q 633 400 633 401 q 629 384 628 392 q 632 370 631 376 q 631 359 633 364 q 617 350 629 354 q 592 378 600 356 q 577 430 585 400 q 560 492 569 460 q 534 553 551 525 q 487 599 517 581 q 408 617 457 617 q 322 591 356 617 q 269 524 289 565 q 240 431 249 483 q 228 328 231 379 q 229 229 226 276 q 233 150 232 182 l 217 133 q 310 93 261 104 q 408 82 358 82 q 438 83 415 82 q 467 83 460 83 q 484 101 475 86 q 501 133 493 115 q 513 167 508 150 q 518 192 518 183 q 507 226 518 214 q 480 244 496 238 q 447 254 464 250 q 417 267 429 258 q 416 269 417 267 q 415 274 415 272 q 416 280 415 276 q 417 283 417 283 q 425 294 418 288 q 433 300 432 300 l 700 300 q 717 294 704 300 q 733 283 729 288 q 734 280 733 283 q 735 275 735 276 q 734 271 735 274 q 733 267 733 268 q 686 244 706 254 q 655 222 667 235 q 638 188 643 208 q 633 133 633 167 q 641 117 633 129 q 650 100 649 104 l 650 92 l 650 83 q 648 69 650 79 q 643 49 646 60 q 638 30 640 39 q 633 17 635 21 l 600 50 q 590 40 597 47 q 576 24 583 32 q 560 10 568 17 q 550 0 553 3 q 547 -1 550 0 q 542 -1 543 -1 q 537 -1 540 -1 q 533 0 533 0 q 523 16 529 4 q 517 33 517 28 m 550 117 q 536 100 536 117 q 550 83 536 83 q 564 100 564 83 q 550 117 564 117 m 583 183 l 583 100 l 600 100 l 583 183 m 200 217 q 194 210 196 221 q 192 183 192 199 q 194 157 192 168 q 200 150 196 146 q 208 183 208 158 q 200 217 208 208 m 150 233 q 136 217 136 233 q 150 200 136 200 q 164 217 164 200 q 150 233 164 233 m 100 333 q 86 317 86 333 q 100 300 86 300 q 114 317 114 300 q 100 333 114 333 m 633 450 q 625 442 625 451 q 633 433 625 431 q 642 442 642 435 q 633 450 642 447 m 67 550 q 67 546 67 549 q 68 542 68 543 q 67 537 68 540 q 67 533 67 533 q 60 524 65 529 q 50 517 54 518 q 49 521 50 518 q 49 525 49 524 q 49 530 49 526 q 50 533 50 533 q 57 543 51 538 q 67 550 63 549 m 133 533 q 119 517 119 533 q 133 500 119 500 q 147 517 147 500 q 133 533 147 533 z "},"h":{"ha":833,"x_min":17,"x_max":817,"o":"m 333 417 q 367 411 343 414 q 417 406 390 408 q 467 402 443 404 q 500 400 490 400 l 510 400 q 542 410 525 400 q 567 433 558 419 q 567 466 567 439 q 568 525 568 493 q 569 584 568 557 q 569 617 569 611 q 560 651 569 646 q 532 656 550 656 q 507 664 519 656 q 563 678 533 674 q 621 683 592 682 q 677 684 650 685 q 726 683 704 683 q 753 683 739 683 q 782 678 768 682 q 805 665 796 674 q 814 639 814 656 q 725 613 751 639 q 692 547 699 588 q 691 454 685 506 q 700 350 697 403 q 690 344 696 350 q 683 333 683 338 q 694 306 683 322 q 717 283 706 290 q 699 267 700 279 q 699 243 699 254 q 704 185 699 215 q 723 130 710 156 q 759 86 736 104 q 817 67 782 68 l 800 50 q 761 44 789 50 q 702 33 733 39 q 640 22 671 26 q 592 17 610 17 l 583 17 q 567 26 579 18 q 550 33 554 33 q 522 38 543 35 q 476 43 500 40 q 430 48 451 46 q 400 50 408 50 l 550 100 q 565 122 561 103 q 568 164 568 142 l 568 189 l 568 208 q 567 238 568 215 q 567 267 567 260 l 533 250 q 533 263 533 254 q 532 275 532 271 q 534 306 532 294 q 550 333 536 318 l 383 333 q 355 323 365 333 q 336 299 344 313 q 320 271 328 285 q 300 250 313 257 l 300 100 q 326 84 307 96 q 350 67 344 72 q 351 63 350 67 q 351 58 351 60 q 351 54 351 57 q 350 50 350 51 q 327 49 342 50 q 298 42 313 47 q 274 26 283 36 q 267 0 264 17 q 241 28 260 21 q 194 36 222 36 q 139 34 168 36 q 83 32 110 32 q 40 39 58 32 q 17 67 22 46 q 72 74 47 69 q 114 88 96 78 q 142 115 132 97 q 151 165 151 133 q 151 194 151 175 q 150 217 150 213 q 144 316 144 265 q 141 417 143 367 q 134 518 139 468 q 117 617 129 568 q 81 627 103 621 q 50 650 58 633 l 67 667 l 367 667 q 383 677 371 671 q 400 683 394 683 q 417 675 404 683 q 433 667 429 667 q 433 657 433 667 q 432 633 432 647 q 408 635 426 635 q 381 628 400 635 q 350 617 361 621 q 340 610 346 615 q 333 600 333 604 l 333 417 m 617 267 q 610 258 613 272 q 608 225 608 244 q 610 193 608 208 q 617 183 613 178 q 622 200 621 189 q 624 225 624 211 q 622 250 624 239 q 617 267 621 261 m 617 350 q 603 333 603 350 q 617 317 603 317 q 631 333 631 317 q 617 350 631 350 m 217 250 q 210 246 213 251 q 208 233 208 240 q 210 221 208 226 q 217 217 213 215 q 225 233 225 218 q 217 250 225 247 m 517 217 q 525 208 525 214 q 517 199 525 201 q 508 208 508 197 q 517 217 508 218 z "},"i":{"ha":550,"x_min":10,"x_max":533,"o":"m 267 33 q 227 28 256 31 q 167 23 199 25 q 106 19 135 21 q 67 17 78 17 q 41 16 60 17 q 17 15 22 15 l 17 33 q 74 44 46 35 q 117 83 103 54 q 144 188 135 133 q 159 298 154 242 q 165 409 164 354 q 167 517 167 464 q 155 567 167 550 q 126 592 143 583 q 88 603 108 600 q 51 615 68 607 q 22 638 33 622 q 10 686 10 654 q 30 685 14 686 q 50 683 46 685 q 78 676 56 681 q 125 665 100 671 q 172 654 150 658 q 200 650 194 650 q 220 656 201 650 q 250 667 239 663 q 267 676 254 668 q 283 683 279 683 q 294 679 286 683 q 310 669 301 675 q 325 658 318 664 q 333 650 332 653 l 533 650 q 494 610 508 619 q 469 600 481 601 q 442 598 457 599 q 400 583 428 597 q 372 548 383 575 q 353 483 361 521 q 341 403 346 446 q 334 320 336 360 q 331 247 332 281 q 331 197 331 214 q 331 176 331 188 q 332 150 332 164 q 333 128 332 139 q 333 117 333 118 l 350 100 l 367 133 q 376 106 368 118 q 394 83 385 94 q 411 62 404 72 q 418 42 418 51 q 417 38 418 40 q 417 33 417 35 l 317 0 l 308 0 l 300 0 q 283 16 294 4 q 267 33 271 28 m 217 183 q 219 165 217 178 q 223 135 221 151 q 228 105 225 119 q 233 83 231 90 q 240 74 235 79 q 250 67 246 68 q 251 96 250 74 q 251 125 251 118 q 249 188 251 161 q 233 250 247 214 q 228 236 231 246 q 223 216 225 226 q 219 197 221 206 q 217 183 217 188 m 250 317 q 242 308 242 318 q 250 299 242 297 q 258 308 258 301 q 250 317 258 314 z "},"j":{"ha":551,"x_min":15,"x_max":614,"o":"m 15 136 q 33 78 15 104 q 79 35 51 53 q 140 8 107 18 q 200 -1 172 -1 q 253 5 231 -1 q 295 22 275 11 q 335 49 315 33 q 383 83 356 64 q 417 450 433 267 q 432 481 426 464 q 440 517 438 499 q 445 552 443 535 q 450 583 447 569 q 472 604 456 600 q 506 610 489 608 q 538 617 524 613 q 551 642 551 622 q 551 647 551 643 q 550 650 550 650 q 543 660 549 654 q 533 667 538 665 q 498 691 514 676 q 469 719 482 706 q 448 743 457 733 q 433 753 439 753 q 391 730 407 753 q 367 683 375 707 l 358 683 l 350 683 q 333 693 346 685 q 317 700 321 701 q 309 695 314 700 q 299 684 304 690 q 289 673 293 678 q 283 667 285 668 l 275 667 q 235 676 251 667 q 192 685 218 685 q 160 683 176 685 q 131 674 144 681 q 108 656 117 668 q 100 625 100 644 l 100 617 q 124 615 107 617 q 159 610 140 613 q 194 604 178 607 q 217 600 210 601 q 231 591 226 597 q 235 578 235 585 q 235 563 236 571 q 233 550 233 556 q 238 476 235 522 q 243 385 240 431 q 248 306 246 340 q 250 267 250 272 q 253 254 250 264 q 258 233 256 244 q 264 211 261 221 q 267 200 267 201 l 267 183 l 267 167 q 260 176 265 171 q 250 183 254 182 q 206 208 233 193 q 152 235 179 222 q 105 258 125 249 q 83 267 85 267 l 33 267 q 24 249 28 267 q 19 209 21 232 q 16 165 17 186 q 15 136 15 144 m 183 33 q 197 17 197 33 q 183 0 197 0 q 169 17 169 0 q 183 33 169 33 m 133 100 q 134 115 131 106 q 143 135 138 125 q 156 155 149 146 q 167 167 163 164 q 184 167 172 168 q 208 161 196 165 q 233 150 221 157 q 250 133 244 143 l 250 125 l 250 117 q 243 100 249 113 q 233 83 238 88 q 213 83 228 83 q 192 82 197 82 q 180 81 189 82 q 161 81 171 81 q 143 86 151 82 q 133 100 135 90 m 33 133 q 47 117 47 133 q 33 100 47 100 q 19 117 19 100 q 33 133 19 133 m 367 250 l 367 233 l 367 217 q 360 191 365 210 q 350 167 354 172 q 349 183 350 171 q 349 200 349 196 q 349 226 349 210 q 367 250 349 243 m 417 600 q 408 592 414 592 q 399 600 401 592 q 408 608 397 608 q 417 600 418 608 m 600 650 q 586 633 586 650 q 600 617 586 617 q 614 633 614 617 q 600 650 614 650 m 317 767 q 303 750 303 767 q 317 733 303 733 q 331 750 331 733 q 317 767 331 767 z "},"k":{"ha":790,"x_min":-37,"x_max":797,"o":"m 32 85 q 20 41 32 60 q 8 -1 8 22 q 110 8 63 -1 q 213 18 158 18 q 249 19 226 18 q 294 19 271 19 q 341 14 318 18 q 379 0 364 10 q 381 13 381 4 q 382 25 382 21 q 360 64 382 54 q 313 67 338 74 q 297 121 299 100 q 294 175 294 142 l 294 207 q 298 251 294 231 q 313 300 301 271 q 317 301 314 300 q 321 301 319 301 q 362 285 336 301 q 411 247 388 269 q 451 197 435 224 q 463 150 467 171 q 478 162 465 156 q 496 167 490 168 q 512 155 503 164 q 528 135 521 146 q 541 112 536 124 q 546 92 546 100 l 546 83 l 496 133 q 497 88 504 99 q 478 74 490 76 q 456 67 467 71 q 444 42 444 63 q 445 37 444 40 q 446 33 446 33 q 453 24 447 29 q 463 17 458 18 q 485 17 469 17 q 521 18 501 18 q 556 17 540 18 q 579 17 572 17 q 595 8 582 17 q 613 0 608 0 q 624 3 614 0 q 644 8 633 6 q 666 14 656 11 q 679 17 676 17 q 701 21 685 18 q 737 26 718 24 q 772 31 756 29 q 796 33 789 33 q 797 38 796 35 q 797 42 797 40 q 797 47 797 43 q 796 50 796 50 q 713 125 756 89 q 628 197 671 161 q 543 271 585 233 q 463 350 501 308 l 479 367 l 446 400 l 529 483 l 521 483 l 513 483 q 503 481 510 483 q 488 475 496 478 q 472 469 479 472 q 463 467 464 467 q 452 473 458 467 q 446 483 446 479 q 502 503 482 493 q 539 524 522 513 q 575 549 556 535 q 629 583 594 564 q 666 593 643 590 q 713 599 689 596 q 755 610 736 603 q 779 633 774 617 l 763 650 l 506 650 q 520 626 506 635 q 546 617 535 618 q 496 565 525 593 q 434 511 467 536 q 367 469 401 486 q 300 453 332 453 q 296 464 300 461 q 303 472 292 467 q 319 488 310 479 q 329 500 329 497 l 329 518 l 329 550 l 329 582 l 329 600 q 334 607 329 601 q 345 618 339 613 q 356 628 351 624 q 363 633 361 632 q 365 638 364 638 q 367 642 367 638 q 273 649 318 642 q 183 663 228 656 q 94 678 139 671 q 4 685 50 685 q -17 684 -1 685 q -37 683 -32 683 q -3 651 -21 663 q 33 633 14 640 q 72 618 51 625 q 113 600 92 611 q 131 567 122 592 q 144 510 139 543 q 153 440 150 478 q 160 367 157 401 q 163 304 163 332 q 164 264 164 276 q 150 165 164 211 q 129 67 136 118 l 113 67 q 72 76 90 67 q 32 85 54 85 m 213 167 l 213 133 l 192 133 q 213 167 192 156 m 563 183 l 571 183 q 613 167 594 183 q 632 128 632 151 q 590 149 608 128 q 563 183 571 169 m 363 317 l 379 317 l 379 300 l 363 317 m 346 350 q 358 333 358 350 q 346 317 358 317 q 332 333 332 317 q 346 350 332 350 m 379 433 l 396 433 l 379 417 l 379 433 z "},"l":{"ha":717,"x_min":14,"x_max":700,"o":"m 200 183 l 200 367 l 183 400 q 184 370 183 392 q 185 325 185 349 q 184 280 185 301 q 183 250 183 258 q 177 233 183 244 q 167 217 171 221 q 158 296 163 254 q 152 381 154 338 q 149 467 150 424 q 150 550 147 510 q 115 580 138 571 q 70 597 93 589 q 31 617 47 606 q 14 656 14 629 q 57 652 33 656 q 100 633 81 649 l 300 633 q 325 653 303 646 q 374 665 347 661 q 424 671 400 669 q 456 672 449 672 q 447 633 456 650 q 422 604 438 617 q 388 583 407 592 q 350 567 369 574 q 317 394 335 485 q 299 224 299 304 q 315 159 299 190 q 358 103 332 128 q 418 65 385 79 q 483 50 451 50 q 542 63 521 50 q 576 97 564 76 q 596 144 589 118 q 611 196 603 169 q 631 245 619 222 q 667 283 643 268 l 667 100 q 674 110 668 104 q 683 117 679 115 q 687 117 683 117 q 692 118 690 118 q 696 117 693 118 q 700 117 699 117 q 689 90 693 104 q 680 61 685 75 q 669 35 675 47 q 650 17 663 24 q 479 16 557 18 q 328 10 401 14 q 179 3 254 7 q 17 0 104 0 l 17 17 q 33 33 17 25 q 69 47 49 40 q 109 58 90 53 q 133 67 128 63 q 163 99 153 79 q 178 136 172 118 q 188 167 183 154 q 200 183 192 181 m 283 133 q 277 125 279 139 q 275 92 275 111 q 277 60 275 75 q 283 50 279 44 q 289 67 288 56 q 290 92 290 78 q 289 117 290 106 q 283 133 288 128 m 367 50 q 358 58 368 58 q 349 50 347 58 q 358 42 351 42 q 367 50 364 42 m 167 533 l 167 517 l 183 517 l 167 533 m 283 617 q 269 600 269 617 q 283 583 269 583 q 297 600 297 583 q 283 617 297 617 z "},"m":{"ha":967,"x_min":-1,"x_max":964,"o":"m 433 183 q 415 204 418 189 q 417 233 413 219 q 410 219 414 228 q 402 201 407 210 q 390 188 397 193 q 375 182 383 182 q 360 204 371 182 q 335 260 350 226 q 303 334 321 293 q 269 412 286 375 q 239 478 253 449 q 217 517 225 507 l 217 183 q 225 138 217 164 q 248 89 233 113 q 284 49 263 65 q 333 33 306 33 l 317 17 l 67 17 q 58 23 63 17 q 50 33 54 29 q 49 37 50 33 q 49 42 49 40 q 65 61 49 57 q 103 72 82 65 q 142 94 124 78 q 167 150 161 110 l 167 183 q 167 233 167 207 q 168 283 168 260 l 168 317 l 168 360 q 167 413 168 386 q 167 460 167 440 l 167 483 q 156 577 164 551 q 132 608 149 603 q 88 610 115 614 q 17 617 60 607 q 5 627 11 618 q 0 642 -1 636 l 150 642 l 150 689 q 176 678 156 689 q 220 656 197 668 q 262 631 243 643 q 283 617 281 619 q 296 638 283 625 q 317 650 308 650 q 372 626 354 650 q 398 568 390 601 q 408 501 406 535 q 417 450 410 468 q 434 398 422 426 q 460 340 446 369 q 489 283 474 311 q 517 233 504 254 q 535 259 522 235 q 563 320 547 283 q 593 400 578 357 q 621 483 608 443 q 642 553 633 522 q 650 593 650 583 l 650 600 q 628 609 640 606 q 606 617 617 613 q 588 628 596 621 q 581 650 581 635 l 600 650 q 628 647 606 650 q 675 642 650 644 q 722 636 700 639 q 750 633 744 633 q 783 636 756 633 q 841 642 810 639 q 899 647 872 644 q 933 650 926 650 l 964 650 q 951 618 964 626 q 922 606 939 610 q 890 594 906 601 q 867 567 874 588 q 841 462 849 519 q 832 345 833 404 q 832 231 831 286 q 833 133 833 176 l 858 133 l 858 69 q 867 67 858 69 q 883 67 876 65 q 909 74 890 68 q 933 83 928 79 l 933 35 q 908 34 926 35 q 883 33 890 33 q 834 31 869 33 q 758 27 799 29 q 683 22 718 25 q 633 17 647 18 l 600 33 q 622 52 606 43 q 656 68 638 61 q 687 79 674 75 q 700 83 700 83 q 728 96 722 93 q 733 102 735 99 q 727 115 732 106 q 722 150 722 125 l 714 150 q 715 175 714 156 q 717 200 715 194 q 719 216 717 204 q 725 242 722 228 q 731 267 728 256 q 733 283 733 279 q 728 290 733 285 q 716 300 722 294 q 705 310 710 306 q 700 317 700 314 q 708 333 699 321 q 717 350 717 346 q 717 367 717 351 q 718 392 718 383 q 717 413 718 397 q 717 433 717 428 l 700 400 q 703 419 701 406 q 702 448 704 433 q 694 474 700 463 q 675 485 688 485 q 671 484 674 485 q 667 483 668 483 q 636 415 651 457 q 606 326 621 374 q 574 227 590 278 q 538 131 557 176 q 497 51 518 86 q 450 0 475 17 q 440 16 446 4 q 433 33 433 28 q 433 63 433 42 q 432 107 432 83 q 433 153 432 132 q 433 183 433 175 m 783 200 l 767 183 l 783 183 l 783 200 m 383 233 q 369 217 369 233 q 383 200 369 200 q 397 217 397 200 q 383 233 397 233 m 400 267 q 386 250 386 267 q 400 233 386 233 q 414 250 414 233 q 400 267 414 267 m 733 533 q 727 528 729 538 q 725 508 725 519 q 727 488 725 497 q 733 483 729 479 q 742 508 742 492 q 733 533 742 525 m 617 600 q 631 583 631 600 q 617 567 631 567 q 603 583 603 567 q 617 600 603 600 z "},"n":{"ha":783,"x_min":14,"x_max":765,"o":"m 181 150 q 183 189 181 160 q 188 255 185 218 q 194 333 190 292 q 203 407 199 374 q 210 463 207 440 q 215 485 213 485 l 232 485 q 244 476 232 485 q 273 453 257 467 q 306 426 289 440 q 332 401 322 411 q 376 355 349 386 q 436 283 404 324 q 501 196 468 242 q 560 107 533 150 q 601 27 586 64 q 615 -32 617 -10 q 622 -33 617 -32 q 632 -33 628 -33 q 642 -33 635 -33 q 649 -32 649 -32 q 657 -24 650 -32 q 665 -15 664 -15 q 681 -23 668 -15 q 699 -32 694 -31 l 707 -32 l 715 -32 q 665 51 681 0 q 646 160 650 103 q 644 272 642 217 q 647 369 647 328 q 656 507 647 440 q 664 644 664 574 q 694 640 679 644 q 722 634 708 635 q 746 640 735 633 q 765 668 757 646 q 745 673 760 669 q 715 678 731 676 q 684 683 699 681 q 665 685 669 685 q 648 676 661 685 q 632 668 635 668 q 610 664 626 667 q 574 658 593 661 q 538 653 556 656 q 515 651 521 651 l 515 635 l 515 618 q 517 605 515 614 q 522 585 519 596 q 527 565 525 575 q 532 551 529 556 q 546 568 542 557 q 553 590 550 579 q 560 610 556 601 q 574 619 564 619 q 578 619 575 619 q 582 618 582 618 q 590 603 585 615 q 599 585 594 592 l 599 576 l 599 568 l 582 518 l 582 510 l 582 501 q 589 485 583 499 q 599 468 594 472 l 599 285 q 539 342 565 308 q 488 413 513 376 q 438 487 464 450 q 382 551 413 524 q 411 560 406 550 q 417 583 417 569 q 393 613 417 596 q 340 647 369 631 q 284 674 311 663 q 249 685 257 685 q 231 676 244 685 q 215 668 218 668 q 175 664 203 667 q 115 658 147 661 q 56 653 83 656 q 15 651 28 651 q 15 647 15 650 q 14 643 14 644 q 15 638 14 642 q 15 635 15 635 q 45 617 24 626 q 90 596 67 607 q 131 574 113 585 q 149 551 149 563 l 149 185 q 134 139 149 160 q 99 101 119 118 q 55 72 78 85 q 15 51 32 60 l 15 35 l 265 35 l 299 68 q 257 66 278 61 q 219 83 236 71 q 191 113 201 94 q 181 150 181 131 m 549 218 q 561 201 561 218 q 549 185 561 185 q 535 201 535 185 q 549 218 535 218 m 532 235 q 544 218 544 235 q 532 201 544 201 q 518 218 518 201 q 532 235 518 235 m 215 251 q 207 243 207 253 q 215 235 207 233 q 224 243 224 236 q 215 251 224 249 m 515 251 q 528 235 528 251 q 515 218 528 218 q 501 235 501 218 q 515 251 501 251 m 199 618 q 211 601 211 618 q 199 585 211 585 q 185 601 185 585 q 199 618 185 618 z "},"o":{"ha":717,"x_min":15,"x_max":700,"o":"m 17 200 l 17 218 q 16 249 17 233 q 15 281 15 265 l 15 300 q 30 426 15 372 q 74 522 44 481 q 152 594 104 564 q 267 650 200 625 q 297 660 278 654 q 317 667 315 667 q 464 642 394 667 q 586 571 533 617 q 669 458 639 525 q 700 308 700 392 q 677 199 700 246 q 617 117 654 153 q 531 53 579 81 q 433 0 483 25 l 426 0 q 389 5 417 0 q 324 17 361 10 q 247 35 288 25 q 170 53 206 44 q 110 70 135 63 q 83 83 86 78 q 69 114 74 97 q 58 147 64 131 q 42 176 51 163 q 17 200 33 190 m 199 376 q 199 339 199 365 q 203 280 200 313 q 211 213 206 247 q 226 149 217 178 q 249 102 235 121 q 283 83 263 83 l 433 83 q 457 111 440 83 q 490 174 474 139 q 520 241 507 208 q 533 283 533 274 q 533 309 533 290 q 531 349 532 328 q 528 390 529 371 q 525 417 526 410 l 525 317 q 513 406 519 354 q 488 504 506 457 q 438 585 471 551 q 350 618 406 618 q 276 592 306 618 q 230 529 247 567 q 206 450 213 492 q 199 376 199 408 m 533 100 l 533 83 l 550 100 l 533 100 m 133 133 q 119 117 119 133 q 133 100 119 100 q 147 117 147 100 q 133 133 147 133 m 150 200 q 136 183 136 200 q 150 167 136 167 q 164 183 164 167 q 150 200 164 200 m 133 317 q 127 303 129 324 q 125 258 125 283 q 127 213 125 233 q 133 200 129 193 q 139 223 138 207 q 140 258 140 239 q 139 294 140 278 q 133 317 138 310 m 167 233 q 158 225 158 235 q 167 216 158 214 q 175 225 175 218 q 167 233 175 231 m 567 333 l 567 250 q 581 291 575 269 q 586 333 586 313 l 567 333 m 167 300 q 158 292 158 301 q 167 283 158 281 q 175 292 175 285 q 167 300 175 297 m 67 433 q 58 425 58 435 q 67 416 58 414 q 75 425 75 418 q 67 433 75 431 m 517 567 q 503 550 503 567 q 517 533 503 533 q 531 550 531 533 q 517 567 531 567 m 500 583 l 500 567 l 517 583 l 500 583 z "},"p":{"ha":585,"x_min":-19,"x_max":569,"o":"m 136 400 l 136 433 q 135 483 136 457 q 135 533 135 510 l 135 567 q 118 597 136 590 q 77 607 100 603 q 35 622 54 611 q 15 667 15 633 l 435 667 q 451 677 439 671 q 468 683 463 683 q 478 677 472 683 q 485 667 485 671 q 478 649 485 661 q 468 633 472 638 q 515 610 496 626 q 547 572 535 594 q 564 525 558 550 q 569 475 569 500 q 542 394 569 428 q 474 339 514 361 q 386 303 433 317 q 301 283 339 290 q 297 261 300 278 q 292 226 294 244 q 287 190 289 207 q 285 167 285 172 q 284 154 285 165 q 283 139 283 143 q 303 92 283 110 q 351 75 324 75 l 351 50 l 435 50 q 443 88 436 67 q 474 108 450 108 q 471 62 474 88 q 451 17 468 36 q 368 5 414 10 q 274 -2 322 0 q 176 -5 225 -4 q 82 -6 126 -6 l -19 -6 q 0 38 -19 26 q 44 53 19 49 q 92 61 69 57 q 118 83 114 65 q 133 200 131 136 q 136 324 136 264 l 136 400 m 401 100 q 393 92 399 92 q 385 100 386 92 q 393 108 383 108 q 401 100 403 108 m 201 250 q 193 258 203 258 q 185 250 183 258 q 193 242 186 242 q 201 250 199 242 m 335 317 q 326 325 336 325 q 318 317 317 325 q 326 308 319 308 q 335 317 332 308 m 185 383 l 185 367 l 218 383 l 185 383 m 285 407 q 299 385 285 388 q 328 382 314 382 q 366 391 351 382 q 389 415 381 400 q 400 447 397 429 q 403 485 403 465 l 403 535 q 385 583 403 567 l 343 517 l 343 611 q 328 608 343 611 q 301 600 313 606 q 292 584 299 596 q 285 567 285 572 q 293 550 285 563 q 301 533 301 538 q 299 512 301 529 q 293 475 296 494 q 288 438 290 456 q 285 417 285 421 l 285 407 m 485 433 q 476 426 482 432 q 468 417 469 421 q 467 413 468 417 q 467 408 467 410 q 467 404 467 407 q 468 400 468 401 l 485 433 m 218 450 q 206 433 206 450 q 218 417 206 417 q 232 433 232 417 q 218 450 232 450 z "},"q":{"ha":711,"x_min":14,"x_max":781,"o":"m 14 274 q 40 208 28 246 q 67 131 53 169 q 101 58 82 92 q 147 7 119 25 q 195 -19 178 -14 q 224 -23 213 -24 q 242 -20 235 -22 q 260 -24 250 -18 q 285 -49 269 -29 q 331 -110 301 -68 q 354 -122 333 -115 q 405 -137 375 -129 q 469 -151 435 -144 q 535 -165 504 -158 q 590 -174 567 -171 q 619 -178 613 -178 q 660 -177 640 -178 q 697 -160 681 -176 l 681 -143 q 688 -134 682 -140 q 697 -126 693 -128 q 713 -122 701 -125 q 738 -117 725 -119 q 764 -112 751 -114 q 781 -110 776 -110 l 764 -93 l 531 -93 q 501 -83 517 -93 q 474 -59 486 -74 q 453 -28 461 -44 q 444 0 444 -12 q 460 17 444 10 q 496 32 475 25 q 536 44 517 39 q 564 57 556 50 q 615 110 593 79 q 651 178 636 142 q 674 253 667 215 q 682 326 682 292 q 681 344 682 332 q 681 357 681 356 q 628 472 658 417 q 558 568 599 526 q 466 634 518 610 q 347 658 414 658 q 247 634 292 658 q 164 581 203 610 q 89 528 125 551 q 14 507 53 504 l 14 274 m 231 -10 q 217 -26 217 -10 q 231 -43 217 -43 q 243 -26 243 -43 q 231 -10 243 -10 m 144 57 q 146 66 144 60 q 147 74 147 72 q 185 53 167 64 q 203 18 203 42 q 162 24 179 18 q 144 57 144 31 m 597 40 q 583 24 583 40 q 597 7 583 7 q 610 24 610 7 q 597 40 610 40 m 161 240 q 168 306 161 274 q 183 370 175 338 q 195 437 190 403 q 197 507 200 471 q 211 526 200 514 q 235 552 222 539 q 260 576 247 565 q 281 590 274 588 q 298 591 282 590 q 324 592 314 592 q 406 571 368 592 q 471 516 443 550 q 515 438 499 482 q 531 350 531 394 l 531 324 q 528 290 531 314 q 524 240 526 267 q 518 190 521 214 q 514 157 515 167 l 481 224 q 471 183 475 211 q 460 127 467 156 q 442 78 453 99 q 414 57 432 57 l 264 57 q 223 79 242 57 q 190 131 204 101 q 169 192 176 161 q 161 240 161 224 m 697 274 q 689 265 689 275 q 697 256 689 254 q 706 265 706 258 q 697 274 706 271 m 164 524 q 176 507 176 524 q 164 490 176 490 q 150 507 150 490 q 164 524 150 524 m 581 607 q 567 590 567 607 q 581 574 567 574 q 593 590 593 574 q 581 607 593 607 m 364 657 q 376 640 376 657 q 364 624 376 624 q 350 640 350 624 q 364 657 350 657 z "},"r":{"ha":875,"x_min":-1,"x_max":942,"o":"m 572 33 q 595 34 579 33 q 631 35 611 35 q 666 34 650 35 q 689 33 682 33 q 708 31 697 33 q 727 24 718 29 q 743 12 736 19 q 750 -8 750 4 l 806 -8 l 822 17 l 942 17 q 937 37 942 25 q 922 50 932 49 q 844 60 872 57 q 794 72 815 63 q 755 101 774 81 q 706 167 736 122 l 672 150 l 589 233 l 589 250 q 605 240 592 246 q 622 233 618 235 l 631 233 l 639 233 q 624 249 635 238 q 603 274 614 261 q 584 299 593 288 q 572 317 575 311 q 571 320 572 317 q 569 325 569 324 q 571 329 569 326 q 572 333 572 332 q 628 361 599 344 q 680 399 657 378 q 718 445 703 419 q 733 503 733 471 q 711 584 733 553 q 653 634 689 615 q 573 662 618 653 q 482 676 528 671 q 394 685 436 681 q 322 700 351 690 q 321 678 324 685 q 312 669 318 671 q 297 667 306 667 q 283 667 290 667 q 143 676 213 667 q -1 686 74 686 q 11 660 -1 667 q 39 650 24 654 q 60 644 43 647 q 96 640 76 642 q 133 635 115 638 q 156 633 150 633 l 189 567 q 191 526 189 567 q 195 429 193 485 q 200 314 197 374 q 206 217 203 254 l 206 189 q 199 128 206 157 q 192 65 192 99 q 147 65 174 65 q 92 59 119 64 q 40 44 64 54 q 6 17 17 35 l 19 17 q 42 16 31 17 q 65 15 54 15 l 81 15 q 269 27 176 15 q 458 39 363 39 q 442 65 458 58 q 407 74 426 71 q 372 81 388 76 q 356 100 356 85 l 356 317 l 406 317 q 415 306 407 317 q 434 278 424 294 q 455 245 444 263 q 472 217 465 228 l 556 50 q 563 40 557 46 q 572 33 568 35 m 706 133 q 718 117 718 133 q 706 100 718 100 q 692 117 692 100 q 706 133 692 133 m 689 150 q 701 133 701 150 q 689 117 701 117 q 675 133 675 117 q 689 150 675 150 m 256 183 q 268 167 268 183 q 256 150 268 150 q 242 167 242 150 q 256 183 242 183 m 656 200 l 672 183 l 672 200 l 656 200 m 256 217 q 268 200 268 217 q 256 183 268 183 q 242 200 242 183 q 256 217 242 217 m 272 267 q 281 258 281 264 q 272 249 281 251 q 264 258 264 247 q 272 267 264 268 m 539 333 q 531 325 535 325 q 522 333 524 325 q 531 342 519 342 q 539 333 540 342 m 339 417 q 350 451 342 438 q 367 474 358 464 q 383 496 376 485 q 390 525 390 507 q 387 551 390 539 q 379 574 383 563 q 372 598 375 586 q 368 625 368 610 q 399 623 368 625 q 467 616 431 621 q 535 603 504 611 q 565 581 565 594 l 565 447 l 601 447 q 578 408 601 424 q 523 383 554 393 q 460 369 492 374 q 414 365 429 365 q 392 367 406 365 q 365 374 378 369 q 344 390 353 379 q 339 417 336 400 m 322 617 q 314 608 318 608 q 305 617 307 608 q 314 625 303 625 q 322 617 324 625 z "},"s":{"ha":517,"x_min":14,"x_max":503,"o":"m 50 24 l 50 33 q 52 59 50 40 q 57 99 54 78 q 63 140 60 121 q 67 167 65 160 q 38 191 49 172 q 22 233 28 210 q 15 281 17 257 q 14 322 14 306 q 59 305 42 322 q 88 260 76 288 q 110 203 100 233 q 133 145 119 172 q 165 101 146 118 q 217 83 185 83 q 225 91 218 83 q 233 100 232 99 l 240 100 l 250 100 q 266 97 254 100 q 292 92 278 94 q 317 86 306 89 q 333 83 329 83 q 362 105 344 88 q 383 133 379 122 q 377 195 396 169 q 323 244 358 221 q 243 289 288 267 q 160 339 199 311 q 94 403 121 367 q 67 492 67 440 q 78 558 67 526 q 113 614 90 590 q 165 652 135 638 q 232 667 196 667 q 276 661 254 667 q 318 649 297 656 q 360 638 339 643 q 400 633 381 633 q 416 652 407 633 q 435 692 425 671 q 456 733 446 714 q 474 751 465 751 q 493 744 488 751 q 501 726 499 736 q 502 704 503 715 q 501 685 501 693 q 486 568 501 625 q 467 450 471 511 q 463 449 465 450 q 458 449 460 449 q 430 478 446 449 q 390 542 414 507 q 333 606 367 576 q 249 635 299 635 q 223 631 232 635 q 207 617 214 626 q 191 596 200 608 q 167 567 182 583 q 166 563 167 567 q 165 558 165 560 q 166 553 165 557 q 167 550 167 550 q 203 499 185 519 q 242 461 221 478 q 289 431 263 444 q 350 400 315 417 q 378 394 364 407 q 406 364 392 381 q 435 335 421 347 q 467 333 450 324 q 497 264 490 294 q 503 193 503 233 q 502 168 503 185 q 500 150 501 151 l 400 33 q 384 44 396 38 q 367 50 372 50 q 357 47 364 50 q 342 42 350 44 q 326 36 333 39 q 317 33 318 33 q 302 33 315 33 q 282 32 289 32 q 263 33 275 32 q 250 33 251 33 q 222 40 239 35 q 188 51 204 46 q 161 62 172 57 q 150 67 150 67 l 150 83 l 100 83 l 67 0 q 57 7 63 1 q 50 17 51 13 l 50 24 m 433 67 q 447 50 447 67 q 433 33 447 33 q 419 50 419 33 q 433 67 419 67 m 100 483 q 86 467 86 483 q 100 450 86 450 q 114 467 114 450 q 100 483 114 483 z "},"t":{"ha":700,"x_min":15,"x_max":685,"o":"m 100 33 q 106 44 100 38 q 117 50 113 50 q 134 49 122 50 q 158 47 146 47 q 183 44 171 46 q 200 43 194 43 l 200 81 q 268 101 240 81 q 300 167 296 122 q 299 263 303 214 q 288 363 294 313 q 276 463 282 414 q 269 560 269 513 q 245 561 263 560 q 209 563 228 563 q 174 565 190 564 q 150 567 157 567 q 122 556 129 563 q 114 533 114 550 q 122 508 114 518 q 150 500 129 499 q 110 472 124 492 q 87 432 97 453 q 64 396 76 411 q 25 381 51 381 q 26 397 25 385 q 27 423 26 410 q 29 449 28 436 q 33 467 31 461 q 38 478 33 468 q 49 499 43 488 q 61 521 56 511 q 67 533 67 531 q 58 550 67 540 q 41 571 50 560 q 24 594 32 582 q 15 618 15 606 q 21 647 15 638 q 50 667 26 656 q 84 640 64 647 q 125 632 104 632 q 169 641 144 632 q 217 660 193 650 q 258 680 240 671 q 283 689 276 689 l 283 636 q 305 635 299 636 q 317 633 311 633 q 330 636 324 633 q 350 650 336 639 l 633 650 q 658 644 640 650 q 683 633 676 638 q 684 631 683 633 q 685 626 685 628 q 681 572 685 601 q 671 512 678 542 q 655 453 664 482 q 633 400 646 424 q 612 454 625 429 q 599 508 599 479 q 601 524 599 518 q 608 535 604 531 q 615 545 613 540 q 618 558 618 550 q 612 576 618 571 q 597 584 606 582 q 578 585 588 586 q 560 585 568 585 q 506 583 528 585 q 450 567 483 581 q 442 478 446 519 q 437 397 439 436 q 434 318 435 357 q 433 236 433 279 q 444 140 433 185 q 483 50 454 94 q 492 63 485 60 q 510 68 500 67 q 530 69 521 69 q 542 68 539 68 q 553 69 544 68 q 573 68 563 69 q 591 63 583 67 q 600 50 599 60 q 583 33 594 42 q 557 18 571 25 q 532 6 543 11 q 517 0 521 1 l 510 0 l 500 0 l 350 17 l 315 17 q 244 8 279 17 q 174 0 210 0 q 153 8 161 0 q 140 25 146 17 q 125 38 133 33 q 100 33 117 42 m 433 67 q 419 50 419 67 q 433 33 419 33 q 447 50 447 33 q 433 67 447 67 m 417 100 q 408 92 408 101 q 417 83 408 81 q 425 92 425 86 q 417 100 425 97 m 350 217 l 383 200 l 383 389 q 373 388 381 389 q 356 385 365 388 q 340 378 347 383 q 333 367 333 374 q 342 350 333 363 q 350 333 350 338 q 351 310 350 326 q 351 275 351 294 q 351 240 351 256 q 350 217 350 224 m 650 350 q 664 333 664 350 q 650 317 664 317 q 636 333 636 317 q 650 350 636 350 m 383 433 q 375 442 385 442 q 366 433 364 442 q 375 425 368 425 q 383 433 381 425 m 583 567 q 592 558 592 564 q 583 550 592 553 q 575 558 575 547 q 583 567 575 568 z "},"u":{"ha":751,"x_min":22,"x_max":743,"o":"m 226 33 q 257 25 236 31 q 301 14 278 19 q 344 4 324 8 q 376 0 365 0 q 429 11 399 0 q 491 39 460 22 q 550 76 522 56 q 593 117 578 97 q 598 150 594 126 q 603 200 601 174 q 608 250 606 226 q 610 283 610 274 l 610 293 q 601 325 610 313 q 592 357 592 338 q 593 460 592 419 q 607 528 594 500 q 647 580 619 557 q 726 633 675 603 q 736 640 731 635 q 743 650 742 646 q 716 655 735 651 q 676 660 697 658 q 635 665 654 663 q 610 667 617 667 l 585 667 l 560 667 l 576 650 q 560 649 574 650 q 543 649 547 649 q 524 649 536 649 q 510 650 511 650 q 494 658 507 650 q 476 667 481 667 q 460 653 463 667 q 458 632 458 640 q 459 622 458 628 q 460 617 460 617 q 493 593 483 593 q 509 592 503 592 q 522 588 515 593 q 536 567 528 583 q 560 517 544 551 l 560 490 q 560 449 560 471 q 561 408 561 428 l 561 383 q 562 281 561 339 q 550 172 563 224 q 503 85 538 121 q 401 50 469 50 q 341 79 364 50 q 306 153 318 108 q 290 253 293 199 q 286 360 286 308 q 289 458 286 414 q 292 524 292 501 q 292 560 292 538 q 293 583 293 582 l 343 633 l 326 650 q 279 649 313 650 q 210 649 246 649 q 140 649 174 649 q 93 650 107 650 q 92 658 90 650 q 90 665 93 665 q 76 663 85 665 q 57 658 67 661 q 38 653 47 656 q 24 649 29 650 q 23 644 24 647 q 22 640 22 642 q 23 635 22 639 q 24 632 24 632 q 47 612 31 617 q 81 607 64 607 q 92 608 90 607 q 92 612 93 610 q 90 615 90 614 q 93 617 89 617 l 118 583 l 118 150 q 131 133 122 146 q 143 117 140 121 q 150 107 144 114 q 160 92 156 100 q 170 76 165 83 q 176 67 175 68 q 194 74 181 65 q 210 83 207 83 q 222 76 218 83 q 227 61 226 69 q 227 44 228 53 q 226 33 226 36 m 210 67 q 197 50 197 67 q 210 33 197 33 q 224 50 224 33 q 210 67 224 67 m 193 117 q 207 100 207 117 q 193 83 207 83 q 181 100 181 83 q 193 117 181 117 m 226 150 q 240 133 240 150 q 226 117 240 117 q 214 133 214 117 q 226 150 214 150 m 210 167 q 224 150 224 167 q 210 133 224 133 q 197 150 197 133 q 210 167 197 167 m 192 267 q 195 292 192 282 q 210 317 199 303 l 210 217 q 195 241 199 231 q 192 267 192 251 m 143 267 q 151 258 151 264 q 143 249 151 251 q 135 258 135 247 q 143 267 135 269 m 210 367 q 224 350 224 367 q 210 333 224 333 q 197 350 197 333 q 210 367 197 367 m 710 600 q 701 592 701 603 q 710 583 701 581 q 718 592 718 586 q 710 600 718 597 m 626 633 q 640 617 640 633 q 626 600 640 600 q 614 617 614 600 q 626 633 614 633 m 276 700 q 264 683 264 700 q 276 667 264 667 q 290 683 290 667 q 276 700 290 700 z "},"v":{"ha":679,"x_min":-85,"x_max":685,"o":"m 315 50 q 308 33 315 46 q 299 17 300 21 l 299 8 l 299 0 q 335 -3 317 -8 q 366 15 354 1 q 379 47 378 28 q 365 83 381 65 q 469 347 411 221 q 599 600 528 474 q 617 610 603 601 q 646 631 631 619 q 673 657 661 643 q 685 683 685 671 l 465 683 l 449 667 q 467 648 453 651 q 495 640 481 644 q 522 627 510 636 q 533 592 533 618 q 533 577 533 586 q 532 567 532 568 l 399 283 l 382 283 l 332 367 q 313 433 315 396 q 305 508 310 471 q 285 574 300 544 q 232 617 271 604 l 299 650 q 308 660 301 654 q 315 667 315 665 q 308 683 315 671 q 299 700 301 696 q 296 701 299 700 q 290 701 293 701 q 285 701 289 701 q 282 700 282 700 q 272 693 278 699 q 265 683 267 688 l 250 683 q 227 683 239 683 q 206 682 215 682 l 190 682 q 73 691 131 682 q -43 700 15 700 l -85 700 q -50 669 -69 681 q -10 650 -31 658 q 31 631 11 642 q 65 600 50 619 q 125 501 100 554 q 169 390 150 447 q 204 275 188 332 q 240 167 221 218 l 240 217 q 263 194 250 217 q 288 144 276 172 q 307 88 299 115 q 315 50 315 60 m 349 250 q 361 233 361 250 q 349 217 361 217 q 335 233 335 217 q 349 250 335 250 m 349 300 q 361 283 361 300 q 349 267 361 267 q 335 283 335 267 q 349 300 335 300 m 232 350 q 240 342 240 347 q 232 333 240 335 q 224 342 224 331 q 232 350 224 351 m 215 650 q 228 633 228 650 q 215 617 228 617 q 201 633 201 617 q 215 650 201 650 z "},"w":{"ha":906,"x_min":-121,"x_max":933,"o":"m 433 340 q 407 292 421 328 q 378 212 393 257 q 349 118 364 167 q 318 28 333 69 q 288 -39 303 -12 q 257 -65 272 -65 q 242 38 257 -29 q 201 185 226 106 q 141 345 175 264 q 69 491 107 426 q -8 594 32 556 q -83 624 -47 632 q -76 648 -71 640 q -90 660 -81 656 q -110 672 -100 665 q -121 690 -121 678 q -119 699 -121 693 q -117 707 -117 706 l 17 690 l 0 674 q 11 660 1 664 q 32 655 21 656 q 53 655 43 654 q 67 656 64 656 l 79 656 q 96 656 88 656 q 110 657 104 657 l 117 657 q 133 665 119 657 q 150 674 146 674 q 184 665 161 674 q 217 640 207 656 l 200 624 l 233 607 l 200 574 q 217 541 207 571 q 238 474 228 511 q 256 403 249 438 q 267 357 264 369 q 286 356 278 363 q 300 340 294 349 l 333 274 q 365 310 350 286 q 392 363 381 335 q 410 419 403 392 q 417 465 417 446 q 408 517 417 490 q 384 569 400 544 q 347 613 368 593 q 300 640 325 632 q 306 656 300 643 q 317 674 313 669 l 324 674 q 385 672 350 674 q 459 665 421 669 q 534 655 497 661 q 600 640 571 649 q 609 633 603 639 q 617 624 615 626 q 585 628 596 632 q 569 616 575 625 q 563 596 564 607 q 563 576 563 585 q 580 497 563 538 q 616 415 597 456 q 647 335 635 375 q 650 257 660 294 l 667 274 q 682 355 674 321 q 702 417 690 389 q 730 474 714 446 q 767 540 746 503 q 767 544 767 540 q 768 549 768 547 q 767 553 768 550 q 767 557 767 557 q 754 568 764 558 q 733 589 744 578 q 711 610 721 600 q 700 624 701 621 q 699 627 700 624 q 699 632 699 631 q 699 637 699 633 q 700 640 700 640 q 708 650 703 643 q 717 657 713 657 l 933 657 q 921 642 931 653 q 901 622 911 632 q 881 602 890 611 q 867 590 871 593 q 854 593 863 589 q 844 597 846 597 q 835 528 844 576 q 813 430 826 481 q 782 338 799 379 q 750 290 765 297 l 750 340 q 710 234 722 293 q 686 117 699 175 q 652 6 674 58 q 583 -76 631 -46 q 577 22 588 -40 q 546 147 567 83 q 496 265 525 211 q 433 340 467 319 m 249 157 q 249 141 249 150 q 253 124 250 132 q 260 111 256 117 q 275 106 265 106 q 279 106 276 106 q 283 107 282 107 l 250 174 q 249 166 250 172 q 249 157 249 160 m 232 324 q 239 282 232 304 q 256 238 246 260 q 278 194 267 215 q 300 157 290 174 q 304 170 301 161 q 310 190 307 179 q 315 210 313 200 q 317 224 317 219 l 317 233 l 317 240 l 233 340 q 233 333 233 339 q 232 324 232 326 m 217 240 l 217 207 l 236 207 q 217 240 236 229 m 433 307 q 442 299 442 304 q 433 290 442 292 q 425 299 425 288 q 433 307 425 308 m 167 399 q 174 356 167 379 q 200 324 181 332 l 200 332 q 193 374 200 351 q 167 407 186 397 l 167 399 m 733 424 q 719 399 722 410 q 715 374 715 389 q 716 364 715 369 q 717 357 717 358 q 731 381 728 371 q 735 407 735 392 q 734 416 735 410 q 733 424 733 422 m 217 407 q 203 390 203 407 q 217 374 203 374 q 229 390 229 374 q 217 407 229 407 z "},"x":{"ha":808,"x_min":-50,"x_max":792,"o":"m 258 33 l -50 33 q -22 53 -50 46 q 44 69 7 60 q 119 93 82 79 q 175 133 157 107 q 201 168 183 146 q 235 217 218 190 q 264 273 251 244 q 276 326 276 301 q 249 442 276 383 q 192 550 222 500 l 183 550 l 175 550 q 158 543 171 549 q 142 533 146 538 q 152 549 146 538 q 158 567 158 561 q 135 597 158 588 q 83 613 111 607 q 31 628 54 619 q 7 658 7 638 q 23 685 7 674 q 59 703 39 696 q 99 713 79 710 q 125 717 118 717 q 133 714 126 717 q 146 707 139 711 q 159 697 153 703 q 165 686 165 692 q 110 683 136 686 q 58 667 83 681 q 233 651 144 656 q 408 650 321 646 q 390 634 401 638 q 368 628 379 631 q 349 621 357 626 q 340 601 340 615 q 351 575 340 597 q 376 526 361 553 q 404 478 390 500 q 425 450 418 456 q 469 497 444 465 q 508 556 494 528 q 525 583 521 571 q 523 610 531 594 q 515 625 515 625 l 458 625 l 458 650 q 467 654 458 651 q 490 660 476 657 q 517 665 503 663 q 542 667 532 667 l 553 667 q 579 667 564 667 q 610 668 594 668 l 633 668 l 651 668 q 679 667 665 668 q 707 667 693 667 l 725 667 q 742 660 729 667 q 758 650 754 654 q 759 647 758 650 q 760 642 760 643 q 759 638 760 640 q 758 633 758 635 q 681 589 717 608 q 611 549 644 569 q 548 501 578 528 q 492 433 518 474 l 458 400 q 458 397 458 400 q 457 392 457 393 q 458 387 457 390 q 458 383 458 383 l 508 333 q 517 315 510 331 q 533 283 525 300 q 549 251 542 265 q 558 233 556 236 q 595 195 574 210 q 637 165 617 181 q 671 128 657 149 q 685 72 685 107 l 649 72 q 592 60 619 72 q 558 17 564 49 q 549 30 557 26 q 533 35 542 33 q 515 35 524 36 q 501 35 506 35 q 441 25 468 35 q 382 15 414 15 q 391 45 382 33 q 414 65 400 57 q 444 76 428 72 q 475 83 460 81 q 455 119 468 103 q 425 150 442 136 q 435 156 429 150 q 442 167 442 163 q 435 191 442 176 q 418 219 428 206 q 397 242 408 232 q 375 251 385 251 q 338 238 351 251 q 308 200 325 224 q 291 174 303 193 q 267 135 279 156 q 242 94 254 114 q 225 67 231 75 l 314 67 q 312 58 314 63 q 308 50 310 54 q 299 40 306 47 q 284 24 292 32 q 269 10 276 17 q 258 0 261 3 l 258 33 m 708 67 l 725 67 l 742 67 q 767 60 749 65 q 792 50 786 54 q 785 40 792 46 q 775 33 779 33 q 761 32 771 33 q 741 29 751 31 q 722 27 731 28 q 708 26 713 26 l 708 67 m 608 67 q 622 50 622 67 q 608 33 622 33 q 594 50 594 33 q 608 67 594 67 m 340 183 q 341 193 340 188 q 342 200 342 199 l 392 117 q 394 100 394 106 l 375 100 q 370 108 375 100 q 359 126 365 115 q 348 148 353 136 q 342 167 343 160 q 341 174 342 168 q 340 183 340 179 m 575 133 q 561 117 561 133 q 575 100 561 100 q 589 117 589 100 q 575 133 589 133 m 408 183 q 422 167 422 183 q 408 150 422 150 q 394 167 394 150 q 408 183 394 183 m 275 233 q 265 226 271 232 q 258 217 260 221 q 258 213 258 217 q 257 208 257 210 q 258 204 257 207 q 258 200 258 201 q 268 207 263 201 q 275 217 274 213 q 276 220 275 217 q 276 225 276 224 q 276 229 276 226 q 275 233 275 232 m 358 300 q 344 283 344 300 q 358 267 344 267 q 372 283 372 267 q 358 300 372 300 m 325 333 q 311 317 311 333 q 325 300 311 300 q 339 317 339 300 q 325 333 339 333 m 308 367 l 308 350 l 325 350 l 325 367 l 308 367 m 175 533 q 189 517 189 533 q 175 500 189 500 q 161 517 161 500 q 175 533 161 533 m 308 617 q 294 600 294 617 q 308 583 294 583 q 322 600 322 583 q 308 617 322 617 m 292 633 q 278 617 278 633 q 292 600 278 600 q 306 617 306 600 q 292 633 306 633 m 775 683 q 767 675 772 675 q 758 683 761 675 q 767 692 756 692 q 775 683 776 692 z "},"y":{"ha":757,"x_min":-14,"x_max":769,"o":"m 110 22 q 124 56 110 46 q 158 70 138 65 q 201 78 178 75 q 243 88 224 81 q 275 114 263 96 q 286 167 288 132 l 303 150 q 313 174 307 156 q 319 200 318 193 l 319 208 q 310 251 319 225 q 288 306 301 278 q 260 359 275 333 q 236 400 246 385 q 209 443 226 414 q 173 501 192 472 q 139 554 154 531 q 119 583 124 578 q 84 612 104 604 q 44 626 64 619 q 8 643 24 632 q -14 683 -8 654 l 69 683 q 61 700 67 688 q 53 717 56 713 l 53 725 l 53 733 q 98 706 79 718 q 135 685 117 693 q 178 672 154 676 q 239 667 201 667 l 253 667 q 270 676 257 668 q 286 683 283 683 q 295 675 289 683 q 303 667 301 667 q 317 665 307 667 q 340 663 328 664 q 361 660 351 661 q 375 660 371 660 q 369 644 375 650 q 355 632 363 638 q 341 619 347 626 q 335 601 335 613 q 341 555 335 579 q 357 506 347 531 q 379 459 367 482 q 403 417 392 436 l 436 433 q 438 429 436 432 q 439 425 439 426 q 438 420 439 424 q 436 417 436 417 q 429 407 435 413 q 419 400 424 401 q 424 399 422 400 q 428 399 426 399 q 449 406 440 399 q 465 424 458 414 q 476 447 471 435 q 486 467 482 458 l 553 567 q 539 576 542 571 q 537 586 536 581 q 540 598 538 592 q 542 611 542 604 q 517 609 526 611 q 501 604 508 607 q 484 599 493 601 q 461 597 475 597 q 503 667 461 643 q 517 667 507 667 q 537 667 526 667 q 556 668 547 668 q 569 668 565 668 q 588 668 576 668 q 609 667 599 668 q 626 667 619 667 q 636 667 635 667 q 674 662 651 664 q 718 658 697 660 q 754 653 739 656 q 769 650 769 651 l 769 633 l 686 583 l 686 593 q 663 583 675 593 q 641 558 651 572 q 621 527 631 543 q 603 500 611 511 q 570 451 590 482 q 531 391 550 421 q 499 339 513 361 q 486 317 486 317 q 485 301 486 314 q 483 270 485 288 q 481 235 482 253 q 481 208 481 218 q 481 186 481 201 q 483 154 482 171 q 485 122 485 138 q 486 100 486 106 q 529 88 507 96 q 570 69 551 81 q 603 40 589 57 q 619 0 617 22 q 613 -1 618 0 q 603 -1 607 -1 q 584 1 593 -1 q 569 17 575 3 l 353 17 l 336 -17 l 336 0 q 325 4 336 1 q 298 10 314 7 q 265 15 282 13 q 236 17 247 17 q 211 17 229 17 q 172 19 193 18 q 133 22 151 21 q 110 22 115 22 m 469 17 q 483 0 483 17 q 469 -17 483 -17 q 457 0 457 -17 q 469 17 457 17 m 286 233 q 300 217 300 233 q 286 200 300 200 q 274 217 274 200 q 286 233 274 233 m 269 250 q 283 233 283 250 q 269 217 283 217 q 257 233 257 217 q 269 250 257 250 m 369 367 q 361 358 361 369 q 369 349 361 347 q 378 358 378 351 q 369 367 378 364 m 486 400 q 469 384 482 396 q 453 367 457 372 q 452 363 453 367 q 451 358 451 360 q 452 354 451 357 q 453 350 453 351 q 471 366 458 354 q 486 383 483 378 q 488 387 486 383 q 489 392 489 390 q 488 396 489 393 q 486 400 486 399 m 553 533 l 519 483 q 524 483 522 483 q 528 482 526 482 q 533 483 531 482 q 536 483 536 483 q 545 497 540 485 q 553 517 550 510 l 553 525 l 553 533 m 253 717 q 261 708 261 714 q 253 700 261 703 q 244 708 244 697 q 253 717 244 719 m 236 750 q 250 733 250 750 q 236 717 250 717 q 224 733 224 717 q 236 750 224 750 z "},"z":{"ha":733,"x_min":17,"x_max":731,"o":"m 550 33 q 501 33 533 33 q 424 32 468 32 l 333 32 l 243 32 q 166 33 199 32 q 117 33 133 33 q 88 35 106 33 q 55 40 71 38 q 28 46 39 43 q 17 50 17 49 l 17 67 q 28 84 17 74 q 54 103 39 94 q 87 117 69 113 q 117 117 104 122 q 185 228 153 179 q 248 320 217 276 q 313 407 279 364 q 383 500 346 450 q 399 528 396 517 q 400 550 401 539 q 396 576 399 561 q 393 615 393 592 q 388 616 392 615 q 383 617 385 617 l 283 583 q 275 583 282 583 q 267 582 268 582 l 267 593 q 208 582 226 593 q 183 553 190 571 q 173 516 175 536 q 165 478 171 496 q 145 450 160 461 q 97 439 131 439 q 103 473 97 457 q 116 505 108 489 q 129 535 124 521 q 135 565 135 550 q 123 608 135 590 q 98 640 111 625 q 73 670 85 656 q 61 706 61 685 q 148 697 107 706 q 231 677 189 688 q 315 658 272 667 q 408 650 358 650 q 556 659 483 650 q 703 668 628 668 q 688 635 703 649 q 651 611 672 622 q 611 590 631 600 q 583 567 592 579 l 433 317 l 433 350 q 458 393 443 367 q 487 449 472 419 q 514 510 501 479 q 533 567 526 542 l 533 575 l 533 583 q 524 576 529 582 q 517 567 518 571 q 491 519 508 551 q 455 451 474 486 q 421 388 436 417 q 400 350 406 358 q 385 312 397 342 q 358 249 372 282 q 333 186 344 215 q 317 150 321 157 l 300 117 q 299 110 300 117 q 299 100 299 104 q 299 90 299 96 q 300 83 300 85 l 483 67 q 507 81 494 65 q 533 120 519 96 q 559 173 546 144 q 586 226 572 201 q 614 268 600 251 q 642 285 628 285 q 665 271 661 285 q 668 243 668 257 q 667 193 668 232 q 661 110 667 154 q 643 33 656 67 q 608 -1 631 -1 q 603 -1 607 -1 q 600 0 600 0 q 574 16 593 4 q 550 33 556 28 m 100 100 q 86 83 86 100 q 100 67 86 67 q 114 83 114 67 q 100 100 114 100 m 617 217 q 601 190 603 201 q 599 158 599 178 q 599 146 599 154 q 600 133 600 138 q 617 155 617 138 q 618 183 618 172 q 617 200 618 188 q 617 217 617 213 m 333 400 q 273 333 297 375 q 233 250 249 290 q 292 318 269 276 q 333 400 314 360 m 350 350 q 340 343 346 349 q 333 333 335 338 q 333 330 333 333 q 332 325 332 326 q 333 321 332 324 q 333 317 333 318 q 343 324 338 318 q 350 333 349 329 q 351 337 350 333 q 351 342 351 340 q 351 346 351 343 q 350 350 350 349 m 417 450 q 403 433 403 450 q 417 417 403 417 q 431 433 431 417 q 417 450 431 450 m 133 517 q 125 508 125 518 q 133 499 125 497 q 142 508 142 501 q 133 517 142 514 m 467 550 q 449 534 461 546 q 433 517 438 522 q 433 513 433 517 q 432 508 432 510 q 433 504 432 507 q 433 500 433 501 q 454 522 447 508 q 467 550 461 536 m 717 650 q 731 633 731 650 q 717 617 731 617 q 703 633 703 617 q 717 650 703 650 m 233 700 q 225 692 231 692 q 216 700 218 692 q 225 708 214 708 q 233 700 235 708 z "},"{":{"ha":397,"x_min":-28,"x_max":376,"o":"m 318 26 l 233 35 l 210 67 q 189 165 203 118 q 175 264 175 211 q 177 333 175 282 q 185 440 179 383 q 201 542 190 496 q 226 600 211 589 q 267 618 247 611 q 306 632 288 625 q 342 651 325 639 q 376 683 360 663 q 356 684 371 683 q 335 685 340 685 q 244 678 289 685 q 156 663 200 671 q 65 649 111 656 q -28 642 19 642 q -26 638 -28 638 q -24 633 -25 638 q -17 628 -22 632 q -6 618 -11 624 q 5 607 0 613 q 10 600 10 601 l 10 582 l 10 550 l 10 518 q 19 491 10 503 q 36 472 29 479 q 42 464 46 465 q 39 453 39 463 q 40 356 39 389 q 42 299 40 322 q 44 249 43 275 q 44 175 44 224 q 42 121 44 142 q 26 67 40 100 q -9 60 1 74 q -19 18 -19 47 q -19 6 -19 15 q -17 -7 -18 -3 q 57 19 14 13 q 126 18 100 25 q 176 -2 150 11 q 231 -28 203 -15 q 286 -50 258 -40 q 342 -60 314 -60 q 330 -17 342 -36 q 318 26 318 1 m 126 167 q 147 133 147 156 l 126 133 l 126 167 z "},"|":{"ha":225,"x_min":18,"x_max":210,"o":"m 153 -22 q 160 147 157 57 q 166 323 163 236 q 173 489 169 410 q 181 629 176 568 q 193 727 186 690 q 210 765 200 764 l 189 781 q 158 778 183 778 l 114 778 q 96 780 101 778 q 87 785 90 782 q 80 791 83 789 q 69 793 76 793 l 65 792 q 58 782 64 790 q 49 774 51 774 q 35 766 39 768 q 18 760 32 764 l 72 689 q 69 656 71 681 q 67 600 68 632 q 64 533 65 568 q 62 466 63 497 q 60 413 61 435 q 60 386 60 390 q 62 314 60 363 q 65 206 64 265 q 63 81 65 146 q 53 -40 61 15 q 43 -65 43 -43 l 43 -94 l 25 -94 l 149 -103 q 156 -98 154 -103 q 161 -93 158 -93 q 156 -72 154 -81 q 160 -57 157 -62 q 165 -49 163 -51 q 165 -44 168 -46 l 164 -44 q 158 -37 160 -47 q 153 -22 157 -26 z "},"}":{"ha":397,"x_min":-26,"x_max":378,"o":"m 32 26 l 117 35 l 140 67 q 161 165 147 118 q 175 264 175 211 q 173 333 175 282 q 165 440 171 383 q 149 542 160 496 q 124 600 139 589 q 83 618 103 611 q 44 632 63 625 q 8 651 25 639 q -26 683 -10 663 q -6 684 -21 683 q 15 685 10 685 q 106 678 61 685 q 194 663 150 671 q 284 649 239 656 q 378 642 329 642 q 376 638 378 638 q 374 633 375 638 q 367 628 372 632 q 356 618 361 624 q 345 607 350 613 q 340 600 340 601 l 340 582 l 340 550 l 340 518 q 331 491 340 503 q 314 472 321 479 q 308 467 308 469 q 308 464 307 465 q 310 460 308 463 q 311 453 311 457 q 310 356 311 389 q 308 299 310 322 q 306 249 307 275 q 306 175 306 224 q 308 121 306 142 q 324 67 310 100 q 359 60 349 74 q 369 18 369 47 q 369 6 369 15 q 367 -7 368 -3 q 293 19 336 13 q 224 18 250 25 q 174 -2 200 11 q 119 -28 147 -15 q 63 -50 92 -40 q 8 -60 35 -60 q 20 -17 8 -36 q 32 26 32 1 m 224 167 q 203 133 203 156 l 224 133 l 224 167 z "},"~":{"ha":639,"x_min":-1,"x_max":603,"o":"m 353 226 q 339 253 353 235 q 316 266 331 254 q 284 292 301 278 q 247 316 267 306 q 206 326 226 326 l 78 251 l 78 243 q 14 233 29 235 q -1 233 -1 232 q 10 237 0 235 q 24 239 21 239 q 50 256 33 236 q 96 308 67 276 q 169 381 125 340 q 278 458 214 421 l 278 453 q 270 447 276 451 q 264 442 264 442 q 278 417 264 431 q 328 394 313 406 l 328 399 q 347 372 338 385 q 365 347 356 358 q 367 344 365 344 l 411 343 l 486 418 l 549 443 q 587 444 575 446 q 601 440 599 443 q 599 433 603 436 q 593 431 596 431 q 538 383 568 411 q 478 326 507 354 q 428 276 450 299 q 397 243 406 253 l 394 242 q 407 228 408 235 q 395 216 406 221 q 369 209 385 211 q 339 210 353 207 l 339 215 q 347 222 340 217 q 353 226 353 226 m 486 319 q 474 303 474 319 q 486 286 474 286 q 500 303 500 286 q 486 319 500 319 m 36 186 q 28 178 28 192 q 36 169 28 168 q 44 178 44 171 q 36 186 44 183 m 469 336 l 469 319 l 486 336 l 469 336 m 225 357 l 225 356 q 232 349 225 349 q 230 353 231 350 q 225 357 229 356 m 392 314 q 383 322 392 315 q 387 315 385 318 q 392 310 389 313 l 392 314 z "},"":{"ha":286,"x_min":0,"x_max":0,"o":""},"":{"ha":803,"x_min":11,"x_max":789,"o":"m 424 250 l 340 257 q 337 301 338 279 q 336 347 336 324 q 374 343 354 344 q 417 339 393 342 q 430 333 421 333 q 453 332 439 332 l 472 332 l 494 336 l 492 444 q 487 451 492 449 q 482 456 482 453 q 449 438 453 444 q 444 428 446 432 q 436 425 447 425 q 422 422 426 425 l 347 428 q 374 494 357 463 q 417 549 392 525 q 474 586 442 572 q 544 600 506 600 q 618 585 585 600 q 676 546 651 571 q 716 488 700 521 q 736 417 732 454 l 769 450 q 773 469 771 450 q 778 515 775 489 q 783 569 781 542 q 786 617 785 597 l 786 625 q 788 640 786 632 q 789 657 789 647 l 789 711 q 769 750 789 733 q 767 735 769 746 q 761 714 765 725 q 749 694 757 703 q 732 686 742 686 q 713 646 732 658 q 669 633 694 633 q 595 642 631 633 q 519 651 560 651 q 443 647 483 651 q 363 631 403 642 q 286 605 324 621 q 219 567 249 589 q 216 548 222 561 q 199 517 210 535 q 176 477 189 499 q 150 433 163 456 q 107 434 128 433 q 69 437 86 435 q 40 444 51 439 q 26 458 28 450 l 11 444 q 14 426 13 440 q 16 397 15 413 q 17 365 17 381 q 18 342 18 350 l 19 339 q 24 336 22 336 q 25 335 25 336 q 25 335 25 335 q 33 326 31 328 q 39 315 35 324 l 118 340 q 133 261 118 307 q 63 267 94 261 q 28 289 32 272 l 14 274 q 16 255 15 268 q 17 226 17 242 q 19 194 18 210 q 19 169 19 178 l 22 167 q 25 165 24 165 q 26 164 26 165 q 34 155 32 157 q 40 143 36 153 l 125 172 l 111 183 q 132 186 111 186 l 168 186 q 239 89 199 133 q 319 33 279 44 q 332 32 322 31 q 353 36 342 33 q 374 41 364 39 q 386 43 383 43 l 386 17 q 401 6 386 10 q 434 1 415 3 q 470 -1 453 0 q 494 -1 488 -1 q 563 9 532 -1 q 624 33 594 19 q 685 60 654 46 q 753 83 717 75 q 758 109 754 90 q 763 150 761 128 q 767 191 765 172 q 769 217 769 210 q 771 233 769 221 q 772 250 772 246 l 753 250 q 719 165 740 197 q 667 113 699 132 q 594 88 636 94 q 493 82 551 82 q 403 108 435 82 q 357 175 372 133 q 385 172 371 174 q 418 168 400 169 q 431 161 422 161 q 456 161 440 161 l 474 161 l 497 165 l 493 274 l 493 275 q 488 279 493 278 q 483 283 483 281 q 451 266 454 272 q 447 257 449 260 q 439 253 449 254 q 424 250 429 253 m 185 307 l 185 357 l 203 357 l 203 261 l 183 261 q 184 285 183 274 q 185 307 185 297 m 303 167 q 313 150 307 163 q 319 133 318 138 q 324 117 324 125 l 282 117 q 285 144 282 128 q 303 167 288 161 m 769 383 q 757 367 757 383 q 769 350 757 350 q 783 367 783 350 q 769 383 783 383 m 736 533 q 750 517 750 533 q 736 500 750 500 q 724 517 724 500 q 736 533 724 533 m 253 567 q 267 550 267 567 q 253 533 267 533 q 240 550 240 533 q 253 567 240 567 m 353 83 q 344 75 350 75 q 336 83 338 75 q 344 92 335 92 q 353 83 357 92 m 169 533 l 169 517 l 186 533 l 169 533 m 203 240 q 194 237 199 238 q 189 236 190 236 l 186 236 l 186 239 l 189 239 q 195 242 192 240 q 203 247 199 244 l 203 240 m 203 418 l 203 411 q 190 408 192 408 q 191 410 190 410 q 192 414 192 411 q 203 418 194 415 m 110 353 q 119 357 110 357 q 118 344 118 353 l 110 353 m 197 433 q 203 450 199 440 l 203 433 l 197 433 z "},"":{"ha":219,"x_min":15,"x_max":200,"o":"m 15 47 q 27 34 25 42 q 33 19 29 26 q 49 13 36 17 q 74 6 61 10 q 99 -3 88 1 q 110 -10 110 -7 l 97 -142 q 126 -131 110 -136 q 158 -106 143 -125 q 185 -45 174 -86 q 199 72 196 -4 q 169 133 200 111 q 94 156 139 156 q 88 153 93 156 q 81 150 83 151 q 30 122 44 139 q 15 69 15 104 l 15 65 l 15 51 l 15 47 m 47 32 q 50 26 50 32 q 47 24 50 24 q 42 26 42 24 q 47 32 42 32 m 51 47 q 56 42 56 47 q 51 39 56 39 q 47 42 47 39 q 51 47 47 47 m 47 74 q 49 60 49 72 q 47 47 49 49 q 44 60 44 47 l 44 69 q 47 74 44 75 m 57 53 l 57 51 q 56 50 57 50 q 53 51 53 50 q 57 53 53 53 m 160 76 l 167 76 q 160 58 167 65 l 160 76 m 57 69 l 57 67 q 55 66 57 67 q 53 67 53 65 q 54 72 53 71 q 57 69 56 72 m 31 100 l 31 99 q 28 97 31 97 l 28 99 q 31 100 28 100 m 150 133 q 151 128 151 133 q 150 124 151 124 q 143 128 143 124 q 150 133 143 133 m 143 135 l 150 135 l 143 133 l 143 135 z "},"":{"ha":618,"x_min":-110,"x_max":603,"o":"m -93 -78 q -81 -94 -81 -78 q -93 -111 -81 -111 q -107 -94 -107 -111 q -93 -78 -107 -78 m -110 -44 q -60 -26 -97 -43 q 16 16 -24 -8 q 87 67 56 40 q 118 117 118 94 l 118 144 q 119 188 118 165 q 119 231 119 210 l 119 258 q 123 446 119 374 q 133 559 126 518 q 147 617 139 600 q 163 636 154 633 q 178 635 171 639 q 193 631 186 631 q 214 631 199 631 q 235 633 229 632 l 218 667 l 226 667 q 303 658 267 667 q 385 649 339 649 l 403 649 q 435 649 418 649 q 465 650 451 650 l 485 650 q 508 676 500 661 q 526 703 517 690 q 549 724 536 715 q 585 733 561 733 q 599 649 596 685 q 603 574 603 614 l 603 517 l 603 497 q 602 466 603 482 q 601 435 601 450 l 601 417 q 583 399 599 400 q 557 399 568 399 q 530 422 542 399 q 509 477 518 446 q 494 539 500 508 q 485 583 489 569 l 469 583 q 448 584 460 583 q 425 585 436 585 l 410 585 q 376 585 393 585 q 342 583 358 586 q 310 573 325 581 q 285 550 296 565 q 281 524 283 543 q 275 483 278 504 q 270 442 272 461 q 268 417 268 424 l 268 399 q 300 367 268 367 q 363 374 344 367 q 385 394 381 382 q 388 420 390 407 q 387 446 385 433 q 402 466 389 458 q 451 474 415 474 l 451 217 l 435 183 l 410 200 l 410 150 q 398 178 407 154 q 377 228 389 201 q 352 278 365 256 q 326 300 339 300 q 265 275 281 300 q 250 215 250 250 l 250 167 q 238 127 250 158 q 214 62 226 96 q 192 1 201 28 q 190 -28 183 -26 l 340 -61 l 324 -78 l -43 -78 q -78 -69 -54 -78 q -110 -44 -101 -60 m 201 367 q 196 358 199 372 q 193 325 193 344 q 196 293 193 308 q 201 283 199 278 q 207 300 206 289 q 208 325 208 311 q 207 350 208 339 q 201 367 206 361 m 151 450 q 146 443 149 454 q 143 417 143 432 q 146 390 143 401 q 151 383 149 379 q 160 417 160 392 q 151 450 160 442 m 551 483 q 546 476 549 488 q 543 450 543 465 q 546 424 543 435 q 551 417 549 413 q 560 450 560 425 q 551 483 560 475 z "}}}
